  0
SECTION
  2
HEADER
  9
$ACADVER
  1
AC1014
  9
$HANDSEED
  5
FFFF
  9
$MEASUREMENT
 70
     1
  0
ENDSEC
  0
SECTION
  2
TABLES
  0
TABLE
  2
VPORT
  5
8
330
0
100
AcDbSymbolTable
 70
     4
  0
VPORT
  5
2E
330
8
100
AcDbSymbolTableRecord
100
AcDbViewportTableRecord
  2
*ACTIVE
 70
     0
 10
0.0
 20
0.0
 11
1.0
 21
1.0
 12
210.0
 22
148.5
 13
0.0
 23
0.0
 14
10.0
 24
10.0
 15
10.0
 25
10.0
 16
0.0
 26
0.0
 36
1.0
 17
0.0
 27
0.0
 37
0.0
 40
341.0
 41
1.24
 42
50.0
 43
0.0
 44
0.0
 50
0.0
 51
0.0
 71
     0
 72
   100
 73
     1
 74
     3
 75
     0
 76
     0
 77
     0
 78
     0
  0
ENDTAB
  0
TABLE
  2
LTYPE
  5
5
330
0
100
AcDbSymbolTable
 70
     1
  0
LTYPE
  5
14
330
5
100
AcDbSymbolTableRecord
100
AcDbLinetypeTableRecord
  2
BYBLOCK
 70
     0
  3

 72
    65
 73
     0
 40
0.0
  0
LTYPE
  5
15
330
5
100
AcDbSymbolTableRecord
100
AcDbLinetypeTableRecord
  2
BYLAYER
 70
     0
  3

 72
    65
 73
     0
 40
0.0
  0
LTYPE
  5
16
330
5
100
AcDbSymbolTableRecord
100
AcDbLinetypeTableRecord
  2
CONTINUOUS
 70
     0
  3
Solid line
 72
    65
 73
     0
 40
0.0
  0
ENDTAB
  0
TABLE
  2
LAYER
  5
2
100
AcDbSymbolTable
 70
2
  0
LAYER
  5
50
100
AcDbSymbolTableRecord
100
AcDbLayerTableRecord
  2
0
 70
0
  6
CONTINUOUS
  0
LAYER
  5
51
100
AcDbSymbolTableRecord
100
AcDbLayerTableRecord
  2
Layer_1
 70
0
  6
CONTINUOUS
  0
ENDTAB
  0
TABLE
  2
STYLE
  5
3
330
0
100
AcDbSymbolTable
 70
     1
  0
STYLE
  5
11
330
3
100
AcDbSymbolTableRecord
100
AcDbTextStyleTableRecord
  2
STANDARD
 70
     0
 40
0.0
 41
1.0
 50
0.0
 71
     0
 42
2.5
  3
txt
  4

  0
ENDTAB
  0
TABLE
  2
VIEW
  5
6
330
0
100
AcDbSymbolTable
 70
     0
  0
ENDTAB
  0
TABLE
  2
UCS
  5
7
330
0
100
AcDbSymbolTable
 70
     0
  0
ENDTAB
  0
TABLE
  2
APPID
  5
9
330
0
100
AcDbSymbolTable
 70
     2
  0
APPID
  5
12
330
9
100
AcDbSymbolTableRecord
100
AcDbRegAppTableRecord
  2
ACAD
 70
     0
  0
ENDTAB
  0
TABLE
  2
DIMSTYLE
  5
A
330
0
100
AcDbSymbolTable
 70
     1
  0
DIMSTYLE
105
27
330
A
100
AcDbSymbolTableRecord
100
AcDbDimStyleTableRecord
  2
ISO-25
 70
     0
  3

  4

  5

  6

  7

 40
1.0
 41
2.5
 42
0.625
 43
3.75
 44
1.25
 45
0.0
 46
0.0
 47
0.0
 48
0.0
140
2.5
141
2.5
142
0.0
143
0.03937007874016
144
1.0
145
0.0
146
1.0
147
0.625
 71
     0
 72
     0
 73
     0
 74
     0
 75
     0
 76
     0
 77
     1
 78
     8
170
     0
171
     3
172
     1
173
     0
174
     0
175
     0
176
     0
177
     0
178
     0
270
     2
271
     2
272
     2
273
     2
274
     3
340
11
275
     0
280
     0
281
     0
282
     0
283
     0
284
     8
285
     0
286
     0
287
     3
288
     0
  0
ENDTAB
  0
TABLE
  2
BLOCK_RECORD
  5
1
330
0
100
AcDbSymbolTable
 70
     1
  0
BLOCK_RECORD
  5
1F
330
1
100
AcDbSymbolTableRecord
100
AcDbBlockTableRecord
  2
*MODEL_SPACE
  0
BLOCK_RECORD
  5
1B
330
1
100
AcDbSymbolTableRecord
100
AcDbBlockTableRecord
  2
*PAPER_SPACE
  0
ENDTAB
  0
ENDSEC
  0
SECTION
  2
BLOCKS
  0
BLOCK
  5
20
330
1F
100
AcDbEntity
  8
0
100
AcDbBlockBegin
  2
*MODEL_SPACE
 70
     0
 10
0.0
 20
0.0
 30
0.0
  3
*MODEL_SPACE
  1

  0
ENDBLK
  5
21
330
1F
100
AcDbEntity
  8
0
100
AcDbBlockEnd
  0
BLOCK
  5
1C
330
1B
100
AcDbEntity
 67
     1
  8
0
100
AcDbBlockBegin
  2
*PAPER_SPACE
  1

  0
ENDBLK
  5
1D
330
1B
100
AcDbEntity
 67
     1
  8
0
100
AcDbBlockEnd
  0
ENDSEC
  0
SECTION
  2
ENTITIES
  0
SPLINE
  5
100
100
AcDbEntity
  8
Layer_1
 62
7
100
AcDbSpline
 70
8
 71
3
 72
8
 73
4
 74
0
 40
0
 40
0
 40
0
 40
0
 40
1
 40
1
 40
1
 40
1
 10
76.370511
 20
86.378750
 30
0.0
 10
76.370510
 20
85.604579
 30
0.0
 10
75.742921
 20
84.976990
 30
0.0
 10
74.968750
 20
84.976990
 30
0.0
  0
SPLINE
  5
101
100
AcDbEntity
  8
Layer_1
 62
7
100
AcDbSpline
 70
8
 71
3
 72
8
 73
4
 74
0
 40
0
 40
0
 40
0
 40
0
 40
1
 40
1
 40
1
 40
1
 10
74.968750
 20
84.976990
 30
0.0
 10
74.194579
 20
84.976990
 30
0.0
 10
73.566990
 20
85.604579
 30
0.0
 10
73.566989
 20
86.378750
 30
0.0
  0
SPLINE
  5
102
100
AcDbEntity
  8
Layer_1
 62
7
100
AcDbSpline
 70
8
 71
3
 72
8
 73
4
 74
0
 40
0
 40
0
 40
0
 40
0
 40
1
 40
1
 40
1
 40
1
 10
73.566989
 20
86.378750
 30
0.0
 10
73.566990
 20
87.152921
 30
0.0
 10
74.194579
 20
87.780510
 30
0.0
 10
74.968750
 20
87.780510
 30
0.0
  0
SPLINE
  5
103
100
AcDbEntity
  8
Layer_1
 62
7
100
AcDbSpline
 70
8
 71
3
 72
8
 73
4
 74
0
 40
0
 40
0
 40
0
 40
0
 40
1
 40
1
 40
1
 40
1
 10
74.968750
 20
87.780510
 30
0.0
 10
75.742921
 20
87.780510
 30
0.0
 10
76.370510
 20
87.152921
 30
0.0
 10
76.370511
 20
86.378750
 30
0.0
  0
SPLINE
  5
104
100
AcDbEntity
  8
Layer_1
 62
7
100
AcDbSpline
 70
8
 71
3
 72
8
 73
4
 74
0
 40
0
 40
0
 40
0
 40
0
 40
1
 40
1
 40
1
 40
1
 10
76.370511
 20
209.032738
 30
0.0
 10
76.370511
 20
208.258567
 30
0.0
 10
75.742921
 20
207.630977
 30
0.0
 10
74.968750
 20
207.630977
 30
0.0
  0
SPLINE
  5
105
100
AcDbEntity
  8
Layer_1
 62
7
100
AcDbSpline
 70
8
 71
3
 72
8
 73
4
 74
0
 40
0
 40
0
 40
0
 40
0
 40
1
 40
1
 40
1
 40
1
 10
74.968750
 20
207.630977
 30
0.0
 10
74.194579
 20
207.630977
 30
0.0
 10
73.566989
 20
208.258567
 30
0.0
 10
73.566989
 20
209.032738
 30
0.0
  0
SPLINE
  5
106
100
AcDbEntity
  8
Layer_1
 62
7
100
AcDbSpline
 70
8
 71
3
 72
8
 73
4
 74
0
 40
0
 40
0
 40
0
 40
0
 40
1
 40
1
 40
1
 40
1
 10
73.566989
 20
209.032738
 30
0.0
 10
73.566989
 20
209.806909
 30
0.0
 10
74.194579
 20
210.434499
 30
0.0
 10
74.968750
 20
210.434499
 30
0.0
  0
SPLINE
  5
107
100
AcDbEntity
  8
Layer_1
 62
7
100
AcDbSpline
 70
8
 71
3
 72
8
 73
4
 74
0
 40
0
 40
0
 40
0
 40
0
 40
1
 40
1
 40
1
 40
1
 10
74.968750
 20
210.434499
 30
0.0
 10
75.742921
 20
210.434499
 30
0.0
 10
76.370511
 20
209.806909
 30
0.0
 10
76.370511
 20
209.032738
 30
0.0
  0
LWPOLYLINE
  5
108
100
AcDbEntity
  8
Layer_1
 62
7
100
AcDbPolyline
 90
1
 70
1
 10
76.370511
 20
86.378750
 30
0.0
  0
LWPOLYLINE
  5
109
100
AcDbEntity
  8
Layer_1
 62
7
100
AcDbPolyline
 90
1
 70
1
 10
76.370511
 20
209.032738
 30
0.0
  0
SPLINE
  5
10a
100
AcDbEntity
  8
Layer_1
 62
7
100
AcDbSpline
 70
8
 71
3
 72
8
 73
4
 74
0
 40
0
 40
0
 40
0
 40
0
 40
1
 40
1
 40
1
 40
1
 10
89.766613
 20
133.822330
 30
0.0
 10
89.754295
 20
133.822351
 30
0.0
 10
89.742473
 20
133.817410
 30
0.0
 10
89.733751
 20
133.808595
 30
0.0
  0
SPLINE
  5
10b
100
AcDbEntity
  8
Layer_1
 62
7
100
AcDbSpline
 70
8
 71
3
 72
8
 73
4
 74
0
 40
0
 40
0
 40
0
 40
0
 40
1
 40
1
 40
1
 40
1
 10
89.733751
 20
133.808595
 30
0.0
 10
89.725028
 20
133.799780
 30
0.0
 10
89.720118
 20
133.787814
 30
0.0
 10
89.720103
 20
133.775330
 30
0.0
  0
SPLINE
  5
10c
100
AcDbEntity
  8
Layer_1
 62
7
100
AcDbSpline
 70
8
 71
3
 72
8
 73
4
 74
0
 40
0
 40
0
 40
0
 40
0
 40
1
 40
1
 40
1
 40
1
 10
89.720103
 20
133.775330
 30
0.0
 10
89.719987
 20
133.762760
 30
0.0
 10
89.724838
 20
133.750664
 30
0.0
 10
89.733575
 20
133.741741
 30
0.0
  0
SPLINE
  5
10d
100
AcDbEntity
  8
Layer_1
 62
7
100
AcDbSpline
 70
8
 71
3
 72
8
 73
4
 74
0
 40
0
 40
0
 40
0
 40
0
 40
1
 40
1
 40
1
 40
1
 10
89.733575
 20
133.741741
 30
0.0
 10
89.742312
 20
133.732818
 30
0.0
 10
89.754209
 20
133.727809
 30
0.0
 10
89.766613
 20
133.727830
 30
0.0
  0
SPLINE
  5
10e
100
AcDbEntity
  8
Layer_1
 62
7
100
AcDbSpline
 70
8
 71
3
 72
8
 73
4
 74
0
 40
0
 40
0
 40
0
 40
0
 40
1
 40
1
 40
1
 40
1
 10
89.766613
 20
133.727830
 30
0.0
 10
89.779017
 20
133.727809
 30
0.0
 10
89.790914
 20
133.732818
 30
0.0
 10
89.799651
 20
133.741741
 30
0.0
  0
SPLINE
  5
10f
100
AcDbEntity
  8
Layer_1
 62
7
100
AcDbSpline
 70
8
 71
3
 72
8
 73
4
 74
0
 40
0
 40
0
 40
0
 40
0
 40
1
 40
1
 40
1
 40
1
 10
89.799651
 20
133.741741
 30
0.0
 10
89.808388
 20
133.750664
 30
0.0
 10
89.813239
 20
133.762760
 30
0.0
 10
89.813123
 20
133.775330
 30
0.0
  0
SPLINE
  5
110
100
AcDbEntity
  8
Layer_1
 62
7
100
AcDbSpline
 70
8
 71
3
 72
8
 73
4
 74
0
 40
0
 40
0
 40
0
 40
0
 40
1
 40
1
 40
1
 40
1
 10
89.813123
 20
133.775330
 30
0.0
 10
89.813108
 20
133.787814
 30
0.0
 10
89.808198
 20
133.799780
 30
0.0
 10
89.799475
 20
133.808595
 30
0.0
  0
SPLINE
  5
111
100
AcDbEntity
  8
Layer_1
 62
7
100
AcDbSpline
 70
8
 71
3
 72
8
 73
4
 74
0
 40
0
 40
0
 40
0
 40
0
 40
1
 40
1
 40
1
 40
1
 10
89.799475
 20
133.808595
 30
0.0
 10
89.790753
 20
133.817410
 30
0.0
 10
89.778931
 20
133.822351
 30
0.0
 10
89.766613
 20
133.822330
 30
0.0
  0
LWPOLYLINE
  5
112
100
AcDbEntity
  8
Layer_1
 62
7
100
AcDbPolyline
 90
4
 70
1
 10
67.468750
 20
212.032738
 30
0.0
 10
97.468750
 20
212.032738
 30
0.0
 10
97.468750
 20
83.532740
 30
0.0
 10
67.468750
 20
83.532740
 30
0.0
  0
SPLINE
  5
113
100
AcDbEntity
  8
Layer_1
 62
7
100
AcDbSpline
 70
8
 71
3
 72
8
 73
4
 74
0
 40
0
 40
0
 40
0
 40
0
 40
1
 40
1
 40
1
 40
1
 10
75.450176
 20
133.833730
 30
0.0
 10
75.433154
 20
133.833848
 30
0.0
 10
75.416794
 20
133.827029
 30
0.0
 10
75.404753
 20
133.814796
 30
0.0
  0
SPLINE
  5
114
100
AcDbEntity
  8
Layer_1
 62
7
100
AcDbSpline
 70
8
 71
3
 72
8
 73
4
 74
0
 40
0
 40
0
 40
0
 40
0
 40
1
 40
1
 40
1
 40
1
 10
75.404753
 20
133.814796
 30
0.0
 10
75.392711
 20
133.802563
 30
0.0
 10
75.385992
 20
133.785936
 30
0.0
 10
75.386096
 20
133.768630
 30
0.0
  0
SPLINE
  5
115
100
AcDbEntity
  8
Layer_1
 62
7
100
AcDbSpline
 70
8
 71
3
 72
8
 73
4
 74
0
 40
0
 40
0
 40
0
 40
0
 40
1
 40
1
 40
1
 40
1
 10
75.386096
 20
133.768630
 30
0.0
 10
75.386123
 20
133.751410
 30
0.0
 10
75.392901
 20
133.734912
 30
0.0
 10
75.404928
 20
133.722788
 30
0.0
  0
SPLINE
  5
116
100
AcDbEntity
  8
Layer_1
 62
7
100
AcDbSpline
 70
8
 71
3
 72
8
 73
4
 74
0
 40
0
 40
0
 40
0
 40
0
 40
1
 40
1
 40
1
 40
1
 10
75.404928
 20
133.722788
 30
0.0
 10
75.416955
 20
133.710663
 30
0.0
 10
75.433239
 20
133.703912
 30
0.0
 10
75.450176
 20
133.704030
 30
0.0
  0
SPLINE
  5
117
100
AcDbEntity
  8
Layer_1
 62
7
100
AcDbSpline
 70
8
 71
3
 72
8
 73
4
 74
0
 40
0
 40
0
 40
0
 40
0
 40
1
 40
1
 40
1
 40
1
 10
75.450176
 20
133.704030
 30
0.0
 10
75.485252
 20
133.704078
 30
0.0
 10
75.513679
 20
133.732969
 30
0.0
 10
75.513736
 20
133.768630
 30
0.0
  0
SPLINE
  5
118
100
AcDbEntity
  8
Layer_1
 62
7
100
AcDbSpline
 70
8
 71
3
 72
8
 73
4
 74
0
 40
0
 40
0
 40
0
 40
0
 40
1
 40
1
 40
1
 40
1
 10
75.513736
 20
133.768630
 30
0.0
 10
75.513839
 20
133.785844
 30
0.0
 10
75.507191
 20
133.802391
 30
0.0
 10
75.495262
 20
133.814608
 30
0.0
  0
SPLINE
  5
119
100
AcDbEntity
  8
Layer_1
 62
7
100
AcDbSpline
 70
8
 71
3
 72
8
 73
4
 74
0
 40
0
 40
0
 40
0
 40
0
 40
1
 40
1
 40
1
 40
1
 10
75.495262
 20
133.814608
 30
0.0
 10
75.483334
 20
133.826826
 30
0.0
 10
75.467108
 20
133.833707
 30
0.0
 10
75.450176
 20
133.833730
 30
0.0
  0
LWPOLYLINE
  5
11a
100
AcDbEntity
  8
Layer_1
 62
7
100
AcDbPolyline
 90
1
 70
1
 10
89.766613
 20
133.822330
 30
0.0
  0
SPLINE
  5
11b
100
AcDbEntity
  8
Layer_1
 62
7
100
AcDbSpline
 70
8
 71
3
 72
8
 73
4
 74
0
 40
0
 40
0
 40
0
 40
0
 40
1
 40
1
 40
1
 40
1
 10
84.977242
 20
134.027520
 30
0.0
 10
84.776980
 20
134.027318
 30
0.0
 10
84.614684
 20
133.864328
 30
0.0
 10
84.614472
 20
133.663200
 30
0.0
  0
SPLINE
  5
11c
100
AcDbEntity
  8
Layer_1
 62
7
100
AcDbSpline
 70
8
 71
3
 72
8
 73
4
 74
0
 40
0
 40
0
 40
0
 40
0
 40
1
 40
1
 40
1
 40
1
 10
84.614472
 20
133.663200
 30
0.0
 10
84.614404
 20
133.461873
 30
0.0
 10
84.776782
 20
133.298573
 30
0.0
 10
84.977242
 20
133.298370
 30
0.0
  0
SPLINE
  5
11d
100
AcDbEntity
  8
Layer_1
 62
7
100
AcDbSpline
 70
8
 71
3
 72
8
 73
4
 74
0
 40
0
 40
0
 40
0
 40
0
 40
1
 40
1
 40
1
 40
1
 10
84.977242
 20
133.298370
 30
0.0
 10
85.073599
 20
133.298330
 30
0.0
 10
85.166021
 20
133.336753
 30
0.0
 10
85.234159
 20
133.405180
 30
0.0
  0
SPLINE
  5
11e
100
AcDbEntity
  8
Layer_1
 62
7
100
AcDbSpline
 70
8
 71
3
 72
8
 73
4
 74
0
 40
0
 40
0
 40
0
 40
0
 40
1
 40
1
 40
1
 40
1
 10
85.234159
 20
133.405180
 30
0.0
 10
85.302296
 20
133.473607
 30
0.0
 10
85.340561
 20
133.566426
 30
0.0
 10
85.340528
 20
133.663200
 30
0.0
  0
SPLINE
  5
11f
100
AcDbEntity
  8
Layer_1
 62
7
100
AcDbSpline
 70
8
 71
3
 72
8
 73
4
 74
0
 40
0
 40
0
 40
0
 40
0
 40
1
 40
1
 40
1
 40
1
 10
85.340528
 20
133.663200
 30
0.0
 10
85.340316
 20
133.864530
 30
0.0
 10
85.177705
 20
134.027604
 30
0.0
 10
84.977242
 20
134.027520
 30
0.0
  0
LWPOLYLINE
  5
120
100
AcDbEntity
  8
Layer_1
 62
7
100
AcDbPolyline
 90
1
 70
1
 10
75.450176
 20
133.833730
 30
0.0
  0
SPLINE
  5
121
100
AcDbEntity
  8
Layer_1
 62
7
100
AcDbSpline
 70
8
 71
3
 72
8
 73
4
 74
0
 40
0
 40
0
 40
0
 40
0
 40
1
 40
1
 40
1
 40
1
 10
80.203889
 20
134.046620
 30
0.0
 10
79.984577
 20
134.046702
 30
0.0
 10
79.806691
 20
133.870438
 30
0.0
 10
79.806498
 20
133.652850
 30
0.0
  0
SPLINE
  5
122
100
AcDbEntity
  8
Layer_1
 62
7
100
AcDbSpline
 70
8
 71
3
 72
8
 73
4
 74
0
 40
0
 40
0
 40
0
 40
0
 40
1
 40
1
 40
1
 40
1
 10
79.806498
 20
133.652850
 30
0.0
 10
79.806452
 20
133.548268
 30
0.0
 10
79.848304
 20
133.447956
 30
0.0
 10
79.922839
 20
133.374003
 30
0.0
  0
SPLINE
  5
123
100
AcDbEntity
  8
Layer_1
 62
7
100
AcDbSpline
 70
8
 71
3
 72
8
 73
4
 74
0
 40
0
 40
0
 40
0
 40
0
 40
1
 40
1
 40
1
 40
1
 10
79.922839
 20
133.374003
 30
0.0
 10
79.997373
 20
133.300050
 30
0.0
 10
80.098478
 20
133.258520
 30
0.0
 10
80.203889
 20
133.258560
 30
0.0
  0
SPLINE
  5
124
100
AcDbEntity
  8
Layer_1
 62
7
100
AcDbSpline
 70
8
 71
3
 72
8
 73
4
 74
0
 40
0
 40
0
 40
0
 40
0
 40
1
 40
1
 40
1
 40
1
 10
80.203889
 20
133.258560
 30
0.0
 10
80.423204
 20
133.258760
 30
0.0
 10
80.600860
 20
133.435259
 30
0.0
 10
80.600764
 20
133.652850
 30
0.0
  0
SPLINE
  5
125
100
AcDbEntity
  8
Layer_1
 62
7
100
AcDbSpline
 70
8
 71
3
 72
8
 73
4
 74
0
 40
0
 40
0
 40
0
 40
0
 40
1
 40
1
 40
1
 40
1
 10
80.600764
 20
133.652850
 30
0.0
 10
80.600571
 20
133.870238
 30
0.0
 10
80.422999
 20
134.046420
 30
0.0
 10
80.203889
 20
134.046620
 30
0.0
  0
LWPOLYLINE
  5
126
100
AcDbEntity
  8
Layer_1
 62
7
100
AcDbPolyline
 90
1
 70
1
 10
84.977242
 20
134.027520
 30
0.0
  0
SPLINE
  5
127
100
AcDbEntity
  8
Layer_1
 62
7
100
AcDbSpline
 70
8
 71
3
 72
8
 73
4
 74
0
 40
0
 40
0
 40
0
 40
0
 40
1
 40
1
 40
1
 40
1
 10
93.992194
 20
135.753490
 30
0.0
 10
93.528058
 20
135.753564
 30
0.0
 10
93.082903
 20
135.569256
 30
0.0
 10
92.754661
 20
135.241111
 30
0.0
  0
SPLINE
  5
128
100
AcDbEntity
  8
Layer_1
 62
7
100
AcDbSpline
 70
8
 71
3
 72
8
 73
4
 74
0
 40
0
 40
0
 40
0
 40
0
 40
1
 40
1
 40
1
 40
1
 10
92.754661
 20
135.241111
 30
0.0
 10
92.426419
 20
134.912966
 30
0.0
 10
92.241978
 20
134.467866
 30
0.0
 10
92.241914
 20
134.003730
 30
0.0
  0
SPLINE
  5
129
100
AcDbEntity
  8
Layer_1
 62
7
100
AcDbSpline
 70
8
 71
3
 72
8
 73
4
 74
0
 40
0
 40
0
 40
0
 40
0
 40
1
 40
1
 40
1
 40
1
 10
92.241914
 20
134.003730
 30
0.0
 10
92.241840
 20
133.539504
 30
0.0
 10
92.426220
 20
133.094270
 30
0.0
 10
92.754477
 20
132.766013
 30
0.0
  0
SPLINE
  5
12a
100
AcDbEntity
  8
Layer_1
 62
7
100
AcDbSpline
 70
8
 71
3
 72
8
 73
4
 74
0
 40
0
 40
0
 40
0
 40
0
 40
1
 40
1
 40
1
 40
1
 10
92.754477
 20
132.766013
 30
0.0
 10
93.082734
 20
132.437756
 30
0.0
 10
93.527968
 20
132.253376
 30
0.0
 10
93.992194
 20
132.253450
 30
0.0
  0
SPLINE
  5
12b
100
AcDbEntity
  8
Layer_1
 62
7
100
AcDbSpline
 70
8
 71
3
 72
8
 73
4
 74
0
 40
0
 40
0
 40
0
 40
0
 40
1
 40
1
 40
1
 40
1
 10
93.992194
 20
132.253450
 30
0.0
 10
94.456331
 20
132.253512
 30
0.0
 10
94.901433
 20
132.437952
 30
0.0
 10
95.229579
 20
132.766195
 30
0.0
  0
SPLINE
  5
12c
100
AcDbEntity
  8
Layer_1
 62
7
100
AcDbSpline
 70
8
 71
3
 72
8
 73
4
 74
0
 40
0
 40
0
 40
0
 40
0
 40
1
 40
1
 40
1
 40
1
 10
95.229579
 20
132.766195
 30
0.0
 10
95.557725
 20
133.094437
 30
0.0
 10
95.742034
 20
133.539593
 30
0.0
 10
95.741960
 20
134.003730
 30
0.0
  0
SPLINE
  5
12d
100
AcDbEntity
  8
Layer_1
 62
7
100
AcDbSpline
 70
8
 71
3
 72
8
 73
4
 74
0
 40
0
 40
0
 40
0
 40
0
 40
1
 40
1
 40
1
 40
1
 10
95.741960
 20
134.003730
 30
0.0
 10
95.741827
 20
134.970043
 30
0.0
 10
94.958507
 20
135.753361
 30
0.0
 10
93.992194
 20
135.753490
 30
0.0
  0
LWPOLYLINE
  5
12e
100
AcDbEntity
  8
Layer_1
 62
7
100
AcDbPolyline
 90
1
 70
1
 10
80.203889
 20
134.046620
 30
0.0
  0
SPLINE
  5
12f
100
AcDbEntity
  8
Layer_1
 62
7
100
AcDbSpline
 70
8
 71
3
 72
8
 73
4
 74
0
 40
0
 40
0
 40
0
 40
0
 40
1
 40
1
 40
1
 40
1
 10
70.992049
 20
135.753490
 30
0.0
 10
70.527913
 20
135.753565
 30
0.0
 10
70.082758
 20
135.569256
 30
0.0
 10
69.754515
 20
135.241111
 30
0.0
  0
SPLINE
  5
130
100
AcDbEntity
  8
Layer_1
 62
7
100
AcDbSpline
 70
8
 71
3
 72
8
 73
4
 74
0
 40
0
 40
0
 40
0
 40
0
 40
1
 40
1
 40
1
 40
1
 10
69.754515
 20
135.241111
 30
0.0
 10
69.426273
 20
134.912966
 30
0.0
 10
69.241832
 20
134.467866
 30
0.0
 10
69.241768
 20
134.003730
 30
0.0
  0
SPLINE
  5
131
100
AcDbEntity
  8
Layer_1
 62
7
100
AcDbSpline
 70
8
 71
3
 72
8
 73
4
 74
0
 40
0
 40
0
 40
0
 40
0
 40
1
 40
1
 40
1
 40
1
 10
69.241768
 20
134.003730
 30
0.0
 10
69.241694
 20
133.539504
 30
0.0
 10
69.426074
 20
133.094270
 30
0.0
 10
69.754331
 20
132.766013
 30
0.0
  0
SPLINE
  5
132
100
AcDbEntity
  8
Layer_1
 62
7
100
AcDbSpline
 70
8
 71
3
 72
8
 73
4
 74
0
 40
0
 40
0
 40
0
 40
0
 40
1
 40
1
 40
1
 40
1
 10
69.754331
 20
132.766013
 30
0.0
 10
70.082589
 20
132.437755
 30
0.0
 10
70.527823
 20
132.253375
 30
0.0
 10
70.992049
 20
132.253450
 30
0.0
  0
SPLINE
  5
133
100
AcDbEntity
  8
Layer_1
 62
7
100
AcDbSpline
 70
8
 71
3
 72
8
 73
4
 74
0
 40
0
 40
0
 40
0
 40
0
 40
1
 40
1
 40
1
 40
1
 10
70.992049
 20
132.253450
 30
0.0
 10
71.456185
 20
132.253513
 30
0.0
 10
71.901287
 20
132.437953
 30
0.0
 10
72.229432
 20
132.766196
 30
0.0
  0
SPLINE
  5
134
100
AcDbEntity
  8
Layer_1
 62
7
100
AcDbSpline
 70
8
 71
3
 72
8
 73
4
 74
0
 40
0
 40
0
 40
0
 40
0
 40
1
 40
1
 40
1
 40
1
 10
72.229432
 20
132.766196
 30
0.0
 10
72.557578
 20
133.094438
 30
0.0
 10
72.741887
 20
133.539594
 30
0.0
 10
72.741813
 20
134.003730
 30
0.0
  0
SPLINE
  5
135
100
AcDbEntity
  8
Layer_1
 62
7
100
AcDbSpline
 70
8
 71
3
 72
8
 73
4
 74
0
 40
0
 40
0
 40
0
 40
0
 40
1
 40
1
 40
1
 40
1
 10
72.741813
 20
134.003730
 30
0.0
 10
72.741680
 20
134.970042
 30
0.0
 10
71.958361
 20
135.753360
 30
0.0
 10
70.992049
 20
135.753490
 30
0.0
  0
LWPOLYLINE
  5
136
100
AcDbEntity
  8
Layer_1
 62
7
100
AcDbPolyline
 90
1
 70
1
 10
93.992194
 20
135.753490
 30
0.0
  0
SPLINE
  5
137
100
AcDbEntity
  8
Layer_1
 62
7
100
AcDbSpline
 70
8
 71
3
 72
8
 73
4
 74
0
 40
0
 40
0
 40
0
 40
0
 40
1
 40
1
 40
1
 40
1
 10
94.534280
 20
138.597770
 30
0.0
 10
94.506080
 20
138.595789
 30
0.0
 10
94.484217
 20
138.572800
 30
0.0
 10
94.484160
 20
138.545070
 30
0.0
  0
SPLINE
  5
138
100
AcDbEntity
  8
Layer_1
 62
7
100
AcDbSpline
 70
8
 71
3
 72
8
 73
4
 74
0
 40
0
 40
0
 40
0
 40
0
 40
1
 40
1
 40
1
 40
1
 10
94.484160
 20
138.545070
 30
0.0
 10
94.484089
 20
138.530936
 30
0.0
 10
94.489784
 20
138.517361
 30
0.0
 10
94.499976
 20
138.507368
 30
0.0
  0
SPLINE
  5
139
100
AcDbEntity
  8
Layer_1
 62
7
100
AcDbSpline
 70
8
 71
3
 72
8
 73
4
 74
0
 40
0
 40
0
 40
0
 40
0
 40
1
 40
1
 40
1
 40
1
 10
94.499976
 20
138.507368
 30
0.0
 10
94.510167
 20
138.497376
 30
0.0
 10
94.524010
 20
138.491795
 30
0.0
 10
94.538420
 20
138.491870
 30
0.0
  0
SPLINE
  5
13a
100
AcDbEntity
  8
Layer_1
 62
7
100
AcDbSpline
 70
8
 71
3
 72
8
 73
4
 74
0
 40
0
 40
0
 40
0
 40
0
 40
1
 40
1
 40
1
 40
1
 10
94.538420
 20
138.491870
 30
0.0
 10
94.552740
 20
138.491931
 30
0.0
 10
94.566449
 20
138.497572
 30
0.0
 10
94.576528
 20
138.507549
 30
0.0
  0
SPLINE
  5
13b
100
AcDbEntity
  8
Layer_1
 62
7
100
AcDbSpline
 70
8
 71
3
 72
8
 73
4
 74
0
 40
0
 40
0
 40
0
 40
0
 40
1
 40
1
 40
1
 40
1
 10
94.576528
 20
138.507549
 30
0.0
 10
94.586607
 20
138.517527
 30
0.0
 10
94.592230
 20
138.531024
 30
0.0
 10
94.592160
 20
138.545070
 30
0.0
  0
SPLINE
  5
13c
100
AcDbEntity
  8
Layer_1
 62
7
100
AcDbSpline
 70
8
 71
3
 72
8
 73
4
 74
0
 40
0
 40
0
 40
0
 40
0
 40
1
 40
1
 40
1
 40
1
 10
94.592160
 20
138.545070
 30
0.0
 10
94.592025
 20
138.574124
 30
0.0
 10
94.568042
 20
138.597643
 30
0.0
 10
94.538420
 20
138.597770
 30
0.0
  0
SPLINE
  5
13d
100
AcDbEntity
  8
Layer_1
 62
7
100
AcDbSpline
 70
8
 71
3
 72
8
 73
4
 74
0
 40
0
 40
0
 40
0
 40
0
 40
1
 40
1
 40
1
 40
1
 10
94.538420
 20
138.597770
 30
0.0
 10
94.537054
 20
138.597821
 30
0.0
 10
94.535686
 20
138.597821
 30
0.0
 10
94.534320
 20
138.597770
 30
0.0
  0
LWPOLYLINE
  5
13e
100
AcDbEntity
  8
Layer_1
 62
7
100
AcDbPolyline
 90
1
 70
1
 10
70.992049
 20
135.753490
 30
0.0
  0
SPLINE
  5
13f
100
AcDbEntity
  8
Layer_1
 62
7
100
AcDbSpline
 70
8
 71
3
 72
8
 73
4
 74
0
 40
0
 40
0
 40
0
 40
0
 40
1
 40
1
 40
1
 40
1
 10
70.671138
 20
138.616870
 30
0.0
 10
70.628577
 20
138.613710
 30
0.0
 10
70.595653
 20
138.577839
 30
0.0
 10
70.595688
 20
138.534670
 30
0.0
  0
SPLINE
  5
140
100
AcDbEntity
  8
Layer_1
 62
7
100
AcDbSpline
 70
8
 71
3
 72
8
 73
4
 74
0
 40
0
 40
0
 40
0
 40
0
 40
1
 40
1
 40
1
 40
1
 10
70.595688
 20
138.534670
 30
0.0
 10
70.595597
 20
138.512818
 30
0.0
 10
70.604095
 20
138.491824
 30
0.0
 10
70.619312
 20
138.476313
 30
0.0
  0
SPLINE
  5
141
100
AcDbEntity
  8
Layer_1
 62
7
100
AcDbSpline
 70
8
 71
3
 72
8
 73
4
 74
0
 40
0
 40
0
 40
0
 40
0
 40
1
 40
1
 40
1
 40
1
 10
70.619312
 20
138.476313
 30
0.0
 10
70.634529
 20
138.460802
 30
0.0
 10
70.655216
 20
138.452045
 30
0.0
 10
70.676818
 20
138.451970
 30
0.0
  0
SPLINE
  5
142
100
AcDbEntity
  8
Layer_1
 62
7
100
AcDbSpline
 70
8
 71
3
 72
8
 73
4
 74
0
 40
0
 40
0
 40
0
 40
0
 40
1
 40
1
 40
1
 40
1
 10
70.676818
 20
138.451970
 30
0.0
 10
70.698510
 20
138.451905
 30
0.0
 10
70.719331
 20
138.460601
 30
0.0
 10
70.734661
 20
138.476127
 30
0.0
  0
SPLINE
  5
143
100
AcDbEntity
  8
Layer_1
 62
7
100
AcDbSpline
 70
8
 71
3
 72
8
 73
4
 74
0
 40
0
 40
0
 40
0
 40
0
 40
1
 40
1
 40
1
 40
1
 10
70.734661
 20
138.476127
 30
0.0
 10
70.749990
 20
138.491653
 30
0.0
 10
70.758560
 20
138.512726
 30
0.0
 10
70.758468
 20
138.534670
 30
0.0
  0
SPLINE
  5
144
100
AcDbEntity
  8
Layer_1
 62
7
100
AcDbSpline
 70
8
 71
3
 72
8
 73
4
 74
0
 40
0
 40
0
 40
0
 40
0
 40
1
 40
1
 40
1
 40
1
 10
70.758468
 20
138.534670
 30
0.0
 10
70.758428
 20
138.556527
 30
0.0
 10
70.749800
 20
138.577471
 30
0.0
 10
70.734485
 20
138.592889
 30
0.0
  0
SPLINE
  5
145
100
AcDbEntity
  8
Layer_1
 62
7
100
AcDbSpline
 70
8
 71
3
 72
8
 73
4
 74
0
 40
0
 40
0
 40
0
 40
0
 40
1
 40
1
 40
1
 40
1
 10
70.734485
 20
138.592889
 30
0.0
 10
70.719170
 20
138.608308
 30
0.0
 10
70.698425
 20
138.616935
 30
0.0
 10
70.676818
 20
138.616870
 30
0.0
  0
SPLINE
  5
146
100
AcDbEntity
  8
Layer_1
 62
7
100
AcDbSpline
 70
8
 71
3
 72
8
 73
4
 74
0
 40
0
 40
0
 40
0
 40
0
 40
1
 40
1
 40
1
 40
1
 10
70.676818
 20
138.616870
 30
0.0
 10
70.674919
 20
138.616937
 30
0.0
 10
70.673017
 20
138.616937
 30
0.0
 10
70.671118
 20
138.616870
 30
0.0
  0
LWPOLYLINE
  5
147
100
AcDbEntity
  8
Layer_1
 62
7
100
AcDbPolyline
 90
1
 70
1
 10
94.534320
 20
138.597770
 30
0.0
  0
SPLINE
  5
148
100
AcDbEntity
  8
Layer_1
 62
7
100
AcDbSpline
 70
8
 71
3
 72
8
 73
4
 74
0
 40
0
 40
0
 40
0
 40
0
 40
1
 40
1
 40
1
 40
1
 10
89.708735
 20
139.279370
 30
0.0
 10
89.415994
 20
139.279389
 30
0.0
 10
89.135237
 20
139.162885
 30
0.0
 10
88.928231
 20
138.955491
 30
0.0
  0
SPLINE
  5
149
100
AcDbEntity
  8
Layer_1
 62
7
100
AcDbSpline
 70
8
 71
3
 72
8
 73
4
 74
0
 40
0
 40
0
 40
0
 40
0
 40
1
 40
1
 40
1
 40
1
 10
88.928231
 20
138.955491
 30
0.0
 10
88.721225
 20
138.748096
 30
0.0
 10
88.604929
 20
138.466800
 30
0.0
 10
88.604928
 20
138.173490
 30
0.0
  0
SPLINE
  5
14a
100
AcDbEntity
  8
Layer_1
 62
7
100
AcDbSpline
 70
8
 71
3
 72
8
 73
4
 74
0
 40
0
 40
0
 40
0
 40
0
 40
1
 40
1
 40
1
 40
1
 10
88.604928
 20
138.173490
 30
0.0
 10
88.604931
 20
137.880182
 30
0.0
 10
88.721229
 20
137.598888
 30
0.0
 10
88.928234
 20
137.391496
 30
0.0
  0
SPLINE
  5
14b
100
AcDbEntity
  8
Layer_1
 62
7
100
AcDbSpline
 70
8
 71
3
 72
8
 73
4
 74
0
 40
0
 40
0
 40
0
 40
0
 40
1
 40
1
 40
1
 40
1
 10
88.928234
 20
137.391496
 30
0.0
 10
89.135240
 20
137.184103
 30
0.0
 10
89.415996
 20
137.067601
 30
0.0
 10
89.708735
 20
137.067620
 30
0.0
  0
SPLINE
  5
14c
100
AcDbEntity
  8
Layer_1
 62
7
100
AcDbSpline
 70
8
 71
3
 72
8
 73
4
 74
0
 40
0
 40
0
 40
0
 40
0
 40
1
 40
1
 40
1
 40
1
 10
89.708735
 20
137.067620
 30
0.0
 10
90.001475
 20
137.067600
 30
0.0
 10
90.282231
 20
137.184102
 30
0.0
 10
90.489238
 20
137.391495
 30
0.0
  0
SPLINE
  5
14d
100
AcDbEntity
  8
Layer_1
 62
7
100
AcDbSpline
 70
8
 71
3
 72
8
 73
4
 74
0
 40
0
 40
0
 40
0
 40
0
 40
1
 40
1
 40
1
 40
1
 10
90.489238
 20
137.391495
 30
0.0
 10
90.696244
 20
137.598887
 30
0.0
 10
90.812542
 20
137.880181
 30
0.0
 10
90.812545
 20
138.173490
 30
0.0
  0
SPLINE
  5
14e
100
AcDbEntity
  8
Layer_1
 62
7
100
AcDbSpline
 70
8
 71
3
 72
8
 73
4
 74
0
 40
0
 40
0
 40
0
 40
0
 40
1
 40
1
 40
1
 40
1
 10
90.812545
 20
138.173490
 30
0.0
 10
90.812544
 20
138.466801
 30
0.0
 10
90.696248
 20
138.748097
 30
0.0
 10
90.489241
 20
138.955492
 30
0.0
  0
SPLINE
  5
14f
100
AcDbEntity
  8
Layer_1
 62
7
100
AcDbSpline
 70
8
 71
3
 72
8
 73
4
 74
0
 40
0
 40
0
 40
0
 40
0
 40
1
 40
1
 40
1
 40
1
 10
90.489241
 20
138.955492
 30
0.0
 10
90.282235
 20
139.162886
 30
0.0
 10
90.001476
 20
139.279390
 30
0.0
 10
89.708735
 20
139.279370
 30
0.0
  0
LWPOLYLINE
  5
150
100
AcDbEntity
  8
Layer_1
 62
7
100
AcDbPolyline
 90
1
 70
1
 10
70.671118
 20
138.616870
 30
0.0
  0
SPLINE
  5
151
100
AcDbEntity
  8
Layer_1
 62
7
100
AcDbSpline
 70
8
 71
3
 72
8
 73
4
 74
0
 40
0
 40
0
 40
0
 40
0
 40
1
 40
1
 40
1
 40
1
 10
75.388163
 20
139.359470
 30
0.0
 10
75.071583
 20
139.359505
 30
0.0
 10
74.767957
 20
139.229997
 30
0.0
 10
74.544087
 20
138.999438
 30
0.0
  0
SPLINE
  5
152
100
AcDbEntity
  8
Layer_1
 62
7
100
AcDbSpline
 70
8
 71
3
 72
8
 73
4
 74
0
 40
0
 40
0
 40
0
 40
0
 40
1
 40
1
 40
1
 40
1
 10
74.544087
 20
138.999438
 30
0.0
 10
74.320216
 20
138.768880
 30
0.0
 10
74.194443
 20
138.456159
 30
0.0
 10
74.194437
 20
138.130080
 30
0.0
  0
SPLINE
  5
153
100
AcDbEntity
  8
Layer_1
 62
7
100
AcDbSpline
 70
8
 71
3
 72
8
 73
4
 74
0
 40
0
 40
0
 40
0
 40
0
 40
1
 40
1
 40
1
 40
1
 10
74.194437
 20
138.130080
 30
0.0
 10
74.194445
 20
137.804002
 30
0.0
 10
74.320220
 20
137.491285
 30
0.0
 10
74.544090
 20
137.260728
 30
0.0
  0
SPLINE
  5
154
100
AcDbEntity
  8
Layer_1
 62
7
100
AcDbSpline
 70
8
 71
3
 72
8
 73
4
 74
0
 40
0
 40
0
 40
0
 40
0
 40
1
 40
1
 40
1
 40
1
 10
74.544090
 20
137.260728
 30
0.0
 10
74.767960
 20
137.030172
 30
0.0
 10
75.071584
 20
136.900665
 30
0.0
 10
75.388163
 20
136.900700
 30
0.0
  0
SPLINE
  5
155
100
AcDbEntity
  8
Layer_1
 62
7
100
AcDbSpline
 70
8
 71
3
 72
8
 73
4
 74
0
 40
0
 40
0
 40
0
 40
0
 40
1
 40
1
 40
1
 40
1
 10
75.388163
 20
136.900700
 30
0.0
 10
75.704742
 20
136.900665
 30
0.0
 10
76.008366
 20
137.030172
 30
0.0
 10
76.232236
 20
137.260728
 30
0.0
  0
SPLINE
  5
156
100
AcDbEntity
  8
Layer_1
 62
7
100
AcDbSpline
 70
8
 71
3
 72
8
 73
4
 74
0
 40
0
 40
0
 40
0
 40
0
 40
1
 40
1
 40
1
 40
1
 10
76.232236
 20
137.260728
 30
0.0
 10
76.456106
 20
137.491285
 30
0.0
 10
76.581881
 20
137.804002
 30
0.0
 10
76.581889
 20
138.130080
 30
0.0
  0
SPLINE
  5
157
100
AcDbEntity
  8
Layer_1
 62
7
100
AcDbSpline
 70
8
 71
3
 72
8
 73
4
 74
0
 40
0
 40
0
 40
0
 40
0
 40
1
 40
1
 40
1
 40
1
 10
76.581889
 20
138.130080
 30
0.0
 10
76.581883
 20
138.456159
 30
0.0
 10
76.456110
 20
138.768880
 30
0.0
 10
76.232239
 20
138.999438
 30
0.0
  0
SPLINE
  5
158
100
AcDbEntity
  8
Layer_1
 62
7
100
AcDbSpline
 70
8
 71
3
 72
8
 73
4
 74
0
 40
0
 40
0
 40
0
 40
0
 40
1
 40
1
 40
1
 40
1
 10
76.232239
 20
138.999438
 30
0.0
 10
76.008369
 20
139.229997
 30
0.0
 10
75.704743
 20
139.359505
 30
0.0
 10
75.388163
 20
139.359470
 30
0.0
  0
LWPOLYLINE
  5
159
100
AcDbEntity
  8
Layer_1
 62
7
100
AcDbPolyline
 90
1
 70
1
 10
89.708735
 20
139.279370
 30
0.0
  0
SPLINE
  5
15a
100
AcDbEntity
  8
Layer_1
 62
7
100
AcDbSpline
 70
8
 71
3
 72
8
 73
4
 74
0
 40
0
 40
0
 40
0
 40
0
 40
1
 40
1
 40
1
 40
1
 10
84.913163
 20
139.534650
 30
0.0
 10
84.504973
 20
139.534619
 30
0.0
 10
84.113515
 20
139.376546
 30
0.0
 10
83.824909
 20
139.095209
 30
0.0
  0
SPLINE
  5
15b
100
AcDbEntity
  8
Layer_1
 62
7
100
AcDbSpline
 70
8
 71
3
 72
8
 73
4
 74
0
 40
0
 40
0
 40
0
 40
0
 40
1
 40
1
 40
1
 40
1
 10
83.824909
 20
139.095209
 30
0.0
 10
83.536303
 20
138.813871
 30
0.0
 10
83.374191
 20
138.432314
 30
0.0
 10
83.374237
 20
138.034480
 30
0.0
  0
SPLINE
  5
15c
100
AcDbEntity
  8
Layer_1
 62
7
100
AcDbSpline
 70
8
 71
3
 72
8
 73
4
 74
0
 40
0
 40
0
 40
0
 40
0
 40
1
 40
1
 40
1
 40
1
 10
83.374237
 20
138.034480
 30
0.0
 10
83.374191
 20
137.636646
 30
0.0
 10
83.536303
 20
137.255089
 30
0.0
 10
83.824909
 20
136.973751
 30
0.0
  0
SPLINE
  5
15d
100
AcDbEntity
  8
Layer_1
 62
7
100
AcDbSpline
 70
8
 71
3
 72
8
 73
4
 74
0
 40
0
 40
0
 40
0
 40
0
 40
1
 40
1
 40
1
 40
1
 10
83.824909
 20
136.973751
 30
0.0
 10
84.113515
 20
136.692414
 30
0.0
 10
84.504973
 20
136.534341
 30
0.0
 10
84.913163
 20
136.534310
 30
0.0
  0
SPLINE
  5
15e
100
AcDbEntity
  8
Layer_1
 62
7
100
AcDbSpline
 70
8
 71
3
 72
8
 73
4
 74
0
 40
0
 40
0
 40
0
 40
0
 40
1
 40
1
 40
1
 40
1
 10
84.913163
 20
136.534310
 30
0.0
 10
85.321353
 20
136.534341
 30
0.0
 10
85.712810
 20
136.692414
 30
0.0
 10
86.001416
 20
136.973752
 30
0.0
  0
SPLINE
  5
15f
100
AcDbEntity
  8
Layer_1
 62
7
100
AcDbSpline
 70
8
 71
3
 72
8
 73
4
 74
0
 40
0
 40
0
 40
0
 40
0
 40
1
 40
1
 40
1
 40
1
 10
86.001416
 20
136.973752
 30
0.0
 10
86.290022
 20
137.255090
 30
0.0
 10
86.452134
 20
137.636646
 30
0.0
 10
86.452088
 20
138.034480
 30
0.0
  0
SPLINE
  5
160
100
AcDbEntity
  8
Layer_1
 62
7
100
AcDbSpline
 70
8
 71
3
 72
8
 73
4
 74
0
 40
0
 40
0
 40
0
 40
0
 40
1
 40
1
 40
1
 40
1
 10
86.452088
 20
138.034480
 30
0.0
 10
86.452134
 20
138.432314
 30
0.0
 10
86.290022
 20
138.813870
 30
0.0
 10
86.001416
 20
139.095208
 30
0.0
  0
SPLINE
  5
161
100
AcDbEntity
  8
Layer_1
 62
7
100
AcDbSpline
 70
8
 71
3
 72
8
 73
4
 74
0
 40
0
 40
0
 40
0
 40
0
 40
1
 40
1
 40
1
 40
1
 10
86.001416
 20
139.095208
 30
0.0
 10
85.712810
 20
139.376546
 30
0.0
 10
85.321353
 20
139.534619
 30
0.0
 10
84.913163
 20
139.534650
 30
0.0
  0
LWPOLYLINE
  5
162
100
AcDbEntity
  8
Layer_1
 62
7
100
AcDbPolyline
 90
1
 70
1
 10
75.388163
 20
139.359470
 30
0.0
  0
SPLINE
  5
163
100
AcDbEntity
  8
Layer_1
 62
7
100
AcDbSpline
 70
8
 71
3
 72
8
 73
4
 74
0
 40
0
 40
0
 40
0
 40
0
 40
1
 40
1
 40
1
 40
1
 10
80.141879
 20
139.534650
 30
0.0
 10
79.736593
 20
139.534688
 30
0.0
 10
79.347895
 20
139.376647
 30
0.0
 10
79.061317
 20
139.095301
 30
0.0
  0
SPLINE
  5
164
100
AcDbEntity
  8
Layer_1
 62
7
100
AcDbSpline
 70
8
 71
3
 72
8
 73
4
 74
0
 40
0
 40
0
 40
0
 40
0
 40
1
 40
1
 40
1
 40
1
 10
79.061317
 20
139.095301
 30
0.0
 10
78.774738
 20
138.813956
 30
0.0
 10
78.613761
 20
138.432359
 30
0.0
 10
78.613807
 20
138.034480
 30
0.0
  0
SPLINE
  5
165
100
AcDbEntity
  8
Layer_1
 62
7
100
AcDbSpline
 70
8
 71
3
 72
8
 73
4
 74
0
 40
0
 40
0
 40
0
 40
0
 40
1
 40
1
 40
1
 40
1
 10
78.613807
 20
138.034480
 30
0.0
 10
78.613761
 20
137.636601
 30
0.0
 10
78.774738
 20
137.255004
 30
0.0
 10
79.061317
 20
136.973659
 30
0.0
  0
SPLINE
  5
166
100
AcDbEntity
  8
Layer_1
 62
7
100
AcDbSpline
 70
8
 71
3
 72
8
 73
4
 74
0
 40
0
 40
0
 40
0
 40
0
 40
1
 40
1
 40
1
 40
1
 10
79.061317
 20
136.973659
 30
0.0
 10
79.347895
 20
136.692313
 30
0.0
 10
79.736593
 20
136.534272
 30
0.0
 10
80.141879
 20
136.534310
 30
0.0
  0
SPLINE
  5
167
100
AcDbEntity
  8
Layer_1
 62
7
100
AcDbSpline
 70
8
 71
3
 72
8
 73
4
 74
0
 40
0
 40
0
 40
0
 40
0
 40
1
 40
1
 40
1
 40
1
 10
80.141879
 20
136.534310
 30
0.0
 10
80.985652
 20
136.534511
 30
0.0
 10
81.669530
 20
137.206128
 30
0.0
 10
81.669434
 20
138.034480
 30
0.0
  0
SPLINE
  5
168
100
AcDbEntity
  8
Layer_1
 62
7
100
AcDbSpline
 70
8
 71
3
 72
8
 73
4
 74
0
 40
0
 40
0
 40
0
 40
0
 40
1
 40
1
 40
1
 40
1
 10
81.669434
 20
138.034480
 30
0.0
 10
81.669530
 20
138.862832
 30
0.0
 10
80.985652
 20
139.534449
 30
0.0
 10
80.141879
 20
139.534650
 30
0.0
  0
LWPOLYLINE
  5
169
100
AcDbEntity
  8
Layer_1
 62
7
100
AcDbPolyline
 90
1
 70
1
 10
84.913163
 20
139.534650
 30
0.0
  0
SPLINE
  5
16a
100
AcDbEntity
  8
Layer_1
 62
7
100
AcDbSpline
 70
8
 71
3
 72
8
 73
4
 74
0
 40
0
 40
0
 40
0
 40
0
 40
1
 40
1
 40
1
 40
1
 10
94.517228
 20
143.613470
 30
0.0
 10
94.400182
 20
143.613474
 30
0.0
 10
94.287928
 20
143.568231
 30
0.0
 10
94.205164
 20
143.487697
 30
0.0
  0
SPLINE
  5
16b
100
AcDbEntity
  8
Layer_1
 62
7
100
AcDbSpline
 70
8
 71
3
 72
8
 73
4
 74
0
 40
0
 40
0
 40
0
 40
0
 40
1
 40
1
 40
1
 40
1
 10
94.205164
 20
143.487697
 30
0.0
 10
94.122400
 20
143.407162
 30
0.0
 10
94.075906
 20
143.297933
 30
0.0
 10
94.075911
 20
143.184040
 30
0.0
  0
SPLINE
  5
16c
100
AcDbEntity
  8
Layer_1
 62
7
100
AcDbSpline
 70
8
 71
3
 72
8
 73
4
 74
0
 40
0
 40
0
 40
0
 40
0
 40
1
 40
1
 40
1
 40
1
 10
94.075911
 20
143.184040
 30
0.0
 10
94.075906
 20
143.070147
 30
0.0
 10
94.122400
 20
142.960918
 30
0.0
 10
94.205164
 20
142.880383
 30
0.0
  0
SPLINE
  5
16d
100
AcDbEntity
  8
Layer_1
 62
7
100
AcDbSpline
 70
8
 71
3
 72
8
 73
4
 74
0
 40
0
 40
0
 40
0
 40
0
 40
1
 40
1
 40
1
 40
1
 10
94.205164
 20
142.880383
 30
0.0
 10
94.287928
 20
142.799849
 30
0.0
 10
94.400182
 20
142.754606
 30
0.0
 10
94.517228
 20
142.754610
 30
0.0
  0
SPLINE
  5
16e
100
AcDbEntity
  8
Layer_1
 62
7
100
AcDbSpline
 70
8
 71
3
 72
8
 73
4
 74
0
 40
0
 40
0
 40
0
 40
0
 40
1
 40
1
 40
1
 40
1
 10
94.517228
 20
142.754610
 30
0.0
 10
94.634274
 20
142.754606
 30
0.0
 10
94.746528
 20
142.799849
 30
0.0
 10
94.829292
 20
142.880383
 30
0.0
  0
SPLINE
  5
16f
100
AcDbEntity
  8
Layer_1
 62
7
100
AcDbSpline
 70
8
 71
3
 72
8
 73
4
 74
0
 40
0
 40
0
 40
0
 40
0
 40
1
 40
1
 40
1
 40
1
 10
94.829292
 20
142.880383
 30
0.0
 10
94.912056
 20
142.960918
 30
0.0
 10
94.958550
 20
143.070147
 30
0.0
 10
94.958545
 20
143.184040
 30
0.0
  0
SPLINE
  5
170
100
AcDbEntity
  8
Layer_1
 62
7
100
AcDbSpline
 70
8
 71
3
 72
8
 73
4
 74
0
 40
0
 40
0
 40
0
 40
0
 40
1
 40
1
 40
1
 40
1
 10
94.958545
 20
143.184040
 30
0.0
 10
94.958550
 20
143.297933
 30
0.0
 10
94.912056
 20
143.407162
 30
0.0
 10
94.829292
 20
143.487697
 30
0.0
  0
SPLINE
  5
171
100
AcDbEntity
  8
Layer_1
 62
7
100
AcDbSpline
 70
8
 71
3
 72
8
 73
4
 74
0
 40
0
 40
0
 40
0
 40
0
 40
1
 40
1
 40
1
 40
1
 10
94.829292
 20
143.487697
 30
0.0
 10
94.746528
 20
143.568231
 30
0.0
 10
94.634274
 20
143.613474
 30
0.0
 10
94.517228
 20
143.613470
 30
0.0
  0
LWPOLYLINE
  5
172
100
AcDbEntity
  8
Layer_1
 62
7
100
AcDbPolyline
 90
1
 70
1
 10
80.141879
 20
139.534650
 30
0.0
  0
SPLINE
  5
173
100
AcDbEntity
  8
Layer_1
 62
7
100
AcDbSpline
 70
8
 71
3
 72
8
 73
4
 74
0
 40
0
 40
0
 40
0
 40
0
 40
1
 40
1
 40
1
 40
1
 10
70.654085
 20
143.666670
 30
0.0
 10
70.377288
 20
143.666596
 30
0.0
 10
70.152913
 20
143.437593
 30
0.0
 10
70.152824
 20
143.155070
 30
0.0
  0
SPLINE
  5
174
100
AcDbEntity
  8
Layer_1
 62
7
100
AcDbSpline
 70
8
 71
3
 72
8
 73
4
 74
0
 40
0
 40
0
 40
0
 40
0
 40
1
 40
1
 40
1
 40
1
 10
70.152824
 20
143.155070
 30
0.0
 10
70.152913
 20
142.872547
 30
0.0
 10
70.377288
 20
142.643544
 30
0.0
 10
70.654085
 20
142.643470
 30
0.0
  0
SPLINE
  5
175
100
AcDbEntity
  8
Layer_1
 62
7
100
AcDbSpline
 70
8
 71
3
 72
8
 73
4
 74
0
 40
0
 40
0
 40
0
 40
0
 40
1
 40
1
 40
1
 40
1
 10
70.654085
 20
142.643470
 30
0.0
 10
70.930882
 20
142.643544
 30
0.0
 10
71.155257
 20
142.872547
 30
0.0
 10
71.155346
 20
143.155070
 30
0.0
  0
SPLINE
  5
176
100
AcDbEntity
  8
Layer_1
 62
7
100
AcDbSpline
 70
8
 71
3
 72
8
 73
4
 74
0
 40
0
 40
0
 40
0
 40
0
 40
1
 40
1
 40
1
 40
1
 10
71.155346
 20
143.155070
 30
0.0
 10
71.155257
 20
143.437593
 30
0.0
 10
70.930882
 20
143.666596
 30
0.0
 10
70.654085
 20
143.666670
 30
0.0
  0
LWPOLYLINE
  5
177
100
AcDbEntity
  8
Layer_1
 62
7
100
AcDbPolyline
 90
1
 70
1
 10
94.517228
 20
143.613470
 30
0.0
  0
SPLINE
  5
178
100
AcDbEntity
  8
Layer_1
 62
7
100
AcDbSpline
 70
8
 71
3
 72
8
 73
4
 74
0
 40
0
 40
0
 40
0
 40
0
 40
1
 40
1
 40
1
 40
1
 10
89.685481
 20
144.306420
 30
0.0
 10
89.280051
 20
144.306438
 30
0.0
 10
88.891222
 20
144.148387
 30
0.0
 10
88.604549
 20
143.867044
 30
0.0
  0
SPLINE
  5
179
100
AcDbEntity
  8
Layer_1
 62
7
100
AcDbSpline
 70
8
 71
3
 72
8
 73
4
 74
0
 40
0
 40
0
 40
0
 40
0
 40
1
 40
1
 40
1
 40
1
 10
88.604549
 20
143.867044
 30
0.0
 10
88.317876
 20
143.585701
 30
0.0
 10
88.156847
 20
143.204116
 30
0.0
 10
88.156893
 20
142.806250
 30
0.0
  0
SPLINE
  5
17a
100
AcDbEntity
  8
Layer_1
 62
7
100
AcDbSpline
 70
8
 71
3
 72
8
 73
4
 74
0
 40
0
 40
0
 40
0
 40
0
 40
1
 40
1
 40
1
 40
1
 10
88.156893
 20
142.806250
 30
0.0
 10
88.157090
 20
141.977933
 30
0.0
 10
88.841416
 20
141.306563
 30
0.0
 10
89.685481
 20
141.306600
 30
0.0
  0
SPLINE
  5
17b
100
AcDbEntity
  8
Layer_1
 62
7
100
AcDbSpline
 70
8
 71
3
 72
8
 73
4
 74
0
 40
0
 40
0
 40
0
 40
0
 40
1
 40
1
 40
1
 40
1
 10
89.685481
 20
141.306600
 30
0.0
 10
90.529546
 20
141.306563
 30
0.0
 10
91.213872
 20
141.977933
 30
0.0
 10
91.214069
 20
142.806250
 30
0.0
  0
SPLINE
  5
17c
100
AcDbEntity
  8
Layer_1
 62
7
100
AcDbSpline
 70
8
 71
3
 72
8
 73
4
 74
0
 40
0
 40
0
 40
0
 40
0
 40
1
 40
1
 40
1
 40
1
 10
91.214069
 20
142.806250
 30
0.0
 10
91.214115
 20
143.204116
 30
0.0
 10
91.053086
 20
143.585701
 30
0.0
 10
90.766413
 20
143.867044
 30
0.0
  0
SPLINE
  5
17d
100
AcDbEntity
  8
Layer_1
 62
7
100
AcDbSpline
 70
8
 71
3
 72
8
 73
4
 74
0
 40
0
 40
0
 40
0
 40
0
 40
1
 40
1
 40
1
 40
1
 10
90.766413
 20
143.867044
 30
0.0
 10
90.479740
 20
144.148387
 30
0.0
 10
90.090911
 20
144.306438
 30
0.0
 10
89.685481
 20
144.306420
 30
0.0
  0
LWPOLYLINE
  5
17e
100
AcDbEntity
  8
Layer_1
 62
7
100
AcDbPolyline
 90
1
 70
1
 10
70.654085
 20
143.666670
 30
0.0
  0
SPLINE
  5
17f
100
AcDbEntity
  8
Layer_1
 62
7
100
AcDbSpline
 70
8
 71
3
 72
8
 73
4
 74
0
 40
0
 40
0
 40
0
 40
0
 40
1
 40
1
 40
1
 40
1
 10
84.916779
 20
144.306420
 30
0.0
 10
84.105543
 20
144.306205
 30
0.0
 10
83.448044
 20
143.634591
 30
0.0
 10
83.448136
 20
142.806250
 30
0.0
  0
SPLINE
  5
180
100
AcDbEntity
  8
Layer_1
 62
7
100
AcDbSpline
 70
8
 71
3
 72
8
 73
4
 74
0
 40
0
 40
0
 40
0
 40
0
 40
1
 40
1
 40
1
 40
1
 10
83.448136
 20
142.806250
 30
0.0
 10
83.448325
 20
141.978112
 30
0.0
 10
84.105742
 20
141.306815
 30
0.0
 10
84.916779
 20
141.306600
 30
0.0
  0
SPLINE
  5
181
100
AcDbEntity
  8
Layer_1
 62
7
100
AcDbSpline
 70
8
 71
3
 72
8
 73
4
 74
0
 40
0
 40
0
 40
0
 40
0
 40
1
 40
1
 40
1
 40
1
 10
84.916779
 20
141.306600
 30
0.0
 10
85.728019
 20
141.306522
 30
0.0
 10
86.385753
 20
141.977904
 30
0.0
 10
86.385942
 20
142.806250
 30
0.0
  0
SPLINE
  5
182
100
AcDbEntity
  8
Layer_1
 62
7
100
AcDbSpline
 70
8
 71
3
 72
8
 73
4
 74
0
 40
0
 40
0
 40
0
 40
0
 40
1
 40
1
 40
1
 40
1
 10
86.385942
 20
142.806250
 30
0.0
 10
86.385986
 20
143.204129
 30
0.0
 10
86.231215
 20
143.585725
 30
0.0
 10
85.955685
 20
143.867070
 30
0.0
  0
SPLINE
  5
183
100
AcDbEntity
  8
Layer_1
 62
7
100
AcDbSpline
 70
8
 71
3
 72
8
 73
4
 74
0
 40
0
 40
0
 40
0
 40
0
 40
1
 40
1
 40
1
 40
1
 10
85.955685
 20
143.867070
 30
0.0
 10
85.680154
 20
144.148415
 30
0.0
 10
85.306441
 20
144.306458
 30
0.0
 10
84.916779
 20
144.306420
 30
0.0
  0
LWPOLYLINE
  5
184
100
AcDbEntity
  8
Layer_1
 62
7
100
AcDbPolyline
 90
1
 70
1
 10
89.685481
 20
144.306420
 30
0.0
  0
SPLINE
  5
185
100
AcDbEntity
  8
Layer_1
 62
7
100
AcDbSpline
 70
8
 71
3
 72
8
 73
4
 74
0
 40
0
 40
0
 40
0
 40
0
 40
1
 40
1
 40
1
 40
1
 10
80.142394
 20
144.306420
 30
0.0
 10
79.740265
 20
144.306471
 30
0.0
 10
79.354590
 20
144.148435
 30
0.0
 10
79.070240
 20
143.867088
 30
0.0
  0
SPLINE
  5
186
100
AcDbEntity
  8
Layer_1
 62
7
100
AcDbSpline
 70
8
 71
3
 72
8
 73
4
 74
0
 40
0
 40
0
 40
0
 40
0
 40
1
 40
1
 40
1
 40
1
 10
79.070240
 20
143.867088
 30
0.0
 10
78.785889
 20
143.585741
 30
0.0
 10
78.626162
 20
143.204137
 30
0.0
 10
78.626208
 20
142.806250
 30
0.0
  0
SPLINE
  5
187
100
AcDbEntity
  8
Layer_1
 62
7
100
AcDbSpline
 70
8
 71
3
 72
8
 73
4
 74
0
 40
0
 40
0
 40
0
 40
0
 40
1
 40
1
 40
1
 40
1
 10
78.626208
 20
142.806250
 30
0.0
 10
78.626403
 20
141.977885
 30
0.0
 10
79.305197
 20
141.306494
 30
0.0
 10
80.142394
 20
141.306600
 30
0.0
  0
SPLINE
  5
188
100
AcDbEntity
  8
Layer_1
 62
7
100
AcDbSpline
 70
8
 71
3
 72
8
 73
4
 74
0
 40
0
 40
0
 40
0
 40
0
 40
1
 40
1
 40
1
 40
1
 10
80.142394
 20
141.306600
 30
0.0
 10
80.979591
 20
141.306494
 30
0.0
 10
81.658386
 20
141.977884
 30
0.0
 10
81.658581
 20
142.806250
 30
0.0
  0
SPLINE
  5
189
100
AcDbEntity
  8
Layer_1
 62
7
100
AcDbSpline
 70
8
 71
3
 72
8
 73
4
 74
0
 40
0
 40
0
 40
0
 40
0
 40
1
 40
1
 40
1
 40
1
 10
81.658581
 20
142.806250
 30
0.0
 10
81.658627
 20
143.204138
 30
0.0
 10
81.498900
 20
143.585741
 30
0.0
 10
81.214549
 20
143.867088
 30
0.0
  0
SPLINE
  5
18a
100
AcDbEntity
  8
Layer_1
 62
7
100
AcDbSpline
 70
8
 71
3
 72
8
 73
4
 74
0
 40
0
 40
0
 40
0
 40
0
 40
1
 40
1
 40
1
 40
1
 10
81.214549
 20
143.867088
 30
0.0
 10
80.930198
 20
144.148435
 30
0.0
 10
80.544524
 20
144.306471
 30
0.0
 10
80.142394
 20
144.306420
 30
0.0
  0
LWPOLYLINE
  5
18b
100
AcDbEntity
  8
Layer_1
 62
7
100
AcDbPolyline
 90
1
 70
1
 10
84.916779
 20
144.306420
 30
0.0
  0
SPLINE
  5
18c
100
AcDbEntity
  8
Layer_1
 62
7
100
AcDbSpline
 70
8
 71
3
 72
8
 73
4
 74
0
 40
0
 40
0
 40
0
 40
0
 40
1
 40
1
 40
1
 40
1
 10
75.372142
 20
144.306420
 30
0.0
 10
74.979035
 20
144.306403
 30
0.0
 10
74.602037
 20
144.148336
 30
0.0
 10
74.324091
 20
143.866997
 30
0.0
  0
SPLINE
  5
18d
100
AcDbEntity
  8
Layer_1
 62
7
100
AcDbSpline
 70
8
 71
3
 72
8
 73
4
 74
0
 40
0
 40
0
 40
0
 40
0
 40
1
 40
1
 40
1
 40
1
 10
74.324091
 20
143.866997
 30
0.0
 10
74.046144
 20
143.585657
 30
0.0
 10
73.890018
 20
143.204093
 30
0.0
 10
73.890063
 20
142.806250
 30
0.0
  0
SPLINE
  5
18e
100
AcDbEntity
  8
Layer_1
 62
7
100
AcDbSpline
 70
8
 71
3
 72
8
 73
4
 74
0
 40
0
 40
0
 40
0
 40
0
 40
1
 40
1
 40
1
 40
1
 10
73.890063
 20
142.806250
 30
0.0
 10
73.890254
 20
141.977985
 30
0.0
 10
74.553737
 20
141.306636
 30
0.0
 10
75.372142
 20
141.306600
 30
0.0
  0
SPLINE
  5
18f
100
AcDbEntity
  8
Layer_1
 62
7
100
AcDbSpline
 70
8
 71
3
 72
8
 73
4
 74
0
 40
0
 40
0
 40
0
 40
0
 40
1
 40
1
 40
1
 40
1
 10
75.372142
 20
141.306600
 30
0.0
 10
76.190548
 20
141.306635
 30
0.0
 10
76.854033
 20
141.977984
 30
0.0
 10
76.854224
 20
142.806250
 30
0.0
  0
SPLINE
  5
190
100
AcDbEntity
  8
Layer_1
 62
7
100
AcDbSpline
 70
8
 71
3
 72
8
 73
4
 74
0
 40
0
 40
0
 40
0
 40
0
 40
1
 40
1
 40
1
 40
1
 10
76.854224
 20
142.806250
 30
0.0
 10
76.854269
 20
143.204093
 30
0.0
 10
76.698143
 20
143.585658
 30
0.0
 10
76.420195
 20
143.866998
 30
0.0
  0
SPLINE
  5
191
100
AcDbEntity
  8
Layer_1
 62
7
100
AcDbSpline
 70
8
 71
3
 72
8
 73
4
 74
0
 40
0
 40
0
 40
0
 40
0
 40
1
 40
1
 40
1
 40
1
 10
76.420195
 20
143.866998
 30
0.0
 10
76.142248
 20
144.148337
 30
0.0
 10
75.765249
 20
144.306403
 30
0.0
 10
75.372142
 20
144.306420
 30
0.0
  0
LWPOLYLINE
  5
192
100
AcDbEntity
  8
Layer_1
 62
7
100
AcDbPolyline
 90
1
 70
1
 10
80.142394
 20
144.306420
 30
0.0
  0
SPLINE
  5
193
100
AcDbEntity
  8
Layer_1
 62
7
100
AcDbSpline
 70
8
 71
3
 72
8
 73
4
 74
0
 40
0
 40
0
 40
0
 40
0
 40
1
 40
1
 40
1
 40
1
 10
94.511026
 20
148.464820
 30
0.0
 10
94.207341
 20
148.464755
 30
0.0
 10
93.961191
 20
148.217214
 30
0.0
 10
93.961190
 20
147.911880
 30
0.0
  0
SPLINE
  5
194
100
AcDbEntity
  8
Layer_1
 62
7
100
AcDbSpline
 70
8
 71
3
 72
8
 73
4
 74
0
 40
0
 40
0
 40
0
 40
0
 40
1
 40
1
 40
1
 40
1
 10
93.961190
 20
147.911880
 30
0.0
 10
93.961196
 20
147.606550
 30
0.0
 10
94.207345
 20
147.359015
 30
0.0
 10
94.511026
 20
147.358950
 30
0.0
  0
SPLINE
  5
195
100
AcDbEntity
  8
Layer_1
 62
7
100
AcDbSpline
 70
8
 71
3
 72
8
 73
4
 74
0
 40
0
 40
0
 40
0
 40
0
 40
1
 40
1
 40
1
 40
1
 10
94.511026
 20
147.358950
 30
0.0
 10
94.814708
 20
147.359014
 30
0.0
 10
95.060859
 20
147.606548
 30
0.0
 10
95.060865
 20
147.911880
 30
0.0
  0
SPLINE
  5
196
100
AcDbEntity
  8
Layer_1
 62
7
100
AcDbSpline
 70
8
 71
3
 72
8
 73
4
 74
0
 40
0
 40
0
 40
0
 40
0
 40
1
 40
1
 40
1
 40
1
 10
95.060865
 20
147.911880
 30
0.0
 10
95.060864
 20
148.217216
 30
0.0
 10
94.814712
 20
148.464756
 30
0.0
 10
94.511026
 20
148.464820
 30
0.0
  0
LWPOLYLINE
  5
197
100
AcDbEntity
  8
Layer_1
 62
7
100
AcDbPolyline
 90
1
 70
1
 10
75.372142
 20
144.306420
 30
0.0
  0
SPLINE
  5
198
100
AcDbEntity
  8
Layer_1
 62
7
100
AcDbSpline
 70
8
 71
3
 72
8
 73
4
 74
0
 40
0
 40
0
 40
0
 40
0
 40
1
 40
1
 40
1
 40
1
 10
70.641166
 20
148.590400
 30
0.0
 10
70.232650
 20
148.590579
 30
0.0
 10
69.901339
 20
148.256257
 30
0.0
 10
69.901159
 20
147.843670
 30
0.0
  0
SPLINE
  5
199
100
AcDbEntity
  8
Layer_1
 62
7
100
AcDbSpline
 70
8
 71
3
 72
8
 73
4
 74
0
 40
0
 40
0
 40
0
 40
0
 40
1
 40
1
 40
1
 40
1
 10
69.901159
 20
147.843670
 30
0.0
 10
69.901111
 20
147.645450
 30
0.0
 10
69.979065
 20
147.455337
 30
0.0
 10
70.117858
 20
147.315188
 30
0.0
  0
SPLINE
  5
19a
100
AcDbEntity
  8
Layer_1
 62
7
100
AcDbSpline
 70
8
 71
3
 72
8
 73
4
 74
0
 40
0
 40
0
 40
0
 40
0
 40
1
 40
1
 40
1
 40
1
 10
70.117858
 20
147.315188
 30
0.0
 10
70.256651
 20
147.175039
 30
0.0
 10
70.444902
 20
147.096344
 30
0.0
 10
70.641166
 20
147.096430
 30
0.0
  0
SPLINE
  5
19b
100
AcDbEntity
  8
Layer_1
 62
7
100
AcDbSpline
 70
8
 71
3
 72
8
 73
4
 74
0
 40
0
 40
0
 40
0
 40
0
 40
1
 40
1
 40
1
 40
1
 10
70.641166
 20
147.096430
 30
0.0
 10
71.049677
 20
147.096540
 30
0.0
 10
71.380755
 20
147.431088
 30
0.0
 10
71.380656
 20
147.843670
 30
0.0
  0
SPLINE
  5
19c
100
AcDbEntity
  8
Layer_1
 62
7
100
AcDbSpline
 70
8
 71
3
 72
8
 73
4
 74
0
 40
0
 40
0
 40
0
 40
0
 40
1
 40
1
 40
1
 40
1
 10
71.380656
 20
147.843670
 30
0.0
 10
71.380476
 20
148.256053
 30
0.0
 10
71.049480
 20
148.590290
 30
0.0
 10
70.641166
 20
148.590400
 30
0.0
  0
LWPOLYLINE
  5
19d
100
AcDbEntity
  8
Layer_1
 62
7
100
AcDbPolyline
 90
1
 70
1
 10
94.511026
 20
148.464820
 30
0.0
  0
SPLINE
  5
19e
100
AcDbEntity
  8
Layer_1
 62
7
100
AcDbSpline
 70
8
 71
3
 72
8
 73
4
 74
0
 40
0
 40
0
 40
0
 40
0
 40
1
 40
1
 40
1
 40
1
 10
89.685997
 20
149.077710
 30
0.0
 10
89.282074
 20
149.077728
 30
0.0
 10
88.894691
 20
148.919678
 30
0.0
 10
88.609085
 20
148.638335
 30
0.0
  0
SPLINE
  5
19f
100
AcDbEntity
  8
Layer_1
 62
7
100
AcDbSpline
 70
8
 71
3
 72
8
 73
4
 74
0
 40
0
 40
0
 40
0
 40
0
 40
1
 40
1
 40
1
 40
1
 10
88.609085
 20
148.638335
 30
0.0
 10
88.323478
 20
148.356991
 30
0.0
 10
88.163047
 20
147.975406
 30
0.0
 10
88.163093
 20
147.577540
 30
0.0
  0
SPLINE
  5
1a0
100
AcDbEntity
  8
Layer_1
 62
7
100
AcDbSpline
 70
8
 71
3
 72
8
 73
4
 74
0
 40
0
 40
0
 40
0
 40
0
 40
1
 40
1
 40
1
 40
1
 10
88.163093
 20
147.577540
 30
0.0
 10
88.163289
 20
146.749222
 30
0.0
 10
88.845070
 20
146.077852
 30
0.0
 10
89.685997
 20
146.077890
 30
0.0
  0
SPLINE
  5
1a1
100
AcDbEntity
  8
Layer_1
 62
7
100
AcDbSpline
 70
8
 71
3
 72
8
 73
4
 74
0
 40
0
 40
0
 40
0
 40
0
 40
1
 40
1
 40
1
 40
1
 10
89.685997
 20
146.077890
 30
0.0
 10
90.526924
 20
146.077851
 30
0.0
 10
91.208706
 20
146.749222
 30
0.0
 10
91.208902
 20
147.577540
 30
0.0
  0
SPLINE
  5
1a2
100
AcDbEntity
  8
Layer_1
 62
7
100
AcDbSpline
 70
8
 71
3
 72
8
 73
4
 74
0
 40
0
 40
0
 40
0
 40
0
 40
1
 40
1
 40
1
 40
1
 10
91.208902
 20
147.577540
 30
0.0
 10
91.208948
 20
147.975406
 30
0.0
 10
91.048517
 20
148.356992
 30
0.0
 10
90.762910
 20
148.638335
 30
0.0
  0
SPLINE
  5
1a3
100
AcDbEntity
  8
Layer_1
 62
7
100
AcDbSpline
 70
8
 71
3
 72
8
 73
4
 74
0
 40
0
 40
0
 40
0
 40
0
 40
1
 40
1
 40
1
 40
1
 10
90.762910
 20
148.638335
 30
0.0
 10
90.477303
 20
148.919678
 30
0.0
 10
90.089920
 20
149.077729
 30
0.0
 10
89.685997
 20
149.077710
 30
0.0
  0
LWPOLYLINE
  5
1a4
100
AcDbEntity
  8
Layer_1
 62
7
100
AcDbPolyline
 90
1
 70
1
 10
70.641166
 20
148.590400
 30
0.0
  0
SPLINE
  5
1a5
100
AcDbEntity
  8
Layer_1
 62
7
100
AcDbSpline
 70
8
 71
3
 72
8
 73
4
 74
0
 40
0
 40
0
 40
0
 40
0
 40
1
 40
1
 40
1
 40
1
 10
84.916264
 20
149.077710
 30
0.0
 10
84.522345
 20
149.077722
 30
0.0
 10
84.144557
 20
148.919669
 30
0.0
 10
83.866026
 20
148.638327
 30
0.0
  0
SPLINE
  5
1a6
100
AcDbEntity
  8
Layer_1
 62
7
100
AcDbSpline
 70
8
 71
3
 72
8
 73
4
 74
0
 40
0
 40
0
 40
0
 40
0
 40
1
 40
1
 40
1
 40
1
 10
83.866026
 20
148.638327
 30
0.0
 10
83.587494
 20
148.356984
 30
0.0
 10
83.431038
 20
147.975402
 30
0.0
 10
83.431083
 20
147.577540
 30
0.0
  0
SPLINE
  5
1a7
100
AcDbEntity
  8
Layer_1
 62
7
100
AcDbSpline
 70
8
 71
3
 72
8
 73
4
 74
0
 40
0
 40
0
 40
0
 40
0
 40
1
 40
1
 40
1
 40
1
 10
83.431083
 20
147.577540
 30
0.0
 10
83.431274
 20
146.749231
 30
0.0
 10
84.096164
 20
146.077864
 30
0.0
 10
84.916264
 20
146.077890
 30
0.0
  0
SPLINE
  5
1a8
100
AcDbEntity
  8
Layer_1
 62
7
100
AcDbSpline
 70
8
 71
3
 72
8
 73
4
 74
0
 40
0
 40
0
 40
0
 40
0
 40
1
 40
1
 40
1
 40
1
 10
84.916264
 20
146.077890
 30
0.0
 10
85.736364
 20
146.077865
 30
0.0
 10
86.401253
 20
146.749232
 30
0.0
 10
86.401444
 20
147.577540
 30
0.0
  0
SPLINE
  5
1a9
100
AcDbEntity
  8
Layer_1
 62
7
100
AcDbSpline
 70
8
 71
3
 72
8
 73
4
 74
0
 40
0
 40
0
 40
0
 40
0
 40
1
 40
1
 40
1
 40
1
 10
86.401444
 20
147.577540
 30
0.0
 10
86.401489
 20
147.975402
 30
0.0
 10
86.245033
 20
148.356984
 30
0.0
 10
85.966502
 20
148.638326
 30
0.0
  0
SPLINE
  5
1aa
100
AcDbEntity
  8
Layer_1
 62
7
100
AcDbSpline
 70
8
 71
3
 72
8
 73
4
 74
0
 40
0
 40
0
 40
0
 40
0
 40
1
 40
1
 40
1
 40
1
 10
85.966502
 20
148.638326
 30
0.0
 10
85.687970
 20
148.919669
 30
0.0
 10
85.310183
 20
149.077722
 30
0.0
 10
84.916264
 20
149.077710
 30
0.0
  0
LWPOLYLINE
  5
1ab
100
AcDbEntity
  8
Layer_1
 62
7
100
AcDbPolyline
 90
1
 70
1
 10
89.685997
 20
149.077710
 30
0.0
  0
SPLINE
  5
1ac
100
AcDbEntity
  8
Layer_1
 62
7
100
AcDbSpline
 70
8
 71
3
 72
8
 73
4
 74
0
 40
0
 40
0
 40
0
 40
0
 40
1
 40
1
 40
1
 40
1
 10
80.142910
 20
149.077710
 30
0.0
 10
79.744463
 20
149.077707
 30
0.0
 10
79.362339
 20
148.919648
 30
0.0
 10
79.080611
 20
148.638307
 30
0.0
  0
SPLINE
  5
1ad
100
AcDbEntity
  8
Layer_1
 62
7
100
AcDbSpline
 70
8
 71
3
 72
8
 73
4
 74
0
 40
0
 40
0
 40
0
 40
0
 40
1
 40
1
 40
1
 40
1
 10
79.080611
 20
148.638307
 30
0.0
 10
78.798883
 20
148.356966
 30
0.0
 10
78.640633
 20
147.975393
 30
0.0
 10
78.640678
 20
147.577540
 30
0.0
  0
SPLINE
  5
1ae
100
AcDbEntity
  8
Layer_1
 62
7
100
AcDbSpline
 70
8
 71
3
 72
8
 73
4
 74
0
 40
0
 40
0
 40
0
 40
0
 40
1
 40
1
 40
1
 40
1
 10
78.640678
 20
147.577540
 30
0.0
 10
78.640872
 20
146.749253
 30
0.0
 10
79.313385
 20
146.077895
 30
0.0
 10
80.142910
 20
146.077890
 30
0.0
  0
SPLINE
  5
1af
100
AcDbEntity
  8
Layer_1
 62
7
100
AcDbSpline
 70
8
 71
3
 72
8
 73
4
 74
0
 40
0
 40
0
 40
0
 40
0
 40
1
 40
1
 40
1
 40
1
 10
80.142910
 20
146.077890
 30
0.0
 10
80.541357
 20
146.077755
 30
0.0
 10
80.923536
 20
146.235682
 30
0.0
 10
81.205361
 20
146.516926
 30
0.0
  0
SPLINE
  5
1b0
100
AcDbEntity
  8
Layer_1
 62
7
100
AcDbSpline
 70
8
 71
3
 72
8
 73
4
 74
0
 40
0
 40
0
 40
0
 40
0
 40
1
 40
1
 40
1
 40
1
 10
81.205361
 20
146.516926
 30
0.0
 10
81.487187
 20
146.798169
 30
0.0
 10
81.645569
 20
147.179688
 30
0.0
 10
81.645662
 20
147.577540
 30
0.0
  0
SPLINE
  5
1b1
100
AcDbEntity
  8
Layer_1
 62
7
100
AcDbSpline
 70
8
 71
3
 72
8
 73
4
 74
0
 40
0
 40
0
 40
0
 40
0
 40
1
 40
1
 40
1
 40
1
 10
81.645662
 20
147.577540
 30
0.0
 10
81.645707
 20
147.975482
 30
0.0
 10
81.487386
 20
148.357134
 30
0.0
 10
81.205545
 20
148.638490
 30
0.0
  0
SPLINE
  5
1b2
100
AcDbEntity
  8
Layer_1
 62
7
100
AcDbSpline
 70
8
 71
3
 72
8
 73
4
 74
0
 40
0
 40
0
 40
0
 40
0
 40
1
 40
1
 40
1
 40
1
 10
81.205545
 20
148.638490
 30
0.0
 10
80.923705
 20
148.919846
 30
0.0
 10
80.541447
 20
149.077845
 30
0.0
 10
80.142910
 20
149.077710
 30
0.0
  0
LWPOLYLINE
  5
1b3
100
AcDbEntity
  8
Layer_1
 62
7
100
AcDbPolyline
 90
1
 70
1
 10
84.916264
 20
149.077710
 30
0.0
  0
SPLINE
  5
1b4
100
AcDbEntity
  8
Layer_1
 62
7
100
AcDbSpline
 70
8
 71
3
 72
8
 73
4
 74
0
 40
0
 40
0
 40
0
 40
0
 40
1
 40
1
 40
1
 40
1
 10
75.369560
 20
149.077710
 30
0.0
 10
74.962882
 20
149.077690
 30
0.0
 10
74.572871
 20
148.919623
 30
0.0
 10
74.285330
 20
148.638284
 30
0.0
  0
SPLINE
  5
1b5
100
AcDbEntity
  8
Layer_1
 62
7
100
AcDbSpline
 70
8
 71
3
 72
8
 73
4
 74
0
 40
0
 40
0
 40
0
 40
0
 40
1
 40
1
 40
1
 40
1
 10
74.285330
 20
148.638284
 30
0.0
 10
73.997788
 20
148.356945
 30
0.0
 10
73.836274
 20
147.975381
 30
0.0
 10
73.836320
 20
147.577540
 30
0.0
  0
SPLINE
  5
1b6
100
AcDbEntity
  8
Layer_1
 62
7
100
AcDbSpline
 70
8
 71
3
 72
8
 73
4
 74
0
 40
0
 40
0
 40
0
 40
0
 40
1
 40
1
 40
1
 40
1
 10
73.836320
 20
147.577540
 30
0.0
 10
73.836518
 20
146.749278
 30
0.0
 10
74.522902
 20
146.077931
 30
0.0
 10
75.369560
 20
146.077890
 30
0.0
  0
SPLINE
  5
1b7
100
AcDbEntity
  8
Layer_1
 62
7
100
AcDbSpline
 70
8
 71
3
 72
8
 73
4
 74
0
 40
0
 40
0
 40
0
 40
0
 40
1
 40
1
 40
1
 40
1
 10
75.369560
 20
146.077890
 30
0.0
 10
76.216217
 20
146.077931
 30
0.0
 10
76.902601
 20
146.749279
 30
0.0
 10
76.902799
 20
147.577540
 30
0.0
  0
SPLINE
  5
1b8
100
AcDbEntity
  8
Layer_1
 62
7
100
AcDbSpline
 70
8
 71
3
 72
8
 73
4
 74
0
 40
0
 40
0
 40
0
 40
0
 40
1
 40
1
 40
1
 40
1
 10
76.902799
 20
147.577540
 30
0.0
 10
76.902845
 20
147.975381
 30
0.0
 10
76.741331
 20
148.356944
 30
0.0
 10
76.453790
 20
148.638284
 30
0.0
  0
SPLINE
  5
1b9
100
AcDbEntity
  8
Layer_1
 62
7
100
AcDbSpline
 70
8
 71
3
 72
8
 73
4
 74
0
 40
0
 40
0
 40
0
 40
0
 40
1
 40
1
 40
1
 40
1
 10
76.453790
 20
148.638284
 30
0.0
 10
76.166249
 20
148.919623
 30
0.0
 10
75.776237
 20
149.077690
 30
0.0
 10
75.369560
 20
149.077710
 30
0.0
  0
LWPOLYLINE
  5
1ba
100
AcDbEntity
  8
Layer_1
 62
7
100
AcDbPolyline
 90
1
 70
1
 10
80.142910
 20
149.077710
 30
0.0
  0
SPLINE
  5
1bb
100
AcDbEntity
  8
Layer_1
 62
7
100
AcDbSpline
 70
8
 71
3
 72
8
 73
4
 74
0
 40
0
 40
0
 40
0
 40
0
 40
1
 40
1
 40
1
 40
1
 10
94.507925
 20
153.263500
 30
0.0
 10
94.347140
 20
153.263524
 30
0.0
 10
94.192935
 20
153.200917
 30
0.0
 10
94.079250
 20
153.089461
 30
0.0
  0
SPLINE
  5
1bc
100
AcDbEntity
  8
Layer_1
 62
7
100
AcDbSpline
 70
8
 71
3
 72
8
 73
4
 74
0
 40
0
 40
0
 40
0
 40
0
 40
1
 40
1
 40
1
 40
1
 10
94.079250
 20
153.089461
 30
0.0
 10
93.965565
 20
152.978005
 30
0.0
 10
93.901718
 20
152.826833
 30
0.0
 10
93.901762
 20
152.669220
 30
0.0
  0
SPLINE
  5
1bd
100
AcDbEntity
  8
Layer_1
 62
7
100
AcDbSpline
 70
8
 71
3
 72
8
 73
4
 74
0
 40
0
 40
0
 40
0
 40
0
 40
1
 40
1
 40
1
 40
1
 10
93.901762
 20
152.669220
 30
0.0
 10
93.901718
 20
152.511607
 30
0.0
 10
93.965565
 20
152.360435
 30
0.0
 10
94.079250
 20
152.248979
 30
0.0
  0
SPLINE
  5
1be
100
AcDbEntity
  8
Layer_1
 62
7
100
AcDbSpline
 70
8
 71
3
 72
8
 73
4
 74
0
 40
0
 40
0
 40
0
 40
0
 40
1
 40
1
 40
1
 40
1
 10
94.079250
 20
152.248979
 30
0.0
 10
94.192935
 20
152.137523
 30
0.0
 10
94.347140
 20
152.074917
 30
0.0
 10
94.507925
 20
152.074940
 30
0.0
  0
SPLINE
  5
1bf
100
AcDbEntity
  8
Layer_1
 62
7
100
AcDbSpline
 70
8
 71
3
 72
8
 73
4
 74
0
 40
0
 40
0
 40
0
 40
0
 40
1
 40
1
 40
1
 40
1
 10
94.507925
 20
152.074940
 30
0.0
 10
94.668710
 20
152.074916
 30
0.0
 10
94.822916
 20
152.137522
 30
0.0
 10
94.936602
 20
152.248978
 30
0.0
  0
SPLINE
  5
1c0
100
AcDbEntity
  8
Layer_1
 62
7
100
AcDbSpline
 70
8
 71
3
 72
8
 73
4
 74
0
 40
0
 40
0
 40
0
 40
0
 40
1
 40
1
 40
1
 40
1
 10
94.936602
 20
152.248978
 30
0.0
 10
95.050288
 20
152.360434
 30
0.0
 10
95.114135
 20
152.511606
 30
0.0
 10
95.114091
 20
152.669220
 30
0.0
  0
SPLINE
  5
1c1
100
AcDbEntity
  8
Layer_1
 62
7
100
AcDbSpline
 70
8
 71
3
 72
8
 73
4
 74
0
 40
0
 40
0
 40
0
 40
0
 40
1
 40
1
 40
1
 40
1
 10
95.114091
 20
152.669220
 30
0.0
 10
95.114135
 20
152.826834
 30
0.0
 10
95.050288
 20
152.978006
 30
0.0
 10
94.936602
 20
153.089462
 30
0.0
  0
SPLINE
  5
1c2
100
AcDbEntity
  8
Layer_1
 62
7
100
AcDbSpline
 70
8
 71
3
 72
8
 73
4
 74
0
 40
0
 40
0
 40
0
 40
0
 40
1
 40
1
 40
1
 40
1
 10
94.936602
 20
153.089462
 30
0.0
 10
94.822916
 20
153.200918
 30
0.0
 10
94.668710
 20
153.263524
 30
0.0
 10
94.507925
 20
153.263500
 30
0.0
  0
LWPOLYLINE
  5
1c3
100
AcDbEntity
  8
Layer_1
 62
7
100
AcDbPolyline
 90
1
 70
1
 10
75.369560
 20
149.077710
 30
0.0
  0
SPLINE
  5
1c4
100
AcDbEntity
  8
Layer_1
 62
7
100
AcDbSpline
 70
8
 71
3
 72
8
 73
4
 74
0
 40
0
 40
0
 40
0
 40
0
 40
1
 40
1
 40
1
 40
1
 10
70.638582
 20
153.392690
 30
0.0
 10
70.204948
 20
153.392806
 30
0.0
 10
69.853301
 20
153.037457
 30
0.0
 10
69.853100
 20
152.598940
 30
0.0
  0
SPLINE
  5
1c5
100
AcDbEntity
  8
Layer_1
 62
7
100
AcDbSpline
 70
8
 71
3
 72
8
 73
4
 74
0
 40
0
 40
0
 40
0
 40
0
 40
1
 40
1
 40
1
 40
1
 10
69.853100
 20
152.598940
 30
0.0
 10
69.853060
 20
152.388264
 30
0.0
 10
69.935805
 20
152.186206
 30
0.0
 10
70.083122
 20
152.037242
 30
0.0
  0
SPLINE
  5
1c6
100
AcDbEntity
  8
Layer_1
 62
7
100
AcDbSpline
 70
8
 71
3
 72
8
 73
4
 74
0
 40
0
 40
0
 40
0
 40
0
 40
1
 40
1
 40
1
 40
1
 10
70.083122
 20
152.037242
 30
0.0
 10
70.230438
 20
151.888277
 30
0.0
 10
70.430252
 20
151.804615
 30
0.0
 10
70.638582
 20
151.804670
 30
0.0
  0
SPLINE
  5
1c7
100
AcDbEntity
  8
Layer_1
 62
7
100
AcDbSpline
 70
8
 71
3
 72
8
 73
4
 74
0
 40
0
 40
0
 40
0
 40
0
 40
1
 40
1
 40
1
 40
1
 10
70.638582
 20
151.804670
 30
0.0
 10
71.072215
 20
151.804843
 30
0.0
 10
71.423630
 20
152.160424
 30
0.0
 10
71.423547
 20
152.598940
 30
0.0
  0
SPLINE
  5
1c8
100
AcDbEntity
  8
Layer_1
 62
7
100
AcDbSpline
 70
8
 71
3
 72
8
 73
4
 74
0
 40
0
 40
0
 40
0
 40
0
 40
1
 40
1
 40
1
 40
1
 10
71.423547
 20
152.598940
 30
0.0
 10
71.423346
 20
153.037253
 30
0.0
 10
71.072014
 20
153.392517
 30
0.0
 10
70.638582
 20
153.392690
 30
0.0
  0
LWPOLYLINE
  5
1c9
100
AcDbEntity
  8
Layer_1
 62
7
100
AcDbPolyline
 90
1
 70
1
 10
94.507925
 20
153.263500
 30
0.0
  0
SPLINE
  5
1ca
100
AcDbEntity
  8
Layer_1
 62
7
100
AcDbSpline
 70
8
 71
3
 72
8
 73
4
 74
0
 40
0
 40
0
 40
0
 40
0
 40
1
 40
1
 40
1
 40
1
 10
89.689098
 20
153.849510
 30
0.0
 10
88.878978
 20
153.849508
 30
0.0
 10
88.222194
 20
153.178149
 30
0.0
 10
88.222005
 20
152.349860
 30
0.0
  0
SPLINE
  5
1cb
100
AcDbEntity
  8
Layer_1
 62
7
100
AcDbSpline
 70
8
 71
3
 72
8
 73
4
 74
0
 40
0
 40
0
 40
0
 40
0
 40
1
 40
1
 40
1
 40
1
 10
88.222005
 20
152.349860
 30
0.0
 10
88.221961
 20
151.952006
 30
0.0
 10
88.376510
 20
151.570433
 30
0.0
 10
88.651648
 20
151.289091
 30
0.0
  0
SPLINE
  5
1cc
100
AcDbEntity
  8
Layer_1
 62
7
100
AcDbSpline
 70
8
 71
3
 72
8
 73
4
 74
0
 40
0
 40
0
 40
0
 40
0
 40
1
 40
1
 40
1
 40
1
 10
88.651648
 20
151.289091
 30
0.0
 10
88.926786
 20
151.007750
 30
0.0
 10
89.299972
 20
150.849691
 30
0.0
 10
89.689098
 20
150.849690
 30
0.0
  0
SPLINE
  5
1cd
100
AcDbEntity
  8
Layer_1
 62
7
100
AcDbSpline
 70
8
 71
3
 72
8
 73
4
 74
0
 40
0
 40
0
 40
0
 40
0
 40
1
 40
1
 40
1
 40
1
 10
89.689098
 20
150.849690
 30
0.0
 10
90.078224
 20
150.849691
 30
0.0
 10
90.451410
 20
151.007750
 30
0.0
 10
90.726548
 20
151.289091
 30
0.0
  0
SPLINE
  5
1ce
100
AcDbEntity
  8
Layer_1
 62
7
100
AcDbSpline
 70
8
 71
3
 72
8
 73
4
 74
0
 40
0
 40
0
 40
0
 40
0
 40
1
 40
1
 40
1
 40
1
 10
90.726548
 20
151.289091
 30
0.0
 10
91.001686
 20
151.570433
 30
0.0
 10
91.156235
 20
151.952006
 30
0.0
 10
91.156191
 20
152.349860
 30
0.0
  0
SPLINE
  5
1cf
100
AcDbEntity
  8
Layer_1
 62
7
100
AcDbSpline
 70
8
 71
3
 72
8
 73
4
 74
0
 40
0
 40
0
 40
0
 40
0
 40
1
 40
1
 40
1
 40
1
 10
91.156191
 20
152.349860
 30
0.0
 10
91.156002
 20
153.178149
 30
0.0
 10
90.499218
 20
153.849508
 30
0.0
 10
89.689098
 20
153.849510
 30
0.0
  0
LWPOLYLINE
  5
1d0
100
AcDbEntity
  8
Layer_1
 62
7
100
AcDbPolyline
 90
1
 70
1
 10
70.638582
 20
153.392690
 30
0.0
  0
SPLINE
  5
1d1
100
AcDbEntity
  8
Layer_1
 62
7
100
AcDbSpline
 70
8
 71
3
 72
8
 73
4
 74
0
 40
0
 40
0
 40
0
 40
0
 40
1
 40
1
 40
1
 40
1
 10
84.917298
 20
153.849510
 30
0.0
 10
84.110906
 20
153.849578
 30
0.0
 10
83.457108
 20
153.178199
 30
0.0
 10
83.456920
 20
152.349860
 30
0.0
  0
SPLINE
  5
1d2
100
AcDbEntity
  8
Layer_1
 62
7
100
AcDbSpline
 70
8
 71
3
 72
8
 73
4
 74
0
 40
0
 40
0
 40
0
 40
0
 40
1
 40
1
 40
1
 40
1
 10
83.456920
 20
152.349860
 30
0.0
 10
83.456876
 20
151.951984
 30
0.0
 10
83.610721
 20
151.570391
 30
0.0
 10
83.884604
 20
151.289046
 30
0.0
  0
SPLINE
  5
1d3
100
AcDbEntity
  8
Layer_1
 62
7
100
AcDbSpline
 70
8
 71
3
 72
8
 73
4
 74
0
 40
0
 40
0
 40
0
 40
0
 40
1
 40
1
 40
1
 40
1
 10
83.884604
 20
151.289046
 30
0.0
 10
84.158486
 20
151.007701
 30
0.0
 10
84.529964
 20
150.849657
 30
0.0
 10
84.917298
 20
150.849690
 30
0.0
  0
SPLINE
  5
1d4
100
AcDbEntity
  8
Layer_1
 62
7
100
AcDbSpline
 70
8
 71
3
 72
8
 73
4
 74
0
 40
0
 40
0
 40
0
 40
0
 40
1
 40
1
 40
1
 40
1
 10
84.917298
 20
150.849690
 30
0.0
 10
85.304632
 20
150.849658
 30
0.0
 10
85.676109
 20
151.007702
 30
0.0
 10
85.949991
 20
151.289047
 30
0.0
  0
SPLINE
  5
1d5
100
AcDbEntity
  8
Layer_1
 62
7
100
AcDbSpline
 70
8
 71
3
 72
8
 73
4
 74
0
 40
0
 40
0
 40
0
 40
0
 40
1
 40
1
 40
1
 40
1
 10
85.949991
 20
151.289047
 30
0.0
 10
86.223873
 20
151.570392
 30
0.0
 10
86.377718
 20
151.951985
 30
0.0
 10
86.377674
 20
152.349860
 30
0.0
  0
SPLINE
  5
1d6
100
AcDbEntity
  8
Layer_1
 62
7
100
AcDbSpline
 70
8
 71
3
 72
8
 73
4
 74
0
 40
0
 40
0
 40
0
 40
0
 40
1
 40
1
 40
1
 40
1
 10
86.377674
 20
152.349860
 30
0.0
 10
86.377486
 20
153.178198
 30
0.0
 10
85.723689
 20
153.849577
 30
0.0
 10
84.917298
 20
153.849510
 30
0.0
  0
LWPOLYLINE
  5
1d7
100
AcDbEntity
  8
Layer_1
 62
7
100
AcDbPolyline
 90
1
 70
1
 10
89.689098
 20
153.849510
 30
0.0
  0
SPLINE
  5
1d8
100
AcDbEntity
  8
Layer_1
 62
7
100
AcDbSpline
 70
8
 71
3
 72
8
 73
4
 74
0
 40
0
 40
0
 40
0
 40
0
 40
1
 40
1
 40
1
 40
1
 10
80.144461
 20
153.849510
 30
0.0
 10
79.327480
 20
153.849464
 30
0.0
 10
78.665157
 20
153.178118
 30
0.0
 10
78.664966
 20
152.349860
 30
0.0
  0
SPLINE
  5
1d9
100
AcDbEntity
  8
Layer_1
 62
7
100
AcDbSpline
 70
8
 71
3
 72
8
 73
4
 74
0
 40
0
 40
0
 40
0
 40
0
 40
1
 40
1
 40
1
 40
1
 10
78.664966
 20
152.349860
 30
0.0
 10
78.664922
 20
151.952020
 30
0.0
 10
78.820774
 20
151.570458
 30
0.0
 10
79.098236
 20
151.289119
 30
0.0
  0
SPLINE
  5
1da
100
AcDbEntity
  8
Layer_1
 62
7
100
AcDbSpline
 70
8
 71
3
 72
8
 73
4
 74
0
 40
0
 40
0
 40
0
 40
0
 40
1
 40
1
 40
1
 40
1
 10
79.098236
 20
151.289119
 30
0.0
 10
79.375697
 20
151.007780
 30
0.0
 10
79.752038
 20
150.849712
 30
0.0
 10
80.144461
 20
150.849690
 30
0.0
  0
SPLINE
  5
1db
100
AcDbEntity
  8
Layer_1
 62
7
100
AcDbSpline
 70
8
 71
3
 72
8
 73
4
 74
0
 40
0
 40
0
 40
0
 40
0
 40
1
 40
1
 40
1
 40
1
 10
80.144461
 20
150.849690
 30
0.0
 10
80.536884
 20
150.849711
 30
0.0
 10
80.913225
 20
151.007780
 30
0.0
 10
81.190687
 20
151.289119
 30
0.0
  0
SPLINE
  5
1dc
100
AcDbEntity
  8
Layer_1
 62
7
100
AcDbSpline
 70
8
 71
3
 72
8
 73
4
 74
0
 40
0
 40
0
 40
0
 40
0
 40
1
 40
1
 40
1
 40
1
 10
81.190687
 20
151.289119
 30
0.0
 10
81.468150
 20
151.570458
 30
0.0
 10
81.624002
 20
151.952020
 30
0.0
 10
81.623958
 20
152.349860
 30
0.0
  0
SPLINE
  5
1dd
100
AcDbEntity
  8
Layer_1
 62
7
100
AcDbSpline
 70
8
 71
3
 72
8
 73
4
 74
0
 40
0
 40
0
 40
0
 40
0
 40
1
 40
1
 40
1
 40
1
 10
81.623958
 20
152.349860
 30
0.0
 10
81.623767
 20
153.178119
 30
0.0
 10
80.961443
 20
153.849465
 30
0.0
 10
80.144461
 20
153.849510
 30
0.0
  0
LWPOLYLINE
  5
1de
100
AcDbEntity
  8
Layer_1
 62
7
100
AcDbPolyline
 90
1
 70
1
 10
84.917298
 20
153.849510
 30
0.0
  0
SPLINE
  5
1df
100
AcDbEntity
  8
Layer_1
 62
7
100
AcDbSpline
 70
8
 71
3
 72
8
 73
4
 74
0
 40
0
 40
0
 40
0
 40
0
 40
1
 40
1
 40
1
 40
1
 10
75.373177
 20
153.849510
 30
0.0
 10
74.563068
 20
153.849549
 30
0.0
 10
73.906272
 20
153.178178
 30
0.0
 10
73.906083
 20
152.349860
 30
0.0
  0
SPLINE
  5
1e0
100
AcDbEntity
  8
Layer_1
 62
7
100
AcDbSpline
 70
8
 71
3
 72
8
 73
4
 74
0
 40
0
 40
0
 40
0
 40
0
 40
1
 40
1
 40
1
 40
1
 10
73.906083
 20
152.349860
 30
0.0
 10
73.906039
 20
151.951994
 30
0.0
 10
74.060590
 20
151.570408
 30
0.0
 10
74.335730
 20
151.289065
 30
0.0
  0
SPLINE
  5
1e1
100
AcDbEntity
  8
Layer_1
 62
7
100
AcDbSpline
 70
8
 71
3
 72
8
 73
4
 74
0
 40
0
 40
0
 40
0
 40
0
 40
1
 40
1
 40
1
 40
1
 10
74.335730
 20
151.289065
 30
0.0
 10
74.610871
 20
151.007721
 30
0.0
 10
74.984057
 20
150.849671
 30
0.0
 10
75.373177
 20
150.849690
 30
0.0
  0
SPLINE
  5
1e2
100
AcDbEntity
  8
Layer_1
 62
7
100
AcDbSpline
 70
8
 71
3
 72
8
 73
4
 74
0
 40
0
 40
0
 40
0
 40
0
 40
1
 40
1
 40
1
 40
1
 10
75.373177
 20
150.849690
 30
0.0
 10
75.762297
 20
150.849671
 30
0.0
 10
76.135483
 20
151.007722
 30
0.0
 10
76.410623
 20
151.289065
 30
0.0
  0
SPLINE
  5
1e3
100
AcDbEntity
  8
Layer_1
 62
7
100
AcDbSpline
 70
8
 71
3
 72
8
 73
4
 74
0
 40
0
 40
0
 40
0
 40
0
 40
1
 40
1
 40
1
 40
1
 10
76.410623
 20
151.289065
 30
0.0
 10
76.685763
 20
151.570409
 30
0.0
 10
76.840314
 20
151.951994
 30
0.0
 10
76.840270
 20
152.349860
 30
0.0
  0
SPLINE
  5
1e4
100
AcDbEntity
  8
Layer_1
 62
7
100
AcDbSpline
 70
8
 71
3
 72
8
 73
4
 74
0
 40
0
 40
0
 40
0
 40
0
 40
1
 40
1
 40
1
 40
1
 10
76.840270
 20
152.349860
 30
0.0
 10
76.840081
 20
153.178178
 30
0.0
 10
76.183285
 20
153.849549
 30
0.0
 10
75.373177
 20
153.849510
 30
0.0
  0
LWPOLYLINE
  5
1e5
100
AcDbEntity
  8
Layer_1
 62
7
100
AcDbPolyline
 90
1
 70
1
 10
80.144461
 20
153.849510
 30
0.0
  0
SPLINE
  5
1e6
100
AcDbEntity
  8
Layer_1
 62
7
100
AcDbSpline
 70
8
 71
3
 72
8
 73
4
 74
0
 40
0
 40
0
 40
0
 40
0
 40
1
 40
1
 40
1
 40
1
 10
94.506893
 20
158.054420
 30
0.0
 10
94.339527
 20
158.054462
 30
0.0
 10
94.179005
 20
157.988758
 30
0.0
 10
94.060664
 20
157.871774
 30
0.0
  0
SPLINE
  5
1e7
100
AcDbEntity
  8
Layer_1
 62
7
100
AcDbSpline
 70
8
 71
3
 72
8
 73
4
 74
0
 40
0
 40
0
 40
0
 40
0
 40
1
 40
1
 40
1
 40
1
 10
94.060664
 20
157.871774
 30
0.0
 10
93.942324
 20
157.754789
 30
0.0
 10
93.875866
 20
157.596114
 30
0.0
 10
93.875923
 20
157.430680
 30
0.0
  0
SPLINE
  5
1e8
100
AcDbEntity
  8
Layer_1
 62
7
100
AcDbSpline
 70
8
 71
3
 72
8
 73
4
 74
0
 40
0
 40
0
 40
0
 40
0
 40
1
 40
1
 40
1
 40
1
 10
93.875923
 20
157.430680
 30
0.0
 10
93.876096
 20
157.086373
 30
0.0
 10
94.158566
 20
156.807373
 30
0.0
 10
94.506893
 20
156.807460
 30
0.0
  0
SPLINE
  5
1e9
100
AcDbEntity
  8
Layer_1
 62
7
100
AcDbSpline
 70
8
 71
3
 72
8
 73
4
 74
0
 40
0
 40
0
 40
0
 40
0
 40
1
 40
1
 40
1
 40
1
 10
94.506893
 20
156.807460
 30
0.0
 10
94.855018
 20
156.807655
 30
0.0
 10
95.137172
 20
157.086573
 30
0.0
 10
95.137345
 20
157.430680
 30
0.0
  0
SPLINE
  5
1ea
100
AcDbEntity
  8
Layer_1
 62
7
100
AcDbSpline
 70
8
 71
3
 72
8
 73
4
 74
0
 40
0
 40
0
 40
0
 40
0
 40
1
 40
1
 40
1
 40
1
 10
95.137345
 20
157.430680
 30
0.0
 10
95.137463
 20
157.774990
 30
0.0
 10
94.855223
 20
158.054225
 30
0.0
 10
94.506893
 20
158.054420
 30
0.0
  0
LWPOLYLINE
  5
1eb
100
AcDbEntity
  8
Layer_1
 62
7
100
AcDbPolyline
 90
1
 70
1
 10
75.373177
 20
153.849510
 30
0.0
  0
SPLINE
  5
1ec
100
AcDbEntity
  8
Layer_1
 62
7
100
AcDbSpline
 70
8
 71
3
 72
8
 73
4
 74
0
 40
0
 40
0
 40
0
 40
0
 40
1
 40
1
 40
1
 40
1
 10
70.638582
 20
158.146420
 30
0.0
 10
70.208098
 20
158.146228
 30
0.0
 10
69.859242
 20
157.803850
 30
0.0
 10
69.859301
 20
157.381610
 30
0.0
  0
SPLINE
  5
1ed
100
AcDbEntity
  8
Layer_1
 62
7
100
AcDbSpline
 70
8
 71
3
 72
8
 73
4
 74
0
 40
0
 40
0
 40
0
 40
0
 40
1
 40
1
 40
1
 40
1
 10
69.859301
 20
157.381610
 30
0.0
 10
69.859242
 20
156.959370
 30
0.0
 10
70.208098
 20
156.616992
 30
0.0
 10
70.638582
 20
156.616800
 30
0.0
  0
SPLINE
  5
1ee
100
AcDbEntity
  8
Layer_1
 62
7
100
AcDbSpline
 70
8
 71
3
 72
8
 73
4
 74
0
 40
0
 40
0
 40
0
 40
0
 40
1
 40
1
 40
1
 40
1
 10
70.638582
 20
156.616800
 30
0.0
 10
70.845401
 20
156.616758
 30
0.0
 10
71.043761
 20
156.697321
 30
0.0
 10
71.190009
 20
156.840758
 30
0.0
  0
SPLINE
  5
1ef
100
AcDbEntity
  8
Layer_1
 62
7
100
AcDbSpline
 70
8
 71
3
 72
8
 73
4
 74
0
 40
0
 40
0
 40
0
 40
0
 40
1
 40
1
 40
1
 40
1
 10
71.190009
 20
156.840758
 30
0.0
 10
71.336257
 20
156.984195
 30
0.0
 10
71.418407
 20
157.178752
 30
0.0
 10
71.418379
 20
157.381610
 30
0.0
  0
SPLINE
  5
1f0
100
AcDbEntity
  8
Layer_1
 62
7
100
AcDbSpline
 70
8
 71
3
 72
8
 73
4
 74
0
 40
0
 40
0
 40
0
 40
0
 40
1
 40
1
 40
1
 40
1
 10
71.418379
 20
157.381610
 30
0.0
 10
71.418407
 20
157.584468
 30
0.0
 10
71.336257
 20
157.779025
 30
0.0
 10
71.190009
 20
157.922462
 30
0.0
  0
SPLINE
  5
1f1
100
AcDbEntity
  8
Layer_1
 62
7
100
AcDbSpline
 70
8
 71
3
 72
8
 73
4
 74
0
 40
0
 40
0
 40
0
 40
0
 40
1
 40
1
 40
1
 40
1
 10
71.190009
 20
157.922462
 30
0.0
 10
71.043761
 20
158.065899
 30
0.0
 10
70.845401
 20
158.146462
 30
0.0
 10
70.638582
 20
158.146420
 30
0.0
  0
LWPOLYLINE
  5
1f2
100
AcDbEntity
  8
Layer_1
 62
7
100
AcDbPolyline
 90
1
 70
1
 10
94.506893
 20
158.054420
 30
0.0
  0
SPLINE
  5
1f3
100
AcDbEntity
  8
Layer_1
 62
7
100
AcDbSpline
 70
8
 71
3
 72
8
 73
4
 74
0
 40
0
 40
0
 40
0
 40
0
 40
1
 40
1
 40
1
 40
1
 10
89.685481
 20
158.622360
 30
0.0
 10
89.278296
 20
158.622453
 30
0.0
 10
88.887758
 20
158.464436
 30
0.0
 10
88.599817
 20
158.183084
 30
0.0
  0
SPLINE
  5
1f4
100
AcDbEntity
  8
Layer_1
 62
7
100
AcDbSpline
 70
8
 71
3
 72
8
 73
4
 74
0
 40
0
 40
0
 40
0
 40
0
 40
1
 40
1
 40
1
 40
1
 10
88.599817
 20
158.183084
 30
0.0
 10
88.311876
 20
157.901733
 30
0.0
 10
88.150130
 20
157.520105
 30
0.0
 10
88.150176
 20
157.122190
 30
0.0
  0
SPLINE
  5
1f5
100
AcDbEntity
  8
Layer_1
 62
7
100
AcDbSpline
 70
8
 71
3
 72
8
 73
4
 74
0
 40
0
 40
0
 40
0
 40
0
 40
1
 40
1
 40
1
 40
1
 10
88.150176
 20
157.122190
 30
0.0
 10
88.150133
 20
156.724277
 30
0.0
 10
88.311880
 20
156.342651
 30
0.0
 10
88.599820
 20
156.061302
 30
0.0
  0
SPLINE
  5
1f6
100
AcDbEntity
  8
Layer_1
 62
7
100
AcDbSpline
 70
8
 71
3
 72
8
 73
4
 74
0
 40
0
 40
0
 40
0
 40
0
 40
1
 40
1
 40
1
 40
1
 10
88.599820
 20
156.061302
 30
0.0
 10
88.887761
 20
155.779953
 30
0.0
 10
89.278298
 20
155.621937
 30
0.0
 10
89.685481
 20
155.622030
 30
0.0
  0
SPLINE
  5
1f7
100
AcDbEntity
  8
Layer_1
 62
7
100
AcDbSpline
 70
8
 71
3
 72
8
 73
4
 74
0
 40
0
 40
0
 40
0
 40
0
 40
1
 40
1
 40
1
 40
1
 10
89.685481
 20
155.622030
 30
0.0
 10
90.092575
 20
155.622070
 30
0.0
 10
90.482980
 20
155.780145
 30
0.0
 10
90.770809
 20
156.061480
 30
0.0
  0
SPLINE
  5
1f8
100
AcDbEntity
  8
Layer_1
 62
7
100
AcDbSpline
 70
8
 71
3
 72
8
 73
4
 74
0
 40
0
 40
0
 40
0
 40
0
 40
1
 40
1
 40
1
 40
1
 10
90.770809
 20
156.061480
 30
0.0
 10
91.058638
 20
156.342815
 30
0.0
 10
91.220314
 20
156.724364
 30
0.0
 10
91.220271
 20
157.122190
 30
0.0
  0
SPLINE
  5
1f9
100
AcDbEntity
  8
Layer_1
 62
7
100
AcDbSpline
 70
8
 71
3
 72
8
 73
4
 74
0
 40
0
 40
0
 40
0
 40
0
 40
1
 40
1
 40
1
 40
1
 10
91.220271
 20
157.122190
 30
0.0
 10
91.220317
 20
157.520018
 30
0.0
 10
91.058642
 20
157.901569
 30
0.0
 10
90.770812
 20
158.182906
 30
0.0
  0
SPLINE
  5
1fa
100
AcDbEntity
  8
Layer_1
 62
7
100
AcDbSpline
 70
8
 71
3
 72
8
 73
4
 74
0
 40
0
 40
0
 40
0
 40
0
 40
1
 40
1
 40
1
 40
1
 10
90.770812
 20
158.182906
 30
0.0
 10
90.482983
 20
158.464243
 30
0.0
 10
90.092577
 20
158.622320
 30
0.0
 10
89.685481
 20
158.622360
 30
0.0
  0
LWPOLYLINE
  5
1fb
100
AcDbEntity
  8
Layer_1
 62
7
100
AcDbPolyline
 90
1
 70
1
 10
70.638582
 20
158.146420
 30
0.0
  0
SPLINE
  5
1fc
100
AcDbEntity
  8
Layer_1
 62
7
100
AcDbSpline
 70
8
 71
3
 72
8
 73
4
 74
0
 40
0
 40
0
 40
0
 40
0
 40
1
 40
1
 40
1
 40
1
 10
84.916779
 20
158.622360
 30
0.0
 10
84.527112
 20
158.622382
 30
0.0
 10
84.153401
 20
158.464333
 30
0.0
 10
83.877873
 20
158.182989
 30
0.0
  0
SPLINE
  5
1fd
100
AcDbEntity
  8
Layer_1
 62
7
100
AcDbSpline
 70
8
 71
3
 72
8
 73
4
 74
0
 40
0
 40
0
 40
0
 40
0
 40
1
 40
1
 40
1
 40
1
 10
83.877873
 20
158.182989
 30
0.0
 10
83.602345
 20
157.901645
 30
0.0
 10
83.447576
 20
157.520058
 30
0.0
 10
83.447620
 20
157.122190
 30
0.0
  0
SPLINE
  5
1fe
100
AcDbEntity
  8
Layer_1
 62
7
100
AcDbSpline
 70
8
 71
3
 72
8
 73
4
 74
0
 40
0
 40
0
 40
0
 40
0
 40
1
 40
1
 40
1
 40
1
 10
83.447620
 20
157.122190
 30
0.0
 10
83.447578
 20
156.724323
 30
0.0
 10
83.602349
 20
156.342739
 30
0.0
 10
83.877876
 20
156.061397
 30
0.0
  0
SPLINE
  5
1ff
100
AcDbEntity
  8
Layer_1
 62
7
100
AcDbSpline
 70
8
 71
3
 72
8
 73
4
 74
0
 40
0
 40
0
 40
0
 40
0
 40
1
 40
1
 40
1
 40
1
 10
83.877876
 20
156.061397
 30
0.0
 10
84.153404
 20
155.780056
 30
0.0
 10
84.527114
 20
155.622008
 30
0.0
 10
84.916779
 20
155.622030
 30
0.0
  0
SPLINE
  5
200
100
AcDbEntity
  8
Layer_1
 62
7
100
AcDbSpline
 70
8
 71
3
 72
8
 73
4
 74
0
 40
0
 40
0
 40
0
 40
0
 40
1
 40
1
 40
1
 40
1
 10
84.916779
 20
155.622030
 30
0.0
 10
85.306445
 20
155.622007
 30
0.0
 10
85.680156
 20
155.780054
 30
0.0
 10
85.955684
 20
156.061396
 30
0.0
  0
SPLINE
  5
201
100
AcDbEntity
  8
Layer_1
 62
7
100
AcDbSpline
 70
8
 71
3
 72
8
 73
4
 74
0
 40
0
 40
0
 40
0
 40
0
 40
1
 40
1
 40
1
 40
1
 10
85.955684
 20
156.061396
 30
0.0
 10
86.231213
 20
156.342738
 30
0.0
 10
86.385984
 20
156.724323
 30
0.0
 10
86.385942
 20
157.122190
 30
0.0
  0
SPLINE
  5
202
100
AcDbEntity
  8
Layer_1
 62
7
100
AcDbSpline
 70
8
 71
3
 72
8
 73
4
 74
0
 40
0
 40
0
 40
0
 40
0
 40
1
 40
1
 40
1
 40
1
 10
86.385942
 20
157.122190
 30
0.0
 10
86.385986
 20
157.520059
 30
0.0
 10
86.231217
 20
157.901647
 30
0.0
 10
85.955688
 20
158.182991
 30
0.0
  0
SPLINE
  5
203
100
AcDbEntity
  8
Layer_1
 62
7
100
AcDbSpline
 70
8
 71
3
 72
8
 73
4
 74
0
 40
0
 40
0
 40
0
 40
0
 40
1
 40
1
 40
1
 40
1
 10
85.955688
 20
158.182991
 30
0.0
 10
85.680159
 20
158.464334
 30
0.0
 10
85.306446
 20
158.622383
 30
0.0
 10
84.916779
 20
158.622360
 30
0.0
  0
LWPOLYLINE
  5
204
100
AcDbEntity
  8
Layer_1
 62
7
100
AcDbPolyline
 90
1
 70
1
 10
89.685481
 20
158.622360
 30
0.0
  0
SPLINE
  5
205
100
AcDbEntity
  8
Layer_1
 62
7
100
AcDbSpline
 70
8
 71
3
 72
8
 73
4
 74
0
 40
0
 40
0
 40
0
 40
0
 40
1
 40
1
 40
1
 40
1
 10
80.142910
 20
158.622360
 30
0.0
 10
79.312847
 20
158.622183
 30
0.0
 10
78.640068
 20
157.950558
 30
0.0
 10
78.640162
 20
157.122190
 30
0.0
  0
SPLINE
  5
206
100
AcDbEntity
  8
Layer_1
 62
7
100
AcDbSpline
 70
8
 71
3
 72
8
 73
4
 74
0
 40
0
 40
0
 40
0
 40
0
 40
1
 40
1
 40
1
 40
1
 10
78.640162
 20
157.122190
 30
0.0
 10
78.640073
 20
156.293826
 30
0.0
 10
79.312851
 20
155.622207
 30
0.0
 10
80.142910
 20
155.622030
 30
0.0
  0
SPLINE
  5
207
100
AcDbEntity
  8
Layer_1
 62
7
100
AcDbSpline
 70
8
 71
3
 72
8
 73
4
 74
0
 40
0
 40
0
 40
0
 40
0
 40
1
 40
1
 40
1
 40
1
 10
80.142910
 20
155.622030
 30
0.0
 10
80.541611
 20
155.621978
 30
0.0
 10
80.923998
 20
155.780012
 30
0.0
 10
81.205926
 20
156.061357
 30
0.0
  0
SPLINE
  5
208
100
AcDbEntity
  8
Layer_1
 62
7
100
AcDbSpline
 70
8
 71
3
 72
8
 73
4
 74
0
 40
0
 40
0
 40
0
 40
0
 40
1
 40
1
 40
1
 40
1
 10
81.205926
 20
156.061357
 30
0.0
 10
81.487853
 20
156.342701
 30
0.0
 10
81.646221
 20
156.724303
 30
0.0
 10
81.646178
 20
157.122190
 30
0.0
  0
SPLINE
  5
209
100
AcDbEntity
  8
Layer_1
 62
7
100
AcDbSpline
 70
8
 71
3
 72
8
 73
4
 74
0
 40
0
 40
0
 40
0
 40
0
 40
1
 40
1
 40
1
 40
1
 10
81.646178
 20
157.122190
 30
0.0
 10
81.646223
 20
157.520078
 30
0.0
 10
81.487857
 20
157.901683
 30
0.0
 10
81.205929
 20
158.183030
 30
0.0
  0
SPLINE
  5
20a
100
AcDbEntity
  8
Layer_1
 62
7
100
AcDbSpline
 70
8
 71
3
 72
8
 73
4
 74
0
 40
0
 40
0
 40
0
 40
0
 40
1
 40
1
 40
1
 40
1
 10
81.205929
 20
158.183030
 30
0.0
 10
80.924001
 20
158.464377
 30
0.0
 10
80.541613
 20
158.622412
 30
0.0
 10
80.142910
 20
158.622360
 30
0.0
  0
LWPOLYLINE
  5
20b
100
AcDbEntity
  8
Layer_1
 62
7
100
AcDbPolyline
 90
1
 70
1
 10
84.916779
 20
158.622360
 30
0.0
  0
SPLINE
  5
20c
100
AcDbEntity
  8
Layer_1
 62
7
100
AcDbSpline
 70
8
 71
3
 72
8
 73
4
 74
0
 40
0
 40
0
 40
0
 40
0
 40
1
 40
1
 40
1
 40
1
 10
75.370592
 20
158.622360
 30
0.0
 10
74.534549
 20
158.622235
 30
0.0
 10
73.856895
 20
157.950595
 30
0.0
 10
73.856990
 20
157.122190
 30
0.0
  0
SPLINE
  5
20d
100
AcDbEntity
  8
Layer_1
 62
7
100
AcDbSpline
 70
8
 71
3
 72
8
 73
4
 74
0
 40
0
 40
0
 40
0
 40
0
 40
1
 40
1
 40
1
 40
1
 10
73.856990
 20
157.122190
 30
0.0
 10
73.856901
 20
156.293789
 30
0.0
 10
74.534553
 20
155.622155
 30
0.0
 10
75.370592
 20
155.622030
 30
0.0
  0
SPLINE
  5
20e
100
AcDbEntity
  8
Layer_1
 62
7
100
AcDbSpline
 70
8
 71
3
 72
8
 73
4
 74
0
 40
0
 40
0
 40
0
 40
0
 40
1
 40
1
 40
1
 40
1
 10
75.370592
 20
155.622030
 30
0.0
 10
76.206632
 20
155.622154
 30
0.0
 10
76.884285
 20
156.293788
 30
0.0
 10
76.884196
 20
157.122190
 30
0.0
  0
SPLINE
  5
20f
100
AcDbEntity
  8
Layer_1
 62
7
100
AcDbSpline
 70
8
 71
3
 72
8
 73
4
 74
0
 40
0
 40
0
 40
0
 40
0
 40
1
 40
1
 40
1
 40
1
 10
76.884196
 20
157.122190
 30
0.0
 10
76.884291
 20
157.950596
 30
0.0
 10
76.206636
 20
158.622236
 30
0.0
 10
75.370592
 20
158.622360
 30
0.0
  0
LWPOLYLINE
  5
210
100
AcDbEntity
  8
Layer_1
 62
7
100
AcDbPolyline
 90
1
 70
1
 10
80.142910
 20
158.622360
 30
0.0
  0
SPLINE
  5
211
100
AcDbEntity
  8
Layer_1
 62
7
100
AcDbSpline
 70
8
 71
3
 72
8
 73
4
 74
0
 40
0
 40
0
 40
0
 40
0
 40
1
 40
1
 40
1
 40
1
 10
94.506375
 20
162.834510
 30
0.0
 10
94.156217
 20
162.834364
 30
0.0
 10
93.872407
 20
162.550088
 30
0.0
 10
93.872306
 20
162.199400
 30
0.0
  0
SPLINE
  5
212
100
AcDbEntity
  8
Layer_1
 62
7
100
AcDbSpline
 70
8
 71
3
 72
8
 73
4
 74
0
 40
0
 40
0
 40
0
 40
0
 40
1
 40
1
 40
1
 40
1
 10
93.872306
 20
162.199400
 30
0.0
 10
93.872220
 20
162.030899
 30
0.0
 10
93.938977
 20
161.869266
 30
0.0
 10
94.057889
 20
161.750062
 30
0.0
  0
SPLINE
  5
213
100
AcDbEntity
  8
Layer_1
 62
7
100
AcDbSpline
 70
8
 71
3
 72
8
 73
4
 74
0
 40
0
 40
0
 40
0
 40
0
 40
1
 40
1
 40
1
 40
1
 10
94.057889
 20
161.750062
 30
0.0
 10
94.176802
 20
161.630859
 30
0.0
 10
94.338129
 20
161.563850
 30
0.0
 10
94.506375
 20
161.563780
 30
0.0
  0
SPLINE
  5
214
100
AcDbEntity
  8
Layer_1
 62
7
100
AcDbSpline
 70
8
 71
3
 72
8
 73
4
 74
0
 40
0
 40
0
 40
0
 40
0
 40
1
 40
1
 40
1
 40
1
 10
94.506375
 20
161.563780
 30
0.0
 10
94.674711
 20
161.563713
 30
0.0
 10
94.836171
 20
161.630660
 30
0.0
 10
94.955196
 20
161.749879
 30
0.0
  0
SPLINE
  5
215
100
AcDbEntity
  8
Layer_1
 62
7
100
AcDbSpline
 70
8
 71
3
 72
8
 73
4
 74
0
 40
0
 40
0
 40
0
 40
0
 40
1
 40
1
 40
1
 40
1
 10
94.955196
 20
161.749879
 30
0.0
 10
95.074220
 20
161.869097
 30
0.0
 10
95.141048
 20
162.030809
 30
0.0
 10
95.140962
 20
162.199400
 30
0.0
  0
SPLINE
  5
216
100
AcDbEntity
  8
Layer_1
 62
7
100
AcDbSpline
 70
8
 71
3
 72
8
 73
4
 74
0
 40
0
 40
0
 40
0
 40
0
 40
1
 40
1
 40
1
 40
1
 10
95.140962
 20
162.199400
 30
0.0
 10
95.140913
 20
162.367902
 30
0.0
 10
95.074026
 20
162.529483
 30
0.0
 10
94.955015
 20
162.648591
 30
0.0
  0
SPLINE
  5
217
100
AcDbEntity
  8
Layer_1
 62
7
100
AcDbSpline
 70
8
 71
3
 72
8
 73
4
 74
0
 40
0
 40
0
 40
0
 40
0
 40
1
 40
1
 40
1
 40
1
 10
94.955015
 20
162.648591
 30
0.0
 10
94.836005
 20
162.767700
 30
0.0
 10
94.674623
 20
162.834577
 30
0.0
 10
94.506375
 20
162.834510
 30
0.0
  0
LWPOLYLINE
  5
218
100
AcDbEntity
  8
Layer_1
 62
7
100
AcDbPolyline
 90
1
 70
1
 10
75.370592
 20
158.622360
 30
0.0
  0
SPLINE
  5
219
100
AcDbEntity
  8
Layer_1
 62
7
100
AcDbSpline
 70
8
 71
3
 72
8
 73
4
 74
0
 40
0
 40
0
 40
0
 40
0
 40
1
 40
1
 40
1
 40
1
 10
70.638065
 20
162.926010
 30
0.0
 10
70.427801
 20
162.926055
 30
0.0
 10
70.226136
 20
162.844238
 30
0.0
 10
70.077461
 20
162.698569
 30
0.0
  0
SPLINE
  5
21a
100
AcDbEntity
  8
Layer_1
 62
7
100
AcDbSpline
 70
8
 71
3
 72
8
 73
4
 74
0
 40
0
 40
0
 40
0
 40
0
 40
1
 40
1
 40
1
 40
1
 10
70.077461
 20
162.698569
 30
0.0
 10
69.928787
 20
162.552900
 30
0.0
 10
69.845290
 20
162.355320
 30
0.0
 10
69.845349
 20
162.149320
 30
0.0
  0
SPLINE
  5
21b
100
AcDbEntity
  8
Layer_1
 62
7
100
AcDbSpline
 70
8
 71
3
 72
8
 73
4
 74
0
 40
0
 40
0
 40
0
 40
0
 40
1
 40
1
 40
1
 40
1
 10
69.845349
 20
162.149320
 30
0.0
 10
69.845513
 20
161.720535
 30
0.0
 10
70.200404
 20
161.373047
 30
0.0
 10
70.638065
 20
161.373140
 30
0.0
  0
SPLINE
  5
21c
100
AcDbEntity
  8
Layer_1
 62
7
100
AcDbSpline
 70
8
 71
3
 72
8
 73
4
 74
0
 40
0
 40
0
 40
0
 40
0
 40
1
 40
1
 40
1
 40
1
 10
70.638065
 20
161.373140
 30
0.0
 10
71.075727
 20
161.373046
 30
0.0
 10
71.430618
 20
161.720534
 30
0.0
 10
71.430782
 20
162.149320
 30
0.0
  0
SPLINE
  5
21d
100
AcDbEntity
  8
Layer_1
 62
7
100
AcDbSpline
 70
8
 71
3
 72
8
 73
4
 74
0
 40
0
 40
0
 40
0
 40
0
 40
1
 40
1
 40
1
 40
1
 10
71.430782
 20
162.149320
 30
0.0
 10
71.430841
 20
162.355320
 30
0.0
 10
71.347344
 20
162.552901
 30
0.0
 10
71.198669
 20
162.698569
 30
0.0
  0
SPLINE
  5
21e
100
AcDbEntity
  8
Layer_1
 62
7
100
AcDbSpline
 70
8
 71
3
 72
8
 73
4
 74
0
 40
0
 40
0
 40
0
 40
0
 40
1
 40
1
 40
1
 40
1
 10
71.198669
 20
162.698569
 30
0.0
 10
71.049995
 20
162.844238
 30
0.0
 10
70.848330
 20
162.926055
 30
0.0
 10
70.638065
 20
162.926010
 30
0.0
  0
LWPOLYLINE
  5
21f
100
AcDbEntity
  8
Layer_1
 62
7
100
AcDbPolyline
 90
1
 70
1
 10
94.506375
 20
162.834510
 30
0.0
  0
SPLINE
  5
220
100
AcDbEntity
  8
Layer_1
 62
7
100
AcDbSpline
 70
8
 71
3
 72
8
 73
4
 74
0
 40
0
 40
0
 40
0
 40
0
 40
1
 40
1
 40
1
 40
1
 10
89.685481
 20
163.394200
 30
0.0
 10
88.841738
 20
163.394088
 30
0.0
 10
88.157835
 20
162.722451
 30
0.0
 10
88.157925
 20
161.894040
 30
0.0
  0
SPLINE
  5
221
100
AcDbEntity
  8
Layer_1
 62
7
100
AcDbSpline
 70
8
 71
3
 72
8
 73
4
 74
0
 40
0
 40
0
 40
0
 40
0
 40
1
 40
1
 40
1
 40
1
 10
88.157925
 20
161.894040
 30
0.0
 10
88.158122
 20
161.065829
 30
0.0
 10
88.841941
 20
160.394502
 30
0.0
 10
89.685481
 20
160.394390
 30
0.0
  0
SPLINE
  5
222
100
AcDbEntity
  8
Layer_1
 62
7
100
AcDbSpline
 70
8
 71
3
 72
8
 73
4
 74
0
 40
0
 40
0
 40
0
 40
0
 40
1
 40
1
 40
1
 40
1
 10
89.685481
 20
160.394390
 30
0.0
 10
90.529223
 20
160.394222
 30
0.0
 10
91.213356
 20
161.065631
 30
0.0
 10
91.213553
 20
161.894040
 30
0.0
  0
SPLINE
  5
223
100
AcDbEntity
  8
Layer_1
 62
7
100
AcDbSpline
 70
8
 71
3
 72
8
 73
4
 74
0
 40
0
 40
0
 40
0
 40
0
 40
1
 40
1
 40
1
 40
1
 10
91.213553
 20
161.894040
 30
0.0
 10
91.213596
 20
162.291945
 30
0.0
 10
91.052613
 20
162.673563
 30
0.0
 10
90.766030
 20
162.954911
 30
0.0
  0
SPLINE
  5
224
100
AcDbEntity
  8
Layer_1
 62
7
100
AcDbSpline
 70
8
 71
3
 72
8
 73
4
 74
0
 40
0
 40
0
 40
0
 40
0
 40
1
 40
1
 40
1
 40
1
 10
90.766030
 20
162.954911
 30
0.0
 10
90.479447
 20
163.236259
 30
0.0
 10
90.090751
 20
163.394281
 30
0.0
 10
89.685481
 20
163.394200
 30
0.0
  0
LWPOLYLINE
  5
225
100
AcDbEntity
  8
Layer_1
 62
7
100
AcDbPolyline
 90
1
 70
1
 10
70.638065
 20
162.926010
 30
0.0
  0
SPLINE
  5
226
100
AcDbEntity
  8
Layer_1
 62
7
100
AcDbSpline
 70
8
 71
3
 72
8
 73
4
 74
0
 40
0
 40
0
 40
0
 40
0
 40
1
 40
1
 40
1
 40
1
 10
84.914713
 20
163.394200
 30
0.0
 10
84.514481
 20
163.394183
 30
0.0
 10
84.130649
 20
163.236119
 30
0.0
 10
83.847664
 20
162.954782
 30
0.0
  0
SPLINE
  5
227
100
AcDbEntity
  8
Layer_1
 62
7
100
AcDbSpline
 70
8
 71
3
 72
8
 73
4
 74
0
 40
0
 40
0
 40
0
 40
0
 40
1
 40
1
 40
1
 40
1
 10
83.847664
 20
162.954782
 30
0.0
 10
83.564678
 20
162.673444
 30
0.0
 10
83.405720
 20
162.291882
 30
0.0
 10
83.405763
 20
161.894040
 30
0.0
  0
SPLINE
  5
228
100
AcDbEntity
  8
Layer_1
 62
7
100
AcDbSpline
 70
8
 71
3
 72
8
 73
4
 74
0
 40
0
 40
0
 40
0
 40
0
 40
1
 40
1
 40
1
 40
1
 10
83.405763
 20
161.894040
 30
0.0
 10
83.405957
 20
161.065774
 30
0.0
 10
84.081470
 20
160.394424
 30
0.0
 10
84.914713
 20
160.394390
 30
0.0
  0
SPLINE
  5
229
100
AcDbEntity
  8
Layer_1
 62
7
100
AcDbSpline
 70
8
 71
3
 72
8
 73
4
 74
0
 40
0
 40
0
 40
0
 40
0
 40
1
 40
1
 40
1
 40
1
 10
84.914713
 20
160.394390
 30
0.0
 10
85.747956
 20
160.394424
 30
0.0
 10
86.423470
 20
161.065774
 30
0.0
 10
86.423664
 20
161.894040
 30
0.0
  0
SPLINE
  5
22a
100
AcDbEntity
  8
Layer_1
 62
7
100
AcDbSpline
 70
8
 71
3
 72
8
 73
4
 74
0
 40
0
 40
0
 40
0
 40
0
 40
1
 40
1
 40
1
 40
1
 10
86.423664
 20
161.894040
 30
0.0
 10
86.423707
 20
162.291882
 30
0.0
 10
86.264749
 20
162.673444
 30
0.0
 10
85.981763
 20
162.954782
 30
0.0
  0
SPLINE
  5
22b
100
AcDbEntity
  8
Layer_1
 62
7
100
AcDbSpline
 70
8
 71
3
 72
8
 73
4
 74
0
 40
0
 40
0
 40
0
 40
0
 40
1
 40
1
 40
1
 40
1
 10
85.981763
 20
162.954782
 30
0.0
 10
85.698777
 20
163.236119
 30
0.0
 10
85.314945
 20
163.394184
 30
0.0
 10
84.914713
 20
163.394200
 30
0.0
  0
LWPOLYLINE
  5
22c
100
AcDbEntity
  8
Layer_1
 62
7
100
AcDbPolyline
 90
1
 70
1
 10
89.685481
 20
163.394200
 30
0.0
  0
SPLINE
  5
22d
100
AcDbEntity
  8
Layer_1
 62
7
100
AcDbSpline
 70
8
 71
3
 72
8
 73
4
 74
0
 40
0
 40
0
 40
0
 40
0
 40
1
 40
1
 40
1
 40
1
 10
80.141360
 20
163.394200
 30
0.0
 10
79.293342
 20
163.394106
 30
0.0
 10
78.605964
 20
162.722463
 30
0.0
 10
78.606054
 20
161.894040
 30
0.0
  0
SPLINE
  5
22e
100
AcDbEntity
  8
Layer_1
 62
7
100
AcDbSpline
 70
8
 71
3
 72
8
 73
4
 74
0
 40
0
 40
0
 40
0
 40
0
 40
1
 40
1
 40
1
 40
1
 10
78.606054
 20
161.894040
 30
0.0
 10
78.606252
 20
161.065816
 30
0.0
 10
79.293546
 20
160.394484
 30
0.0
 10
80.141360
 20
160.394390
 30
0.0
  0
SPLINE
  5
22f
100
AcDbEntity
  8
Layer_1
 62
7
100
AcDbSpline
 70
8
 71
3
 72
8
 73
4
 74
0
 40
0
 40
0
 40
0
 40
0
 40
1
 40
1
 40
1
 40
1
 10
80.141360
 20
160.394390
 30
0.0
 10
80.989175
 20
160.394483
 30
0.0
 10
81.676470
 20
161.065815
 30
0.0
 10
81.676668
 20
161.894040
 30
0.0
  0
SPLINE
  5
230
100
AcDbEntity
  8
Layer_1
 62
7
100
AcDbSpline
 70
8
 71
3
 72
8
 73
4
 74
0
 40
0
 40
0
 40
0
 40
0
 40
1
 40
1
 40
1
 40
1
 10
81.676668
 20
161.894040
 30
0.0
 10
81.676758
 20
162.722464
 30
0.0
 10
80.989379
 20
163.394107
 30
0.0
 10
80.141360
 20
163.394200
 30
0.0
  0
LWPOLYLINE
  5
231
100
AcDbEntity
  8
Layer_1
 62
7
100
AcDbPolyline
 90
1
 70
1
 10
84.914713
 20
163.394200
 30
0.0
  0
SPLINE
  5
232
100
AcDbEntity
  8
Layer_1
 62
7
100
AcDbSpline
 70
8
 71
3
 72
8
 73
4
 74
0
 40
0
 40
0
 40
0
 40
0
 40
1
 40
1
 40
1
 40
1
 10
75.369560
 20
163.394200
 30
0.0
 10
74.524083
 20
163.394015
 30
0.0
 10
73.838814
 20
162.722399
 30
0.0
 10
73.838904
 20
161.894040
 30
0.0
  0
SPLINE
  5
233
100
AcDbEntity
  8
Layer_1
 62
7
100
AcDbSpline
 70
8
 71
3
 72
8
 73
4
 74
0
 40
0
 40
0
 40
0
 40
0
 40
1
 40
1
 40
1
 40
1
 10
73.838904
 20
161.894040
 30
0.0
 10
73.839101
 20
161.065880
 30
0.0
 10
74.524286
 20
160.394574
 30
0.0
 10
75.369560
 20
160.394390
 30
0.0
  0
SPLINE
  5
234
100
AcDbEntity
  8
Layer_1
 62
7
100
AcDbSpline
 70
8
 71
3
 72
8
 73
4
 74
0
 40
0
 40
0
 40
0
 40
0
 40
1
 40
1
 40
1
 40
1
 10
75.369560
 20
160.394390
 30
0.0
 10
76.215036
 20
160.394295
 30
0.0
 10
76.900536
 20
161.065682
 30
0.0
 10
76.900733
 20
161.894040
 30
0.0
  0
SPLINE
  5
235
100
AcDbEntity
  8
Layer_1
 62
7
100
AcDbSpline
 70
8
 71
3
 72
8
 73
4
 74
0
 40
0
 40
0
 40
0
 40
0
 40
1
 40
1
 40
1
 40
1
 10
76.900733
 20
161.894040
 30
0.0
 10
76.900776
 20
162.291922
 30
0.0
 10
76.739470
 20
162.673520
 30
0.0
 10
76.452310
 20
162.954865
 30
0.0
  0
SPLINE
  5
236
100
AcDbEntity
  8
Layer_1
 62
7
100
AcDbSpline
 70
8
 71
3
 72
8
 73
4
 74
0
 40
0
 40
0
 40
0
 40
0
 40
1
 40
1
 40
1
 40
1
 10
76.452310
 20
162.954865
 30
0.0
 10
76.165149
 20
163.236209
 30
0.0
 10
75.775664
 20
163.394246
 30
0.0
 10
75.369560
 20
163.394200
 30
0.0
  0
LWPOLYLINE
  5
237
100
AcDbEntity
  8
Layer_1
 62
7
100
AcDbPolyline
 90
1
 70
1
 10
80.141360
 20
163.394200
 30
0.0
  0
SPLINE
  5
238
100
AcDbEntity
  8
Layer_1
 62
7
100
AcDbSpline
 70
8
 71
3
 72
8
 73
4
 74
0
 40
0
 40
0
 40
0
 40
0
 40
1
 40
1
 40
1
 40
1
 10
94.504824
 20
167.640920
 30
0.0
 10
94.328156
 20
167.640950
 30
0.0
 10
94.158714
 20
167.568440
 30
0.0
 10
94.033789
 20
167.439347
 30
0.0
  0
SPLINE
  5
239
100
AcDbEntity
  8
Layer_1
 62
7
100
AcDbSpline
 70
8
 71
3
 72
8
 73
4
 74
0
 40
0
 40
0
 40
0
 40
0
 40
1
 40
1
 40
1
 40
1
 10
94.033789
 20
167.439347
 30
0.0
 10
93.908864
 20
167.310254
 30
0.0
 10
93.838693
 20
167.135157
 30
0.0
 10
93.838717
 20
166.952590
 30
0.0
  0
SPLINE
  5
23a
100
AcDbEntity
  8
Layer_1
 62
7
100
AcDbSpline
 70
8
 71
3
 72
8
 73
4
 74
0
 40
0
 40
0
 40
0
 40
0
 40
1
 40
1
 40
1
 40
1
 10
93.838717
 20
166.952590
 30
0.0
 10
93.838693
 20
166.770023
 30
0.0
 10
93.908864
 20
166.594926
 30
0.0
 10
94.033789
 20
166.465833
 30
0.0
  0
SPLINE
  5
23b
100
AcDbEntity
  8
Layer_1
 62
7
100
AcDbSpline
 70
8
 71
3
 72
8
 73
4
 74
0
 40
0
 40
0
 40
0
 40
0
 40
1
 40
1
 40
1
 40
1
 10
94.033789
 20
166.465833
 30
0.0
 10
94.158714
 20
166.336740
 30
0.0
 10
94.328156
 20
166.264230
 30
0.0
 10
94.504824
 20
166.264260
 30
0.0
  0
SPLINE
  5
23c
100
AcDbEntity
  8
Layer_1
 62
7
100
AcDbSpline
 70
8
 71
3
 72
8
 73
4
 74
0
 40
0
 40
0
 40
0
 40
0
 40
1
 40
1
 40
1
 40
1
 10
94.504824
 20
166.264260
 30
0.0
 10
94.681493
 20
166.264229
 30
0.0
 10
94.850935
 20
166.336739
 30
0.0
 10
94.975861
 20
166.465832
 30
0.0
  0
SPLINE
  5
23d
100
AcDbEntity
  8
Layer_1
 62
7
100
AcDbSpline
 70
8
 71
3
 72
8
 73
4
 74
0
 40
0
 40
0
 40
0
 40
0
 40
1
 40
1
 40
1
 40
1
 10
94.975861
 20
166.465832
 30
0.0
 10
95.100786
 20
166.594925
 30
0.0
 10
95.170958
 20
166.770022
 30
0.0
 10
95.170934
 20
166.952590
 30
0.0
  0
SPLINE
  5
23e
100
AcDbEntity
  8
Layer_1
 62
7
100
AcDbSpline
 70
8
 71
3
 72
8
 73
4
 74
0
 40
0
 40
0
 40
0
 40
0
 40
1
 40
1
 40
1
 40
1
 10
95.170934
 20
166.952590
 30
0.0
 10
95.170958
 20
167.135158
 30
0.0
 10
95.100786
 20
167.310255
 30
0.0
 10
94.975861
 20
167.439348
 30
0.0
  0
SPLINE
  5
23f
100
AcDbEntity
  8
Layer_1
 62
7
100
AcDbSpline
 70
8
 71
3
 72
8
 73
4
 74
0
 40
0
 40
0
 40
0
 40
0
 40
1
 40
1
 40
1
 40
1
 10
94.975861
 20
167.439348
 30
0.0
 10
94.850935
 20
167.568441
 30
0.0
 10
94.681493
 20
167.640951
 30
0.0
 10
94.504824
 20
167.640920
 30
0.0
  0
LWPOLYLINE
  5
240
100
AcDbEntity
  8
Layer_1
 62
7
100
AcDbPolyline
 90
1
 70
1
 10
75.369560
 20
163.394200
 30
0.0
  0
SPLINE
  5
241
100
AcDbEntity
  8
Layer_1
 62
7
100
AcDbSpline
 70
8
 71
3
 72
8
 73
4
 74
0
 40
0
 40
0
 40
0
 40
0
 40
1
 40
1
 40
1
 40
1
 10
70.639099
 20
167.713320
 30
0.0
 10
70.212402
 20
167.713175
 30
0.0
 10
69.866563
 20
167.355076
 30
0.0
 10
69.866536
 20
166.913370
 30
0.0
  0
SPLINE
  5
242
100
AcDbEntity
  8
Layer_1
 62
7
100
AcDbSpline
 70
8
 71
3
 72
8
 73
4
 74
0
 40
0
 40
0
 40
0
 40
0
 40
1
 40
1
 40
1
 40
1
 10
69.866536
 20
166.913370
 30
0.0
 10
69.866416
 20
166.701161
 30
0.0
 10
69.947749
 20
166.497597
 30
0.0
 10
70.092638
 20
166.347474
 30
0.0
  0
SPLINE
  5
243
100
AcDbEntity
  8
Layer_1
 62
7
100
AcDbSpline
 70
8
 71
3
 72
8
 73
4
 74
0
 40
0
 40
0
 40
0
 40
0
 40
1
 40
1
 40
1
 40
1
 10
70.092638
 20
166.347474
 30
0.0
 10
70.237528
 20
166.197350
 30
0.0
 10
70.434101
 20
166.112970
 30
0.0
 10
70.639099
 20
166.112900
 30
0.0
  0
SPLINE
  5
244
100
AcDbEntity
  8
Layer_1
 62
7
100
AcDbSpline
 70
8
 71
3
 72
8
 73
4
 74
0
 40
0
 40
0
 40
0
 40
0
 40
1
 40
1
 40
1
 40
1
 10
70.639099
 20
166.112900
 30
0.0
 10
70.844187
 20
166.112828
 30
0.0
 10
71.040892
 20
166.197146
 30
0.0
 10
71.185893
 20
166.347285
 30
0.0
  0
SPLINE
  5
245
100
AcDbEntity
  8
Layer_1
 62
7
100
AcDbSpline
 70
8
 71
3
 72
8
 73
4
 74
0
 40
0
 40
0
 40
0
 40
0
 40
1
 40
1
 40
1
 40
1
 10
71.185893
 20
166.347285
 30
0.0
 10
71.330894
 20
166.497423
 30
0.0
 10
71.412299
 20
166.701068
 30
0.0
 10
71.412178
 20
166.913370
 30
0.0
  0
SPLINE
  5
246
100
AcDbEntity
  8
Layer_1
 62
7
100
AcDbSpline
 70
8
 71
3
 72
8
 73
4
 74
0
 40
0
 40
0
 40
0
 40
0
 40
1
 40
1
 40
1
 40
1
 10
71.412178
 20
166.913370
 30
0.0
 10
71.412165
 20
167.125582
 30
0.0
 10
71.330702
 20
167.329093
 30
0.0
 10
71.185715
 20
167.479119
 30
0.0
  0
SPLINE
  5
247
100
AcDbEntity
  8
Layer_1
 62
7
100
AcDbSpline
 70
8
 71
3
 72
8
 73
4
 74
0
 40
0
 40
0
 40
0
 40
0
 40
1
 40
1
 40
1
 40
1
 10
71.185715
 20
167.479119
 30
0.0
 10
71.040729
 20
167.629145
 30
0.0
 10
70.844100
 20
167.713392
 30
0.0
 10
70.639099
 20
167.713320
 30
0.0
  0
LWPOLYLINE
  5
248
100
AcDbEntity
  8
Layer_1
 62
7
100
AcDbPolyline
 90
1
 70
1
 10
94.504824
 20
167.640920
 30
0.0
  0
SPLINE
  5
249
100
AcDbEntity
  8
Layer_1
 62
7
100
AcDbSpline
 70
8
 71
3
 72
8
 73
4
 74
0
 40
0
 40
0
 40
0
 40
0
 40
1
 40
1
 40
1
 40
1
 10
89.687032
 20
168.166010
 30
0.0
 10
88.858620
 20
168.165924
 30
0.0
 10
88.187053
 20
167.494584
 30
0.0
 10
88.186865
 20
166.666350
 30
0.0
  0
SPLINE
  5
24a
100
AcDbEntity
  8
Layer_1
 62
7
100
AcDbSpline
 70
8
 71
3
 72
8
 73
4
 74
0
 40
0
 40
0
 40
0
 40
0
 40
1
 40
1
 40
1
 40
1
 10
88.186865
 20
166.666350
 30
0.0
 10
88.186823
 20
166.268525
 30
0.0
 10
88.344852
 20
165.886976
 30
0.0
 10
88.626188
 20
165.605641
 30
0.0
  0
SPLINE
  5
24b
100
AcDbEntity
  8
Layer_1
 62
7
100
AcDbSpline
 70
8
 71
3
 72
8
 73
4
 74
0
 40
0
 40
0
 40
0
 40
0
 40
1
 40
1
 40
1
 40
1
 10
88.626188
 20
165.605641
 30
0.0
 10
88.907524
 20
165.324307
 30
0.0
 10
89.289121
 20
165.166231
 30
0.0
 10
89.687032
 20
165.166190
 30
0.0
  0
SPLINE
  5
24c
100
AcDbEntity
  8
Layer_1
 62
7
100
AcDbSpline
 70
8
 71
3
 72
8
 73
4
 74
0
 40
0
 40
0
 40
0
 40
0
 40
1
 40
1
 40
1
 40
1
 10
89.687032
 20
165.166190
 30
0.0
 10
90.085032
 20
165.166095
 30
0.0
 10
90.466762
 20
165.324110
 30
0.0
 10
90.748209
 20
165.605459
 30
0.0
  0
SPLINE
  5
24d
100
AcDbEntity
  8
Layer_1
 62
7
100
AcDbSpline
 70
8
 71
3
 72
8
 73
4
 74
0
 40
0
 40
0
 40
0
 40
0
 40
1
 40
1
 40
1
 40
1
 10
90.748209
 20
165.605459
 30
0.0
 10
91.029657
 20
165.886809
 30
0.0
 10
91.187756
 20
166.268435
 30
0.0
 10
91.187714
 20
166.666350
 30
0.0
  0
SPLINE
  5
24e
100
AcDbEntity
  8
Layer_1
 62
7
100
AcDbSpline
 70
8
 71
3
 72
8
 73
4
 74
0
 40
0
 40
0
 40
0
 40
0
 40
1
 40
1
 40
1
 40
1
 10
91.187714
 20
166.666350
 30
0.0
 10
91.187624
 20
167.064178
 30
0.0
 10
91.029465
 20
167.445676
 30
0.0
 10
90.748032
 20
167.726917
 30
0.0
  0
SPLINE
  5
24f
100
AcDbEntity
  8
Layer_1
 62
7
100
AcDbSpline
 70
8
 71
3
 72
8
 73
4
 74
0
 40
0
 40
0
 40
0
 40
0
 40
1
 40
1
 40
1
 40
1
 10
90.748032
 20
167.726917
 30
0.0
 10
90.466599
 20
168.008159
 30
0.0
 10
90.084946
 20
168.166105
 30
0.0
 10
89.687032
 20
168.166010
 30
0.0
  0
LWPOLYLINE
  5
250
100
AcDbEntity
  8
Layer_1
 62
7
100
AcDbPolyline
 90
1
 70
1
 10
70.639099
 20
167.713320
 30
0.0
  0
SPLINE
  5
251
100
AcDbEntity
  8
Layer_1
 62
7
100
AcDbSpline
 70
8
 71
3
 72
8
 73
4
 74
0
 40
0
 40
0
 40
0
 40
0
 40
1
 40
1
 40
1
 40
1
 10
84.912647
 20
168.166010
 30
0.0
 10
84.059415
 20
168.165948
 30
0.0
 10
83.367713
 20
167.494600
 30
0.0
 10
83.367520
 20
166.666350
 30
0.0
  0
SPLINE
  5
252
100
AcDbEntity
  8
Layer_1
 62
7
100
AcDbSpline
 70
8
 71
3
 72
8
 73
4
 74
0
 40
0
 40
0
 40
0
 40
0
 40
1
 40
1
 40
1
 40
1
 10
83.367520
 20
166.666350
 30
0.0
 10
83.367476
 20
166.268517
 30
0.0
 10
83.530243
 20
165.886962
 30
0.0
 10
83.820012
 20
165.605626
 30
0.0
  0
SPLINE
  5
253
100
AcDbEntity
  8
Layer_1
 62
7
100
AcDbSpline
 70
8
 71
3
 72
8
 73
4
 74
0
 40
0
 40
0
 40
0
 40
0
 40
1
 40
1
 40
1
 40
1
 10
83.820012
 20
165.605626
 30
0.0
 10
84.109781
 20
165.324290
 30
0.0
 10
84.502815
 20
165.166220
 30
0.0
 10
84.912647
 20
165.166190
 30
0.0
  0
SPLINE
  5
254
100
AcDbEntity
  8
Layer_1
 62
7
100
AcDbSpline
 70
8
 71
3
 72
8
 73
4
 74
0
 40
0
 40
0
 40
0
 40
0
 40
1
 40
1
 40
1
 40
1
 10
84.912647
 20
165.166190
 30
0.0
 10
85.322479
 20
165.166221
 30
0.0
 10
85.715512
 20
165.324292
 30
0.0
 10
86.005280
 20
165.605627
 30
0.0
  0
SPLINE
  5
255
100
AcDbEntity
  8
Layer_1
 62
7
100
AcDbSpline
 70
8
 71
3
 72
8
 73
4
 74
0
 40
0
 40
0
 40
0
 40
0
 40
1
 40
1
 40
1
 40
1
 10
86.005280
 20
165.605627
 30
0.0
 10
86.295048
 20
165.886963
 30
0.0
 10
86.457815
 20
166.268518
 30
0.0
 10
86.457771
 20
166.666350
 30
0.0
  0
SPLINE
  5
256
100
AcDbEntity
  8
Layer_1
 62
7
100
AcDbSpline
 70
8
 71
3
 72
8
 73
4
 74
0
 40
0
 40
0
 40
0
 40
0
 40
1
 40
1
 40
1
 40
1
 10
86.457771
 20
166.666350
 30
0.0
 10
86.457578
 20
167.494599
 30
0.0
 10
85.765878
 20
168.165946
 30
0.0
 10
84.912647
 20
168.166010
 30
0.0
  0
LWPOLYLINE
  5
257
100
AcDbEntity
  8
Layer_1
 62
7
100
AcDbPolyline
 90
1
 70
1
 10
89.687032
 20
168.166010
 30
0.0
  0
SPLINE
  5
258
100
AcDbEntity
  8
Layer_1
 62
7
100
AcDbSpline
 70
8
 71
3
 72
8
 73
4
 74
0
 40
0
 40
0
 40
0
 40
0
 40
1
 40
1
 40
1
 40
1
 10
80.141879
 20
168.166010
 30
0.0
 10
79.299815
 20
168.166073
 30
0.0
 10
78.617099
 20
167.494689
 30
0.0
 10
78.616908
 20
166.666350
 30
0.0
  0
SPLINE
  5
259
100
AcDbEntity
  8
Layer_1
 62
7
100
AcDbSpline
 70
8
 71
3
 72
8
 73
4
 74
0
 40
0
 40
0
 40
0
 40
0
 40
1
 40
1
 40
1
 40
1
 10
78.616908
 20
166.666350
 30
0.0
 10
78.616865
 20
166.268478
 30
0.0
 10
78.777516
 20
165.886888
 30
0.0
 10
79.063511
 20
165.605546
 30
0.0
  0
SPLINE
  5
25a
100
AcDbEntity
  8
Layer_1
 62
7
100
AcDbSpline
 70
8
 71
3
 72
8
 73
4
 74
0
 40
0
 40
0
 40
0
 40
0
 40
1
 40
1
 40
1
 40
1
 10
79.063511
 20
165.605546
 30
0.0
 10
79.349507
 20
165.324204
 30
0.0
 10
79.737414
 20
165.166160
 30
0.0
 10
80.141879
 20
165.166190
 30
0.0
  0
SPLINE
  5
25b
100
AcDbEntity
  8
Layer_1
 62
7
100
AcDbSpline
 70
8
 71
3
 72
8
 73
4
 74
0
 40
0
 40
0
 40
0
 40
0
 40
1
 40
1
 40
1
 40
1
 10
80.141879
 20
165.166190
 30
0.0
 10
80.546344
 20
165.166160
 30
0.0
 10
80.934251
 20
165.324204
 30
0.0
 10
81.220247
 20
165.605546
 30
0.0
  0
SPLINE
  5
25c
100
AcDbEntity
  8
Layer_1
 62
7
100
AcDbSpline
 70
8
 71
3
 72
8
 73
4
 74
0
 40
0
 40
0
 40
0
 40
0
 40
1
 40
1
 40
1
 40
1
 10
81.220247
 20
165.605546
 30
0.0
 10
81.506242
 20
165.886888
 30
0.0
 10
81.666893
 20
166.268478
 30
0.0
 10
81.666850
 20
166.666350
 30
0.0
  0
SPLINE
  5
25d
100
AcDbEntity
  8
Layer_1
 62
7
100
AcDbSpline
 70
8
 71
3
 72
8
 73
4
 74
0
 40
0
 40
0
 40
0
 40
0
 40
1
 40
1
 40
1
 40
1
 10
81.666850
 20
166.666350
 30
0.0
 10
81.666659
 20
167.494689
 30
0.0
 10
80.983943
 20
168.166073
 30
0.0
 10
80.141879
 20
168.166010
 30
0.0
  0
LWPOLYLINE
  5
25e
100
AcDbEntity
  8
Layer_1
 62
7
100
AcDbPolyline
 90
1
 70
1
 10
84.912647
 20
168.166010
 30
0.0
  0
SPLINE
  5
25f
100
AcDbEntity
  8
Layer_1
 62
7
100
AcDbSpline
 70
8
 71
3
 72
8
 73
4
 74
0
 40
0
 40
0
 40
0
 40
0
 40
1
 40
1
 40
1
 40
1
 10
75.370076
 20
168.166010
 30
0.0
 10
74.529122
 20
168.165971
 30
0.0
 10
73.847363
 20
167.494616
 30
0.0
 10
73.847172
 20
166.666350
 30
0.0
  0
SPLINE
  5
260
100
AcDbEntity
  8
Layer_1
 62
7
100
AcDbSpline
 70
8
 71
3
 72
8
 73
4
 74
0
 40
0
 40
0
 40
0
 40
0
 40
1
 40
1
 40
1
 40
1
 10
73.847172
 20
166.666350
 30
0.0
 10
73.847129
 20
166.268510
 30
0.0
 10
74.007556
 20
165.886949
 30
0.0
 10
74.293158
 20
165.605612
 30
0.0
  0
SPLINE
  5
261
100
AcDbEntity
  8
Layer_1
 62
7
100
AcDbSpline
 70
8
 71
3
 72
8
 73
4
 74
0
 40
0
 40
0
 40
0
 40
0
 40
1
 40
1
 40
1
 40
1
 10
74.293158
 20
165.605612
 30
0.0
 10
74.578761
 20
165.324275
 30
0.0
 10
74.966142
 20
165.166209
 30
0.0
 10
75.370076
 20
165.166190
 30
0.0
  0
SPLINE
  5
262
100
AcDbEntity
  8
Layer_1
 62
7
100
AcDbSpline
 70
8
 71
3
 72
8
 73
4
 74
0
 40
0
 40
0
 40
0
 40
0
 40
1
 40
1
 40
1
 40
1
 10
75.370076
 20
165.166190
 30
0.0
 10
75.774010
 20
165.166209
 30
0.0
 10
76.161391
 20
165.324275
 30
0.0
 10
76.446994
 20
165.605612
 30
0.0
  0
SPLINE
  5
263
100
AcDbEntity
  8
Layer_1
 62
7
100
AcDbSpline
 70
8
 71
3
 72
8
 73
4
 74
0
 40
0
 40
0
 40
0
 40
0
 40
1
 40
1
 40
1
 40
1
 10
76.446994
 20
165.605612
 30
0.0
 10
76.732596
 20
165.886949
 30
0.0
 10
76.893023
 20
166.268510
 30
0.0
 10
76.892980
 20
166.666350
 30
0.0
  0
SPLINE
  5
264
100
AcDbEntity
  8
Layer_1
 62
7
100
AcDbSpline
 70
8
 71
3
 72
8
 73
4
 74
0
 40
0
 40
0
 40
0
 40
0
 40
1
 40
1
 40
1
 40
1
 10
76.892980
 20
166.666350
 30
0.0
 10
76.892789
 20
167.494616
 30
0.0
 10
76.211030
 20
168.165971
 30
0.0
 10
75.370076
 20
168.166010
 30
0.0
  0
LWPOLYLINE
  5
265
100
AcDbEntity
  8
Layer_1
 62
7
100
AcDbPolyline
 90
1
 70
1
 10
80.141879
 20
168.166010
 30
0.0
  0
SPLINE
  5
266
100
AcDbEntity
  8
Layer_1
 62
7
100
AcDbSpline
 70
8
 71
3
 72
8
 73
4
 74
0
 40
0
 40
0
 40
0
 40
0
 40
1
 40
1
 40
1
 40
1
 10
94.506375
 20
172.374530
 30
0.0
 10
94.155596
 20
172.374470
 30
0.0
 10
93.871267
 20
172.092686
 30
0.0
 10
93.871272
 20
171.745110
 30
0.0
  0
SPLINE
  5
267
100
AcDbEntity
  8
Layer_1
 62
7
100
AcDbSpline
 70
8
 71
3
 72
8
 73
4
 74
0
 40
0
 40
0
 40
0
 40
0
 40
1
 40
1
 40
1
 40
1
 10
93.871272
 20
171.745110
 30
0.0
 10
93.871273
 20
171.397538
 30
0.0
 10
94.155600
 20
171.115760
 30
0.0
 10
94.506375
 20
171.115700
 30
0.0
  0
SPLINE
  5
268
100
AcDbEntity
  8
Layer_1
 62
7
100
AcDbSpline
 70
8
 71
3
 72
8
 73
4
 74
0
 40
0
 40
0
 40
0
 40
0
 40
1
 40
1
 40
1
 40
1
 10
94.506375
 20
171.115700
 30
0.0
 10
94.857150
 20
171.115760
 30
0.0
 10
95.141477
 20
171.397538
 30
0.0
 10
95.141478
 20
171.745110
 30
0.0
  0
SPLINE
  5
269
100
AcDbEntity
  8
Layer_1
 62
7
100
AcDbSpline
 70
8
 71
3
 72
8
 73
4
 74
0
 40
0
 40
0
 40
0
 40
0
 40
1
 40
1
 40
1
 40
1
 10
95.141478
 20
171.745110
 30
0.0
 10
95.141483
 20
172.092686
 30
0.0
 10
94.857154
 20
172.374470
 30
0.0
 10
94.506375
 20
172.374530
 30
0.0
  0
LWPOLYLINE
  5
26a
100
AcDbEntity
  8
Layer_1
 62
7
100
AcDbPolyline
 90
1
 70
1
 10
75.370076
 20
168.166010
 30
0.0
  0
SPLINE
  5
26b
100
AcDbEntity
  8
Layer_1
 62
7
100
AcDbSpline
 70
8
 71
3
 72
8
 73
4
 74
0
 40
0
 40
0
 40
0
 40
0
 40
1
 40
1
 40
1
 40
1
 10
70.635998
 20
172.504240
 30
0.0
 10
70.178448
 20
172.504045
 30
0.0
 10
69.807631
 20
172.132769
 30
0.0
 10
69.807625
 20
171.674840
 30
0.0
  0
SPLINE
  5
26c
100
AcDbEntity
  8
Layer_1
 62
7
100
AcDbSpline
 70
8
 71
3
 72
8
 73
4
 74
0
 40
0
 40
0
 40
0
 40
0
 40
1
 40
1
 40
1
 40
1
 10
69.807625
 20
171.674840
 30
0.0
 10
69.807626
 20
171.216907
 30
0.0
 10
70.178444
 20
170.845625
 30
0.0
 10
70.635998
 20
170.845430
 30
0.0
  0
SPLINE
  5
26d
100
AcDbEntity
  8
Layer_1
 62
7
100
AcDbSpline
 70
8
 71
3
 72
8
 73
4
 74
0
 40
0
 40
0
 40
0
 40
0
 40
1
 40
1
 40
1
 40
1
 10
70.635998
 20
170.845430
 30
0.0
 10
70.855818
 20
170.845387
 30
0.0
 10
71.066650
 20
170.932751
 30
0.0
 10
71.222101
 20
171.088301
 30
0.0
  0
SPLINE
  5
26e
100
AcDbEntity
  8
Layer_1
 62
7
100
AcDbSpline
 70
8
 71
3
 72
8
 73
4
 74
0
 40
0
 40
0
 40
0
 40
0
 40
1
 40
1
 40
1
 40
1
 10
71.222101
 20
171.088301
 30
0.0
 10
71.377553
 20
171.243850
 30
0.0
 10
71.464888
 20
171.454838
 30
0.0
 10
71.464888
 20
171.674840
 30
0.0
  0
SPLINE
  5
26f
100
AcDbEntity
  8
Layer_1
 62
7
100
AcDbSpline
 70
8
 71
3
 72
8
 73
4
 74
0
 40
0
 40
0
 40
0
 40
0
 40
1
 40
1
 40
1
 40
1
 10
71.464888
 20
171.674840
 30
0.0
 10
71.464885
 20
171.894840
 30
0.0
 10
71.377549
 20
172.105826
 30
0.0
 10
71.222098
 20
172.261373
 30
0.0
  0
SPLINE
  5
270
100
AcDbEntity
  8
Layer_1
 62
7
100
AcDbSpline
 70
8
 71
3
 72
8
 73
4
 74
0
 40
0
 40
0
 40
0
 40
0
 40
1
 40
1
 40
1
 40
1
 10
71.222098
 20
172.261373
 30
0.0
 10
71.066646
 20
172.416920
 30
0.0
 10
70.855816
 20
172.504283
 30
0.0
 10
70.635998
 20
172.504240
 30
0.0
  0
LWPOLYLINE
  5
271
100
AcDbEntity
  8
Layer_1
 62
7
100
AcDbPolyline
 90
1
 70
1
 10
94.506375
 20
172.374530
 30
0.0
  0
SPLINE
  5
272
100
AcDbEntity
  8
Layer_1
 62
7
100
AcDbSpline
 70
8
 71
3
 72
8
 73
4
 74
0
 40
0
 40
0
 40
0
 40
0
 40
1
 40
1
 40
1
 40
1
 10
89.686516
 20
172.938320
 30
0.0
 10
89.285338
 20
172.938345
 30
0.0
 10
88.900585
 20
172.780299
 30
0.0
 10
88.616916
 20
172.498957
 30
0.0
  0
SPLINE
  5
273
100
AcDbEntity
  8
Layer_1
 62
7
100
AcDbSpline
 70
8
 71
3
 72
8
 73
4
 74
0
 40
0
 40
0
 40
0
 40
0
 40
1
 40
1
 40
1
 40
1
 10
88.616916
 20
172.498957
 30
0.0
 10
88.333247
 20
172.217615
 30
0.0
 10
88.173903
 20
171.836029
 30
0.0
 10
88.173946
 20
171.438160
 30
0.0
  0
SPLINE
  5
274
100
AcDbEntity
  8
Layer_1
 62
7
100
AcDbSpline
 70
8
 71
3
 72
8
 73
4
 74
0
 40
0
 40
0
 40
0
 40
0
 40
1
 40
1
 40
1
 40
1
 10
88.173946
 20
171.438160
 30
0.0
 10
88.173901
 20
171.040290
 30
0.0
 10
88.333243
 20
170.658701
 30
0.0
 10
88.616913
 20
170.377357
 30
0.0
  0
SPLINE
  5
275
100
AcDbEntity
  8
Layer_1
 62
7
100
AcDbSpline
 70
8
 71
3
 72
8
 73
4
 74
0
 40
0
 40
0
 40
0
 40
0
 40
1
 40
1
 40
1
 40
1
 10
88.616913
 20
170.377357
 30
0.0
 10
88.900582
 20
170.096013
 30
0.0
 10
89.285336
 20
169.937965
 30
0.0
 10
89.686516
 20
169.937990
 30
0.0
  0
SPLINE
  5
276
100
AcDbEntity
  8
Layer_1
 62
7
100
AcDbSpline
 70
8
 71
3
 72
8
 73
4
 74
0
 40
0
 40
0
 40
0
 40
0
 40
1
 40
1
 40
1
 40
1
 10
89.686516
 20
169.937990
 30
0.0
 10
90.087695
 20
169.937966
 30
0.0
 10
90.472449
 20
170.096014
 30
0.0
 10
90.756117
 20
170.377358
 30
0.0
  0
SPLINE
  5
277
100
AcDbEntity
  8
Layer_1
 62
7
100
AcDbSpline
 70
8
 71
3
 72
8
 73
4
 74
0
 40
0
 40
0
 40
0
 40
0
 40
1
 40
1
 40
1
 40
1
 10
90.756117
 20
170.377358
 30
0.0
 10
91.039786
 20
170.658702
 30
0.0
 10
91.199128
 20
171.040290
 30
0.0
 10
91.199083
 20
171.438160
 30
0.0
  0
SPLINE
  5
278
100
AcDbEntity
  8
Layer_1
 62
7
100
AcDbSpline
 70
8
 71
3
 72
8
 73
4
 74
0
 40
0
 40
0
 40
0
 40
0
 40
1
 40
1
 40
1
 40
1
 10
91.199083
 20
171.438160
 30
0.0
 10
91.199126
 20
171.836028
 30
0.0
 10
91.039782
 20
172.217614
 30
0.0
 10
90.756114
 20
172.498956
 30
0.0
  0
SPLINE
  5
279
100
AcDbEntity
  8
Layer_1
 62
7
100
AcDbSpline
 70
8
 71
3
 72
8
 73
4
 74
0
 40
0
 40
0
 40
0
 40
0
 40
1
 40
1
 40
1
 40
1
 10
90.756114
 20
172.498956
 30
0.0
 10
90.472445
 20
172.780297
 30
0.0
 10
90.087693
 20
172.938344
 30
0.0
 10
89.686516
 20
172.938320
 30
0.0
  0
LWPOLYLINE
  5
27a
100
AcDbEntity
  8
Layer_1
 62
7
100
AcDbPolyline
 90
1
 70
1
 10
70.635998
 20
172.504240
 30
0.0
  0
SPLINE
  5
27b
100
AcDbEntity
  8
Layer_1
 62
7
100
AcDbSpline
 70
8
 71
3
 72
8
 73
4
 74
0
 40
0
 40
0
 40
0
 40
0
 40
1
 40
1
 40
1
 40
1
 10
84.915229
 20
172.938320
 30
0.0
 10
84.517729
 20
172.938279
 30
0.0
 10
84.136527
 20
172.780203
 30
0.0
 10
83.855482
 20
172.498869
 30
0.0
  0
SPLINE
  5
27c
100
AcDbEntity
  8
Layer_1
 62
7
100
AcDbSpline
 70
8
 71
3
 72
8
 73
4
 74
0
 40
0
 40
0
 40
0
 40
0
 40
1
 40
1
 40
1
 40
1
 10
83.855482
 20
172.498869
 30
0.0
 10
83.574436
 20
172.217534
 30
0.0
 10
83.416571
 20
171.835986
 30
0.0
 10
83.416613
 20
171.438160
 30
0.0
  0
SPLINE
  5
27d
100
AcDbEntity
  8
Layer_1
 62
7
100
AcDbSpline
 70
8
 71
3
 72
8
 73
4
 74
0
 40
0
 40
0
 40
0
 40
0
 40
1
 40
1
 40
1
 40
1
 10
83.416613
 20
171.438160
 30
0.0
 10
83.416568
 20
171.040333
 30
0.0
 10
83.574433
 20
170.658782
 30
0.0
 10
83.855478
 20
170.377445
 30
0.0
  0
SPLINE
  5
27e
100
AcDbEntity
  8
Layer_1
 62
7
100
AcDbSpline
 70
8
 71
3
 72
8
 73
4
 74
0
 40
0
 40
0
 40
0
 40
0
 40
1
 40
1
 40
1
 40
1
 10
83.855478
 20
170.377445
 30
0.0
 10
84.136523
 20
170.096108
 30
0.0
 10
84.517728
 20
169.938031
 30
0.0
 10
84.915229
 20
169.937990
 30
0.0
  0
SPLINE
  5
27f
100
AcDbEntity
  8
Layer_1
 62
7
100
AcDbSpline
 70
8
 71
3
 72
8
 73
4
 74
0
 40
0
 40
0
 40
0
 40
0
 40
1
 40
1
 40
1
 40
1
 10
84.915229
 20
169.937990
 30
0.0
 10
85.312731
 20
169.938030
 30
0.0
 10
85.693936
 20
170.096107
 30
0.0
 10
85.974982
 20
170.377444
 30
0.0
  0
SPLINE
  5
280
100
AcDbEntity
  8
Layer_1
 62
7
100
AcDbSpline
 70
8
 71
3
 72
8
 73
4
 74
0
 40
0
 40
0
 40
0
 40
0
 40
1
 40
1
 40
1
 40
1
 10
85.974982
 20
170.377444
 30
0.0
 10
86.256028
 20
170.658781
 30
0.0
 10
86.413893
 20
171.040332
 30
0.0
 10
86.413848
 20
171.438160
 30
0.0
  0
SPLINE
  5
281
100
AcDbEntity
  8
Layer_1
 62
7
100
AcDbSpline
 70
8
 71
3
 72
8
 73
4
 74
0
 40
0
 40
0
 40
0
 40
0
 40
1
 40
1
 40
1
 40
1
 10
86.413848
 20
171.438160
 30
0.0
 10
86.413890
 20
171.835986
 30
0.0
 10
86.256024
 20
172.217535
 30
0.0
 10
85.974978
 20
172.498870
 30
0.0
  0
SPLINE
  5
282
100
AcDbEntity
  8
Layer_1
 62
7
100
AcDbSpline
 70
8
 71
3
 72
8
 73
4
 74
0
 40
0
 40
0
 40
0
 40
0
 40
1
 40
1
 40
1
 40
1
 10
85.974978
 20
172.498870
 30
0.0
 10
85.693933
 20
172.780205
 30
0.0
 10
85.312729
 20
172.938280
 30
0.0
 10
84.915229
 20
172.938320
 30
0.0
  0
LWPOLYLINE
  5
283
100
AcDbEntity
  8
Layer_1
 62
7
100
AcDbPolyline
 90
1
 70
1
 10
89.686516
 20
172.938320
 30
0.0
  0
SPLINE
  5
284
100
AcDbEntity
  8
Layer_1
 62
7
100
AcDbSpline
 70
8
 71
3
 72
8
 73
4
 74
0
 40
0
 40
0
 40
0
 40
0
 40
1
 40
1
 40
1
 40
1
 10
80.142910
 20
172.938320
 30
0.0
 10
79.743085
 20
172.938292
 30
0.0
 10
79.359648
 20
172.780222
 30
0.0
 10
79.076954
 20
172.498886
 30
0.0
  0
SPLINE
  5
285
100
AcDbEntity
  8
Layer_1
 62
7
100
AcDbSpline
 70
8
 71
3
 72
8
 73
4
 74
0
 40
0
 40
0
 40
0
 40
0
 40
1
 40
1
 40
1
 40
1
 10
79.076954
 20
172.498886
 30
0.0
 10
78.794260
 20
172.217550
 30
0.0
 10
78.635467
 20
171.835994
 30
0.0
 10
78.635510
 20
171.438160
 30
0.0
  0
SPLINE
  5
286
100
AcDbEntity
  8
Layer_1
 62
7
100
AcDbSpline
 70
8
 71
3
 72
8
 73
4
 74
0
 40
0
 40
0
 40
0
 40
0
 40
1
 40
1
 40
1
 40
1
 10
78.635510
 20
171.438160
 30
0.0
 10
78.635465
 20
171.040324
 30
0.0
 10
78.794256
 20
170.658766
 30
0.0
 10
79.076950
 20
170.377428
 30
0.0
  0
SPLINE
  5
287
100
AcDbEntity
  8
Layer_1
 62
7
100
AcDbSpline
 70
8
 71
3
 72
8
 73
4
 74
0
 40
0
 40
0
 40
0
 40
0
 40
1
 40
1
 40
1
 40
1
 10
79.076950
 20
170.377428
 30
0.0
 10
79.359644
 20
170.096089
 30
0.0
 10
79.743083
 20
169.938018
 30
0.0
 10
80.142910
 20
169.937990
 30
0.0
  0
SPLINE
  5
288
100
AcDbEntity
  8
Layer_1
 62
7
100
AcDbSpline
 70
8
 71
3
 72
8
 73
4
 74
0
 40
0
 40
0
 40
0
 40
0
 40
1
 40
1
 40
1
 40
1
 10
80.142910
 20
169.937990
 30
0.0
 10
80.542737
 20
169.938018
 30
0.0
 10
80.926177
 20
170.096088
 30
0.0
 10
81.208872
 20
170.377427
 30
0.0
  0
SPLINE
  5
289
100
AcDbEntity
  8
Layer_1
 62
7
100
AcDbSpline
 70
8
 71
3
 72
8
 73
4
 74
0
 40
0
 40
0
 40
0
 40
0
 40
1
 40
1
 40
1
 40
1
 10
81.208872
 20
170.377427
 30
0.0
 10
81.491566
 20
170.658765
 30
0.0
 10
81.650358
 20
171.040324
 30
0.0
 10
81.650313
 20
171.438160
 30
0.0
  0
SPLINE
  5
28a
100
AcDbEntity
  8
Layer_1
 62
7
100
AcDbSpline
 70
8
 71
3
 72
8
 73
4
 74
0
 40
0
 40
0
 40
0
 40
0
 40
1
 40
1
 40
1
 40
1
 10
81.650313
 20
171.438160
 30
0.0
 10
81.650356
 20
171.835994
 30
0.0
 10
81.491563
 20
172.217551
 30
0.0
 10
81.208868
 20
172.498887
 30
0.0
  0
SPLINE
  5
28b
100
AcDbEntity
  8
Layer_1
 62
7
100
AcDbSpline
 70
8
 71
3
 72
8
 73
4
 74
0
 40
0
 40
0
 40
0
 40
0
 40
1
 40
1
 40
1
 40
1
 10
81.208868
 20
172.498887
 30
0.0
 10
80.926174
 20
172.780223
 30
0.0
 10
80.542736
 20
172.938292
 30
0.0
 10
80.142910
 20
172.938320
 30
0.0
  0
LWPOLYLINE
  5
28c
100
AcDbEntity
  8
Layer_1
 62
7
100
AcDbPolyline
 90
1
 70
1
 10
84.915229
 20
172.938320
 30
0.0
  0
SPLINE
  5
28d
100
AcDbEntity
  8
Layer_1
 62
7
100
AcDbSpline
 70
8
 71
3
 72
8
 73
4
 74
0
 40
0
 40
0
 40
0
 40
0
 40
1
 40
1
 40
1
 40
1
 10
75.374211
 20
172.938320
 30
0.0
 10
74.989496
 20
172.938391
 30
0.0
 10
74.620517
 20
172.780365
 30
0.0
 10
74.348473
 20
172.499018
 30
0.0
  0
SPLINE
  5
28e
100
AcDbEntity
  8
Layer_1
 62
7
100
AcDbSpline
 70
8
 71
3
 72
8
 73
4
 74
0
 40
0
 40
0
 40
0
 40
0
 40
1
 40
1
 40
1
 40
1
 10
74.348473
 20
172.499018
 30
0.0
 10
74.076428
 20
172.217671
 30
0.0
 10
73.923612
 20
171.836059
 30
0.0
 10
73.923653
 20
171.438160
 30
0.0
  0
SPLINE
  5
28f
100
AcDbEntity
  8
Layer_1
 62
7
100
AcDbSpline
 70
8
 71
3
 72
8
 73
4
 74
0
 40
0
 40
0
 40
0
 40
0
 40
1
 40
1
 40
1
 40
1
 10
73.923653
 20
171.438160
 30
0.0
 10
73.923609
 20
171.040259
 30
0.0
 10
74.076425
 20
170.658644
 30
0.0
 10
74.348469
 20
170.377295
 30
0.0
  0
SPLINE
  5
290
100
AcDbEntity
  8
Layer_1
 62
7
100
AcDbSpline
 70
8
 71
3
 72
8
 73
4
 74
0
 40
0
 40
0
 40
0
 40
0
 40
1
 40
1
 40
1
 40
1
 10
74.348469
 20
170.377295
 30
0.0
 10
74.620514
 20
170.095946
 30
0.0
 10
74.989494
 20
169.937919
 30
0.0
 10
75.374211
 20
169.937990
 30
0.0
  0
SPLINE
  5
291
100
AcDbEntity
  8
Layer_1
 62
7
100
AcDbSpline
 70
8
 71
3
 72
8
 73
4
 74
0
 40
0
 40
0
 40
0
 40
0
 40
1
 40
1
 40
1
 40
1
 10
75.374211
 20
169.937990
 30
0.0
 10
76.175152
 20
169.938137
 30
0.0
 10
76.824343
 20
170.609771
 30
0.0
 10
76.824252
 20
171.438160
 30
0.0
  0
SPLINE
  5
292
100
AcDbEntity
  8
Layer_1
 62
7
100
AcDbSpline
 70
8
 71
3
 72
8
 73
4
 74
0
 40
0
 40
0
 40
0
 40
0
 40
1
 40
1
 40
1
 40
1
 10
76.824252
 20
171.438160
 30
0.0
 10
76.824337
 20
172.266545
 30
0.0
 10
76.175149
 20
172.938173
 30
0.0
 10
75.374211
 20
172.938320
 30
0.0
  0
LWPOLYLINE
  5
293
100
AcDbEntity
  8
Layer_1
 62
7
100
AcDbPolyline
 90
1
 70
1
 10
80.142910
 20
172.938320
 30
0.0
  0
SPLINE
  5
294
100
AcDbEntity
  8
Layer_1
 62
7
100
AcDbSpline
 70
8
 71
3
 72
8
 73
4
 74
0
 40
0
 40
0
 40
0
 40
0
 40
1
 40
1
 40
1
 40
1
 10
94.504308
 20
177.161840
 30
0.0
 10
94.133623
 20
177.161662
 30
0.0
 10
93.833179
 20
176.869542
 30
0.0
 10
93.833031
 20
176.509160
 30
0.0
  0
SPLINE
  5
295
100
AcDbEntity
  8
Layer_1
 62
7
100
AcDbSpline
 70
8
 71
3
 72
8
 73
4
 74
0
 40
0
 40
0
 40
0
 40
0
 40
1
 40
1
 40
1
 40
1
 10
93.833031
 20
176.509160
 30
0.0
 10
93.832890
 20
176.148579
 30
0.0
 10
94.133418
 20
175.856148
 30
0.0
 10
94.504308
 20
175.855970
 30
0.0
  0
SPLINE
  5
296
100
AcDbEntity
  8
Layer_1
 62
7
100
AcDbSpline
 70
8
 71
3
 72
8
 73
4
 74
0
 40
0
 40
0
 40
0
 40
0
 40
1
 40
1
 40
1
 40
1
 10
94.504308
 20
175.855970
 30
0.0
 10
94.682506
 20
175.855922
 30
0.0
 10
94.853418
 20
175.924727
 30
0.0
 10
94.979417
 20
176.047237
 30
0.0
  0
SPLINE
  5
297
100
AcDbEntity
  8
Layer_1
 62
7
100
AcDbSpline
 70
8
 71
3
 72
8
 73
4
 74
0
 40
0
 40
0
 40
0
 40
0
 40
1
 40
1
 40
1
 40
1
 10
94.979417
 20
176.047237
 30
0.0
 10
95.105415
 20
176.169746
 30
0.0
 10
95.176169
 20
176.335915
 30
0.0
 10
95.176101
 20
176.509160
 30
0.0
  0
SPLINE
  5
298
100
AcDbEntity
  8
Layer_1
 62
7
100
AcDbSpline
 70
8
 71
3
 72
8
 73
4
 74
0
 40
0
 40
0
 40
0
 40
0
 40
1
 40
1
 40
1
 40
1
 10
95.176101
 20
176.509160
 30
0.0
 10
95.175953
 20
176.869737
 30
0.0
 10
94.875194
 20
177.161939
 30
0.0
 10
94.504308
 20
177.161840
 30
0.0
  0
LWPOLYLINE
  5
299
100
AcDbEntity
  8
Layer_1
 62
7
100
AcDbPolyline
 90
1
 70
1
 10
75.374211
 20
172.938320
 30
0.0
  0
SPLINE
  5
29a
100
AcDbEntity
  8
Layer_1
 62
7
100
AcDbSpline
 70
8
 71
3
 72
8
 73
4
 74
0
 40
0
 40
0
 40
0
 40
0
 40
1
 40
1
 40
1
 40
1
 10
70.637548
 20
177.264670
 30
0.0
 10
70.423224
 20
177.264788
 30
0.0
 10
70.217640
 20
177.179306
 30
0.0
 10
70.066055
 20
177.027044
 30
0.0
  0
SPLINE
  5
29b
100
AcDbEntity
  8
Layer_1
 62
7
100
AcDbSpline
 70
8
 71
3
 72
8
 73
4
 74
0
 40
0
 40
0
 40
0
 40
0
 40
1
 40
1
 40
1
 40
1
 10
70.066055
 20
177.027044
 30
0.0
 10
69.914470
 20
176.874781
 30
0.0
 10
69.829312
 20
176.668222
 30
0.0
 10
69.829329
 20
176.452840
 30
0.0
  0
SPLINE
  5
29c
100
AcDbEntity
  8
Layer_1
 62
7
100
AcDbSpline
 70
8
 71
3
 72
8
 73
4
 74
0
 40
0
 40
0
 40
0
 40
0
 40
1
 40
1
 40
1
 40
1
 10
69.829329
 20
176.452840
 30
0.0
 10
69.829309
 20
176.237457
 30
0.0
 10
69.914466
 20
176.030894
 30
0.0
 10
70.066051
 20
175.878630
 30
0.0
  0
SPLINE
  5
29d
100
AcDbEntity
  8
Layer_1
 62
7
100
AcDbSpline
 70
8
 71
3
 72
8
 73
4
 74
0
 40
0
 40
0
 40
0
 40
0
 40
1
 40
1
 40
1
 40
1
 10
70.066051
 20
175.878630
 30
0.0
 10
70.217636
 20
175.726366
 30
0.0
 10
70.423223
 20
175.640882
 30
0.0
 10
70.637548
 20
175.641000
 30
0.0
  0
SPLINE
  5
29e
100
AcDbEntity
  8
Layer_1
 62
7
100
AcDbSpline
 70
8
 71
3
 72
8
 73
4
 74
0
 40
0
 40
0
 40
0
 40
0
 40
1
 40
1
 40
1
 40
1
 10
70.637548
 20
175.641000
 30
0.0
 10
70.851784
 20
175.641020
 30
0.0
 10
71.057238
 20
175.726564
 30
0.0
 10
71.208711
 20
175.878813
 30
0.0
  0
SPLINE
  5
29f
100
AcDbEntity
  8
Layer_1
 62
7
100
AcDbSpline
 70
8
 71
3
 72
8
 73
4
 74
0
 40
0
 40
0
 40
0
 40
0
 40
1
 40
1
 40
1
 40
1
 10
71.208711
 20
175.878813
 30
0.0
 10
71.360185
 20
176.031063
 30
0.0
 10
71.445271
 20
176.237546
 30
0.0
 10
71.445251
 20
176.452840
 30
0.0
  0
SPLINE
  5
2a0
100
AcDbEntity
  8
Layer_1
 62
7
100
AcDbSpline
 70
8
 71
3
 72
8
 73
4
 74
0
 40
0
 40
0
 40
0
 40
0
 40
1
 40
1
 40
1
 40
1
 10
71.445251
 20
176.452840
 30
0.0
 10
71.445287
 20
176.901162
 30
0.0
 10
71.083667
 20
177.264629
 30
0.0
 10
70.637548
 20
177.264670
 30
0.0
  0
LWPOLYLINE
  5
2a1
100
AcDbEntity
  8
Layer_1
 62
7
100
AcDbPolyline
 90
1
 70
1
 10
94.504308
 20
177.161840
 30
0.0
  0
SPLINE
  5
2a2
100
AcDbEntity
  8
Layer_1
 62
7
100
AcDbSpline
 70
8
 71
3
 72
8
 73
4
 74
0
 40
0
 40
0
 40
0
 40
0
 40
1
 40
1
 40
1
 40
1
 10
89.689617
 20
177.710120
 30
0.0
 10
89.303238
 20
177.710133
 30
0.0
 10
88.932682
 20
177.552082
 30
0.0
 10
88.659481
 20
177.270741
 30
0.0
  0
SPLINE
  5
2a3
100
AcDbEntity
  8
Layer_1
 62
7
100
AcDbSpline
 70
8
 71
3
 72
8
 73
4
 74
0
 40
0
 40
0
 40
0
 40
0
 40
1
 40
1
 40
1
 40
1
 10
88.659481
 20
177.270741
 30
0.0
 10
88.386280
 20
176.989401
 30
0.0
 10
88.232817
 20
176.607821
 30
0.0
 10
88.232858
 20
176.209960
 30
0.0
  0
SPLINE
  5
2a4
100
AcDbEntity
  8
Layer_1
 62
7
100
AcDbSpline
 70
8
 71
3
 72
8
 73
4
 74
0
 40
0
 40
0
 40
0
 40
0
 40
1
 40
1
 40
1
 40
1
 10
88.232858
 20
176.209960
 30
0.0
 10
88.233046
 20
175.381650
 30
0.0
 10
88.885212
 20
174.710282
 30
0.0
 10
89.689617
 20
174.710310
 30
0.0
  0
SPLINE
  5
2a5
100
AcDbEntity
  8
Layer_1
 62
7
100
AcDbSpline
 70
8
 71
3
 72
8
 73
4
 74
0
 40
0
 40
0
 40
0
 40
0
 40
1
 40
1
 40
1
 40
1
 10
89.689617
 20
174.710310
 30
0.0
 10
90.494021
 20
174.710284
 30
0.0
 10
91.146185
 20
175.381651
 30
0.0
 10
91.146373
 20
176.209960
 30
0.0
  0
SPLINE
  5
2a6
100
AcDbEntity
  8
Layer_1
 62
7
100
AcDbSpline
 70
8
 71
3
 72
8
 73
4
 74
0
 40
0
 40
0
 40
0
 40
0
 40
1
 40
1
 40
1
 40
1
 10
91.146373
 20
176.209960
 30
0.0
 10
91.146414
 20
176.607821
 30
0.0
 10
90.992952
 20
176.989400
 30
0.0
 10
90.719751
 20
177.270740
 30
0.0
  0
SPLINE
  5
2a7
100
AcDbEntity
  8
Layer_1
 62
7
100
AcDbSpline
 70
8
 71
3
 72
8
 73
4
 74
0
 40
0
 40
0
 40
0
 40
0
 40
1
 40
1
 40
1
 40
1
 10
90.719751
 20
177.270740
 30
0.0
 10
90.446551
 20
177.552081
 30
0.0
 10
90.075995
 20
177.710133
 30
0.0
 10
89.689617
 20
177.710120
 30
0.0
  0
LWPOLYLINE
  5
2a8
100
AcDbEntity
  8
Layer_1
 62
7
100
AcDbPolyline
 90
1
 70
1
 10
70.637548
 20
177.264670
 30
0.0
  0
SPLINE
  5
2a9
100
AcDbEntity
  8
Layer_1
 62
7
100
AcDbSpline
 70
8
 71
3
 72
8
 73
4
 74
0
 40
0
 40
0
 40
0
 40
0
 40
1
 40
1
 40
1
 40
1
 10
84.917298
 20
177.710120
 30
0.0
 10
84.528589
 20
177.710136
 30
0.0
 10
84.155798
 20
177.552085
 30
0.0
 10
83.880949
 20
177.270744
 30
0.0
  0
SPLINE
  5
2aa
100
AcDbEntity
  8
Layer_1
 62
7
100
AcDbSpline
 70
8
 71
3
 72
8
 73
4
 74
0
 40
0
 40
0
 40
0
 40
0
 40
1
 40
1
 40
1
 40
1
 10
83.880949
 20
177.270744
 30
0.0
 10
83.606099
 20
176.989404
 30
0.0
 10
83.451711
 20
176.607823
 30
0.0
 10
83.451752
 20
176.209960
 30
0.0
  0
SPLINE
  5
2ab
100
AcDbEntity
  8
Layer_1
 62
7
100
AcDbSpline
 70
8
 71
3
 72
8
 73
4
 74
0
 40
0
 40
0
 40
0
 40
0
 40
1
 40
1
 40
1
 40
1
 10
83.451752
 20
176.209960
 30
0.0
 10
83.451941
 20
175.381647
 30
0.0
 10
84.108042
 20
174.710277
 30
0.0
 10
84.917298
 20
174.710310
 30
0.0
  0
SPLINE
  5
2ac
100
AcDbEntity
  8
Layer_1
 62
7
100
AcDbSpline
 70
8
 71
3
 72
8
 73
4
 74
0
 40
0
 40
0
 40
0
 40
0
 40
1
 40
1
 40
1
 40
1
 10
84.917298
 20
174.710310
 30
0.0
 10
85.726553
 20
174.710279
 30
0.0
 10
86.382652
 20
175.381648
 30
0.0
 10
86.382841
 20
176.209960
 30
0.0
  0
SPLINE
  5
2ad
100
AcDbEntity
  8
Layer_1
 62
7
100
AcDbSpline
 70
8
 71
3
 72
8
 73
4
 74
0
 40
0
 40
0
 40
0
 40
0
 40
1
 40
1
 40
1
 40
1
 10
86.382841
 20
176.209960
 30
0.0
 10
86.382882
 20
176.607822
 30
0.0
 10
86.228494
 20
176.989403
 30
0.0
 10
85.953645
 20
177.270743
 30
0.0
  0
SPLINE
  5
2ae
100
AcDbEntity
  8
Layer_1
 62
7
100
AcDbSpline
 70
8
 71
3
 72
8
 73
4
 74
0
 40
0
 40
0
 40
0
 40
0
 40
1
 40
1
 40
1
 40
1
 10
85.953645
 20
177.270743
 30
0.0
 10
85.678797
 20
177.552084
 30
0.0
 10
85.306006
 20
177.710135
 30
0.0
 10
84.917298
 20
177.710120
 30
0.0
  0
LWPOLYLINE
  5
2af
100
AcDbEntity
  8
Layer_1
 62
7
100
AcDbPolyline
 90
1
 70
1
 10
89.689617
 20
177.710120
 30
0.0
  0
SPLINE
  5
2b0
100
AcDbEntity
  8
Layer_1
 62
7
100
AcDbSpline
 70
8
 71
3
 72
8
 73
4
 74
0
 40
0
 40
0
 40
0
 40
0
 40
1
 40
1
 40
1
 40
1
 10
80.143429
 20
177.710120
 30
0.0
 10
79.318795
 20
177.709956
 30
0.0
 10
78.650408
 20
177.038334
 30
0.0
 10
78.650496
 20
176.209960
 30
0.0
  0
SPLINE
  5
2b1
100
AcDbEntity
  8
Layer_1
 62
7
100
AcDbSpline
 70
8
 71
3
 72
8
 73
4
 74
0
 40
0
 40
0
 40
0
 40
0
 40
1
 40
1
 40
1
 40
1
 10
78.650496
 20
176.209960
 30
0.0
 10
78.650688
 20
175.381786
 30
0.0
 10
79.318993
 20
174.710474
 30
0.0
 10
80.143429
 20
174.710310
 30
0.0
  0
SPLINE
  5
2b2
100
AcDbEntity
  8
Layer_1
 62
7
100
AcDbSpline
 70
8
 71
3
 72
8
 73
4
 74
0
 40
0
 40
0
 40
0
 40
0
 40
1
 40
1
 40
1
 40
1
 10
80.143429
 20
174.710310
 30
0.0
 10
80.968066
 20
174.710188
 30
0.0
 10
81.636686
 20
175.381583
 30
0.0
 10
81.636878
 20
176.209960
 30
0.0
  0
SPLINE
  5
2b3
100
AcDbEntity
  8
Layer_1
 62
7
100
AcDbSpline
 70
8
 71
3
 72
8
 73
4
 74
0
 40
0
 40
0
 40
0
 40
0
 40
1
 40
1
 40
1
 40
1
 10
81.636878
 20
176.209960
 30
0.0
 10
81.636920
 20
176.607851
 30
0.0
 10
81.479587
 20
176.989456
 30
0.0
 10
81.199500
 20
177.270802
 30
0.0
  0
SPLINE
  5
2b4
100
AcDbEntity
  8
Layer_1
 62
7
100
AcDbSpline
 70
8
 71
3
 72
8
 73
4
 74
0
 40
0
 40
0
 40
0
 40
0
 40
1
 40
1
 40
1
 40
1
 10
81.199500
 20
177.270802
 30
0.0
 10
80.919413
 20
177.552147
 30
0.0
 10
80.539524
 20
177.710179
 30
0.0
 10
80.143429
 20
177.710120
 30
0.0
  0
LWPOLYLINE
  5
2b5
100
AcDbEntity
  8
Layer_1
 62
7
100
AcDbPolyline
 90
1
 70
1
 10
84.917298
 20
177.710120
 30
0.0
  0
SPLINE
  5
2b6
100
AcDbEntity
  8
Layer_1
 62
7
100
AcDbSpline
 70
8
 71
3
 72
8
 73
4
 74
0
 40
0
 40
0
 40
0
 40
0
 40
1
 40
1
 40
1
 40
1
 10
75.371626
 20
177.710120
 30
0.0
 10
74.975101
 20
177.710123
 30
0.0
 10
74.594818
 20
177.552067
 30
0.0
 10
74.314446
 20
177.270727
 30
0.0
  0
SPLINE
  5
2b7
100
AcDbEntity
  8
Layer_1
 62
7
100
AcDbSpline
 70
8
 71
3
 72
8
 73
4
 74
0
 40
0
 40
0
 40
0
 40
0
 40
1
 40
1
 40
1
 40
1
 10
74.314446
 20
177.270727
 30
0.0
 10
74.034075
 20
176.989388
 30
0.0
 10
73.876585
 20
176.607814
 30
0.0
 10
73.876627
 20
176.209960
 30
0.0
  0
SPLINE
  5
2b8
100
AcDbEntity
  8
Layer_1
 62
7
100
AcDbSpline
 70
8
 71
3
 72
8
 73
4
 74
0
 40
0
 40
0
 40
0
 40
0
 40
1
 40
1
 40
1
 40
1
 10
73.876627
 20
176.209960
 30
0.0
 10
73.876820
 20
175.381666
 30
0.0
 10
74.546099
 20
174.710304
 30
0.0
 10
75.371626
 20
174.710310
 30
0.0
  0
SPLINE
  5
2b9
100
AcDbEntity
  8
Layer_1
 62
7
100
AcDbSpline
 70
8
 71
3
 72
8
 73
4
 74
0
 40
0
 40
0
 40
0
 40
0
 40
1
 40
1
 40
1
 40
1
 10
75.371626
 20
174.710310
 30
0.0
 10
76.197153
 20
174.710304
 30
0.0
 10
76.866432
 20
175.381666
 30
0.0
 10
76.866625
 20
176.209960
 30
0.0
  0
SPLINE
  5
2ba
100
AcDbEntity
  8
Layer_1
 62
7
100
AcDbSpline
 70
8
 71
3
 72
8
 73
4
 74
0
 40
0
 40
0
 40
0
 40
0
 40
1
 40
1
 40
1
 40
1
 10
76.866625
 20
176.209960
 30
0.0
 10
76.866667
 20
176.607814
 30
0.0
 10
76.709177
 20
176.989388
 30
0.0
 10
76.428806
 20
177.270727
 30
0.0
  0
SPLINE
  5
2bb
100
AcDbEntity
  8
Layer_1
 62
7
100
AcDbSpline
 70
8
 71
3
 72
8
 73
4
 74
0
 40
0
 40
0
 40
0
 40
0
 40
1
 40
1
 40
1
 40
1
 10
76.428806
 20
177.270727
 30
0.0
 10
76.148434
 20
177.552067
 30
0.0
 10
75.768151
 20
177.710123
 30
0.0
 10
75.371626
 20
177.710120
 30
0.0
  0
LWPOLYLINE
  5
2bc
100
AcDbEntity
  8
Layer_1
 62
7
100
AcDbPolyline
 90
1
 70
1
 10
80.143429
 20
177.710120
 30
0.0
  0
SPLINE
  5
2bd
100
AcDbEntity
  8
Layer_1
 62
7
100
AcDbSpline
 70
8
 71
3
 72
8
 73
4
 74
0
 40
0
 40
0
 40
0
 40
0
 40
1
 40
1
 40
1
 40
1
 10
94.508960
 20
181.888160
 30
0.0
 10
94.352169
 20
181.888177
 30
0.0
 10
94.201794
 20
181.826825
 30
0.0
 10
94.090923
 20
181.717602
 30
0.0
  0
SPLINE
  5
2be
100
AcDbEntity
  8
Layer_1
 62
7
100
AcDbSpline
 70
8
 71
3
 72
8
 73
4
 74
0
 40
0
 40
0
 40
0
 40
0
 40
1
 40
1
 40
1
 40
1
 10
94.090923
 20
181.717602
 30
0.0
 10
93.980053
 20
181.608380
 30
0.0
 10
93.917770
 20
181.460237
 30
0.0
 10
93.917780
 20
181.305770
 30
0.0
  0
SPLINE
  5
2bf
100
AcDbEntity
  8
Layer_1
 62
7
100
AcDbSpline
 70
8
 71
3
 72
8
 73
4
 74
0
 40
0
 40
0
 40
0
 40
0
 40
1
 40
1
 40
1
 40
1
 10
93.917780
 20
181.305770
 30
0.0
 10
93.917770
 20
181.151303
 30
0.0
 10
93.980053
 20
181.003160
 30
0.0
 10
94.090923
 20
180.893938
 30
0.0
  0
SPLINE
  5
2c0
100
AcDbEntity
  8
Layer_1
 62
7
100
AcDbSpline
 70
8
 71
3
 72
8
 73
4
 74
0
 40
0
 40
0
 40
0
 40
0
 40
1
 40
1
 40
1
 40
1
 10
94.090923
 20
180.893938
 30
0.0
 10
94.201794
 20
180.784715
 30
0.0
 10
94.352169
 20
180.723363
 30
0.0
 10
94.508960
 20
180.723380
 30
0.0
  0
SPLINE
  5
2c1
100
AcDbEntity
  8
Layer_1
 62
7
100
AcDbSpline
 70
8
 71
3
 72
8
 73
4
 74
0
 40
0
 40
0
 40
0
 40
0
 40
1
 40
1
 40
1
 40
1
 10
94.508960
 20
180.723380
 30
0.0
 10
94.665751
 20
180.723364
 30
0.0
 10
94.816125
 20
180.784717
 30
0.0
 10
94.926995
 20
180.893939
 30
0.0
  0
SPLINE
  5
2c2
100
AcDbEntity
  8
Layer_1
 62
7
100
AcDbSpline
 70
8
 71
3
 72
8
 73
4
 74
0
 40
0
 40
0
 40
0
 40
0
 40
1
 40
1
 40
1
 40
1
 10
94.926995
 20
180.893939
 30
0.0
 10
95.037865
 20
181.003161
 30
0.0
 10
95.100147
 20
181.151303
 30
0.0
 10
95.100137
 20
181.305770
 30
0.0
  0
SPLINE
  5
2c3
100
AcDbEntity
  8
Layer_1
 62
7
100
AcDbSpline
 70
8
 71
3
 72
8
 73
4
 74
0
 40
0
 40
0
 40
0
 40
0
 40
1
 40
1
 40
1
 40
1
 10
95.100137
 20
181.305770
 30
0.0
 10
95.100147
 20
181.460237
 30
0.0
 10
95.037865
 20
181.608379
 30
0.0
 10
94.926995
 20
181.717601
 30
0.0
  0
SPLINE
  5
2c4
100
AcDbEntity
  8
Layer_1
 62
7
100
AcDbSpline
 70
8
 71
3
 72
8
 73
4
 74
0
 40
0
 40
0
 40
0
 40
0
 40
1
 40
1
 40
1
 40
1
 10
94.926995
 20
181.717601
 30
0.0
 10
94.816125
 20
181.826823
 30
0.0
 10
94.665751
 20
181.888176
 30
0.0
 10
94.508960
 20
181.888160
 30
0.0
  0
LWPOLYLINE
  5
2c5
100
AcDbEntity
  8
Layer_1
 62
7
100
AcDbPolyline
 90
1
 70
1
 10
75.371626
 20
177.710120
 30
0.0
  0
SPLINE
  5
2c6
100
AcDbEntity
  8
Layer_1
 62
7
100
AcDbSpline
 70
8
 71
3
 72
8
 73
4
 74
0
 40
0
 40
0
 40
0
 40
0
 40
1
 40
1
 40
1
 40
1
 10
70.641683
 20
181.991000
 30
0.0
 10
70.242156
 20
181.990939
 30
0.0
 10
69.918286
 20
181.659204
 30
0.0
 10
69.918212
 20
181.249960
 30
0.0
  0
SPLINE
  5
2c7
100
AcDbEntity
  8
Layer_1
 62
7
100
AcDbSpline
 70
8
 71
3
 72
8
 73
4
 74
0
 40
0
 40
0
 40
0
 40
0
 40
1
 40
1
 40
1
 40
1
 10
69.918212
 20
181.249960
 30
0.0
 10
69.918113
 20
181.053341
 30
0.0
 10
69.994288
 20
180.864738
 30
0.0
 10
70.129973
 20
180.725660
 30
0.0
  0
SPLINE
  5
2c8
100
AcDbEntity
  8
Layer_1
 62
7
100
AcDbSpline
 70
8
 71
3
 72
8
 73
4
 74
0
 40
0
 40
0
 40
0
 40
0
 40
1
 40
1
 40
1
 40
1
 10
70.129973
 20
180.725660
 30
0.0
 10
70.265658
 20
180.586583
 30
0.0
 10
70.449732
 20
180.508429
 30
0.0
 10
70.641683
 20
180.508400
 30
0.0
  0
SPLINE
  5
2c9
100
AcDbEntity
  8
Layer_1
 62
7
100
AcDbSpline
 70
8
 71
3
 72
8
 73
4
 74
0
 40
0
 40
0
 40
0
 40
0
 40
1
 40
1
 40
1
 40
1
 10
70.641683
 20
180.508400
 30
0.0
 10
70.833724
 20
180.508289
 30
0.0
 10
71.017930
 20
180.586381
 30
0.0
 10
71.153727
 20
180.725473
 30
0.0
  0
SPLINE
  5
2ca
100
AcDbEntity
  8
Layer_1
 62
7
100
AcDbSpline
 70
8
 71
3
 72
8
 73
4
 74
0
 40
0
 40
0
 40
0
 40
0
 40
1
 40
1
 40
1
 40
1
 10
71.153727
 20
180.725473
 30
0.0
 10
71.289523
 20
180.864566
 30
0.0
 10
71.365769
 20
181.053249
 30
0.0
 10
71.365670
 20
181.249960
 30
0.0
  0
SPLINE
  5
2cb
100
AcDbEntity
  8
Layer_1
 62
7
100
AcDbSpline
 70
8
 71
3
 72
8
 73
4
 74
0
 40
0
 40
0
 40
0
 40
0
 40
1
 40
1
 40
1
 40
1
 10
71.365670
 20
181.249960
 30
0.0
 10
71.365635
 20
181.446581
 30
0.0
 10
71.289329
 20
181.635130
 30
0.0
 10
71.153547
 20
181.774110
 30
0.0
  0
SPLINE
  5
2cc
100
AcDbEntity
  8
Layer_1
 62
7
100
AcDbSpline
 70
8
 71
3
 72
8
 73
4
 74
0
 40
0
 40
0
 40
0
 40
0
 40
1
 40
1
 40
1
 40
1
 10
71.153547
 20
181.774110
 30
0.0
 10
71.017765
 20
181.913091
 30
0.0
 10
70.833636
 20
181.991111
 30
0.0
 10
70.641683
 20
181.991000
 30
0.0
  0
LWPOLYLINE
  5
2cd
100
AcDbEntity
  8
Layer_1
 62
7
100
AcDbPolyline
 90
1
 70
1
 10
94.508960
 20
181.888160
 30
0.0
  0
SPLINE
  5
2ce
100
AcDbEntity
  8
Layer_1
 62
7
100
AcDbSpline
 70
8
 71
3
 72
8
 73
4
 74
0
 40
0
 40
0
 40
0
 40
0
 40
1
 40
1
 40
1
 40
1
 10
89.688582
 20
182.481930
 30
0.0
 10
88.876703
 20
182.481764
 30
0.0
 10
88.218577
 20
181.810453
 30
0.0
 10
88.218388
 20
180.982280
 30
0.0
  0
SPLINE
  5
2cf
100
AcDbEntity
  8
Layer_1
 62
7
100
AcDbSpline
 70
8
 71
3
 72
8
 73
4
 74
0
 40
0
 40
0
 40
0
 40
0
 40
1
 40
1
 40
1
 40
1
 10
88.218388
 20
180.982280
 30
0.0
 10
88.218296
 20
180.153904
 30
0.0
 10
88.876504
 20
179.482276
 30
0.0
 10
89.688582
 20
179.482110
 30
0.0
  0
SPLINE
  5
2d0
100
AcDbEntity
  8
Layer_1
 62
7
100
AcDbSpline
 70
8
 71
3
 72
8
 73
4
 74
0
 40
0
 40
0
 40
0
 40
0
 40
1
 40
1
 40
1
 40
1
 10
89.688582
 20
179.482110
 30
0.0
 10
90.078647
 20
179.482050
 30
0.0
 10
90.452754
 20
179.640082
 30
0.0
 10
90.728577
 20
179.921430
 30
0.0
  0
SPLINE
  5
2d1
100
AcDbEntity
  8
Layer_1
 62
7
100
AcDbSpline
 70
8
 71
3
 72
8
 73
4
 74
0
 40
0
 40
0
 40
0
 40
0
 40
1
 40
1
 40
1
 40
1
 10
90.728577
 20
179.921430
 30
0.0
 10
91.004399
 20
180.202778
 30
0.0
 10
91.159336
 20
180.584387
 30
0.0
 10
91.159292
 20
180.982280
 30
0.0
  0
SPLINE
  5
2d2
100
AcDbEntity
  8
Layer_1
 62
7
100
AcDbSpline
 70
8
 71
3
 72
8
 73
4
 74
0
 40
0
 40
0
 40
0
 40
0
 40
1
 40
1
 40
1
 40
1
 10
91.159292
 20
180.982280
 30
0.0
 10
91.159103
 20
181.810659
 30
0.0
 10
90.500663
 20
182.482055
 30
0.0
 10
89.688582
 20
182.481930
 30
0.0
  0
LWPOLYLINE
  5
2d3
100
AcDbEntity
  8
Layer_1
 62
7
100
AcDbPolyline
 90
1
 70
1
 10
70.641683
 20
181.991000
 30
0.0
  0
SPLINE
  5
2d4
100
AcDbEntity
  8
Layer_1
 62
7
100
AcDbSpline
 70
8
 71
3
 72
8
 73
4
 74
0
 40
0
 40
0
 40
0
 40
0
 40
1
 40
1
 40
1
 40
1
 10
84.914713
 20
182.481930
 30
0.0
 10
84.082633
 20
182.481971
 30
0.0
 10
83.408023
 20
181.810600
 30
0.0
 10
83.407829
 20
180.982280
 30
0.0
  0
SPLINE
  5
2d5
100
AcDbEntity
  8
Layer_1
 62
7
100
AcDbSpline
 70
8
 71
3
 72
8
 73
4
 74
0
 40
0
 40
0
 40
0
 40
0
 40
1
 40
1
 40
1
 40
1
 10
83.407829
 20
180.982280
 30
0.0
 10
83.407784
 20
180.584413
 30
0.0
 10
83.566527
 20
180.202827
 30
0.0
 10
83.849129
 20
179.921484
 30
0.0
  0
SPLINE
  5
2d6
100
AcDbEntity
  8
Layer_1
 62
7
100
AcDbSpline
 70
8
 71
3
 72
8
 73
4
 74
0
 40
0
 40
0
 40
0
 40
0
 40
1
 40
1
 40
1
 40
1
 10
83.849129
 20
179.921484
 30
0.0
 10
84.131732
 20
179.640140
 30
0.0
 10
84.515040
 20
179.482090
 30
0.0
 10
84.914713
 20
179.482110
 30
0.0
  0
SPLINE
  5
2d7
100
AcDbEntity
  8
Layer_1
 62
7
100
AcDbSpline
 70
8
 71
3
 72
8
 73
4
 74
0
 40
0
 40
0
 40
0
 40
0
 40
1
 40
1
 40
1
 40
1
 10
84.914713
 20
179.482110
 30
0.0
 10
85.314386
 20
179.482090
 30
0.0
 10
85.697694
 20
179.640140
 30
0.0
 10
85.980297
 20
179.921484
 30
0.0
  0
SPLINE
  5
2d8
100
AcDbEntity
  8
Layer_1
 62
7
100
AcDbSpline
 70
8
 71
3
 72
8
 73
4
 74
0
 40
0
 40
0
 40
0
 40
0
 40
1
 40
1
 40
1
 40
1
 10
85.980297
 20
179.921484
 30
0.0
 10
86.262899
 20
180.202827
 30
0.0
 10
86.421642
 20
180.584413
 30
0.0
 10
86.421597
 20
180.982280
 30
0.0
  0
SPLINE
  5
2d9
100
AcDbEntity
  8
Layer_1
 62
7
100
AcDbSpline
 70
8
 71
3
 72
8
 73
4
 74
0
 40
0
 40
0
 40
0
 40
0
 40
1
 40
1
 40
1
 40
1
 10
86.421597
 20
180.982280
 30
0.0
 10
86.421403
 20
181.810600
 30
0.0
 10
85.746793
 20
182.481971
 30
0.0
 10
84.914713
 20
182.481930
 30
0.0
  0
LWPOLYLINE
  5
2da
100
AcDbEntity
  8
Layer_1
 62
7
100
AcDbPolyline
 90
1
 70
1
 10
89.688582
 20
182.481930
 30
0.0
  0
SPLINE
  5
2db
100
AcDbEntity
  8
Layer_1
 62
7
100
AcDbSpline
 70
8
 71
3
 72
8
 73
4
 74
0
 40
0
 40
0
 40
0
 40
0
 40
1
 40
1
 40
1
 40
1
 10
80.145495
 20
182.481930
 30
0.0
 10
79.757859
 20
182.482023
 30
0.0
 10
79.386063
 20
182.324077
 30
0.0
 10
79.111899
 20
182.042838
 30
0.0
  0
SPLINE
  5
2dc
100
AcDbEntity
  8
Layer_1
 62
7
100
AcDbSpline
 70
8
 71
3
 72
8
 73
4
 74
0
 40
0
 40
0
 40
0
 40
0
 40
1
 40
1
 40
1
 40
1
 10
79.111899
 20
182.042838
 30
0.0
 10
78.837734
 20
181.761599
 30
0.0
 10
78.683659
 20
181.380105
 30
0.0
 10
78.683569
 20
180.982280
 30
0.0
  0
SPLINE
  5
2dd
100
AcDbEntity
  8
Layer_1
 62
7
100
AcDbSpline
 70
8
 71
3
 72
8
 73
4
 74
0
 40
0
 40
0
 40
0
 40
0
 40
1
 40
1
 40
1
 40
1
 10
78.683569
 20
180.982280
 30
0.0
 10
78.683525
 20
180.584365
 30
0.0
 10
78.837540
 20
180.202737
 30
0.0
 10
79.111719
 20
179.921386
 30
0.0
  0
SPLINE
  5
2de
100
AcDbEntity
  8
Layer_1
 62
7
100
AcDbSpline
 70
8
 71
3
 72
8
 73
4
 74
0
 40
0
 40
0
 40
0
 40
0
 40
1
 40
1
 40
1
 40
1
 10
79.111719
 20
179.921386
 30
0.0
 10
79.385898
 20
179.640034
 30
0.0
 10
79.757771
 20
179.482017
 30
0.0
 10
80.145495
 20
179.482110
 30
0.0
  0
SPLINE
  5
2df
100
AcDbEntity
  8
Layer_1
 62
7
100
AcDbSpline
 70
8
 71
3
 72
8
 73
4
 74
0
 40
0
 40
0
 40
0
 40
0
 40
1
 40
1
 40
1
 40
1
 10
80.145495
 20
179.482110
 30
0.0
 10
80.952703
 20
179.482208
 30
0.0
 10
81.606997
 20
180.153856
 30
0.0
 10
81.606906
 20
180.982280
 30
0.0
  0
SPLINE
  5
2e0
100
AcDbEntity
  8
Layer_1
 62
7
100
AcDbSpline
 70
8
 71
3
 72
8
 73
4
 74
0
 40
0
 40
0
 40
0
 40
0
 40
1
 40
1
 40
1
 40
1
 10
81.606906
 20
180.982280
 30
0.0
 10
81.606718
 20
181.810501
 30
0.0
 10
80.952505
 20
182.481832
 30
0.0
 10
80.145495
 20
182.481930
 30
0.0
  0
LWPOLYLINE
  5
2e1
100
AcDbEntity
  8
Layer_1
 62
7
100
AcDbPolyline
 90
1
 70
1
 10
84.914713
 20
182.481930
 30
0.0
  0
SPLINE
  5
2e2
100
AcDbEntity
  8
Layer_1
 62
7
100
AcDbSpline
 70
8
 71
3
 72
8
 73
4
 74
0
 40
0
 40
0
 40
0
 40
0
 40
1
 40
1
 40
1
 40
1
 10
75.371626
 20
182.481930
 30
0.0
 10
74.544692
 20
182.482005
 30
0.0
 10
73.874236
 20
181.810624
 30
0.0
 10
73.874043
 20
180.982280
 30
0.0
  0
SPLINE
  5
2e3
100
AcDbEntity
  8
Layer_1
 62
7
100
AcDbSpline
 70
8
 71
3
 72
8
 73
4
 74
0
 40
0
 40
0
 40
0
 40
0
 40
1
 40
1
 40
1
 40
1
 10
73.874043
 20
180.982280
 30
0.0
 10
73.873998
 20
180.584402
 30
0.0
 10
74.031763
 20
180.202807
 30
0.0
 10
74.312623
 20
179.921462
 30
0.0
  0
SPLINE
  5
2e4
100
AcDbEntity
  8
Layer_1
 62
7
100
AcDbSpline
 70
8
 71
3
 72
8
 73
4
 74
0
 40
0
 40
0
 40
0
 40
0
 40
1
 40
1
 40
1
 40
1
 10
74.312623
 20
179.921462
 30
0.0
 10
74.593483
 20
179.640117
 30
0.0
 10
74.974425
 20
179.482074
 30
0.0
 10
75.371626
 20
179.482110
 30
0.0
  0
SPLINE
  5
2e5
100
AcDbEntity
  8
Layer_1
 62
7
100
AcDbSpline
 70
8
 71
3
 72
8
 73
4
 74
0
 40
0
 40
0
 40
0
 40
0
 40
1
 40
1
 40
1
 40
1
 10
75.371626
 20
179.482110
 30
0.0
 10
76.198561
 20
179.482321
 30
0.0
 10
76.868786
 20
180.153936
 30
0.0
 10
76.868692
 20
180.982280
 30
0.0
  0
SPLINE
  5
2e6
100
AcDbEntity
  8
Layer_1
 62
7
100
AcDbSpline
 70
8
 71
3
 72
8
 73
4
 74
0
 40
0
 40
0
 40
0
 40
0
 40
1
 40
1
 40
1
 40
1
 10
76.868692
 20
180.982280
 30
0.0
 10
76.868499
 20
181.810421
 30
0.0
 10
76.198358
 20
182.481719
 30
0.0
 10
75.371626
 20
182.481930
 30
0.0
  0
LWPOLYLINE
  5
2e7
100
AcDbEntity
  8
Layer_1
 62
7
100
AcDbPolyline
 90
1
 70
1
 10
80.145495
 20
182.481930
 30
0.0
  0
SPLINE
  5
2e8
100
AcDbEntity
  8
Layer_1
 62
7
100
AcDbSpline
 70
8
 71
3
 72
8
 73
4
 74
0
 40
0
 40
0
 40
0
 40
0
 40
1
 40
1
 40
1
 40
1
 10
94.513092
 20
186.621730
 30
0.0
 10
94.230546
 20
186.621680
 30
0.0
 10
94.001518
 20
186.387326
 30
0.0
 10
94.001497
 20
186.098240
 30
0.0
  0
SPLINE
  5
2e9
100
AcDbEntity
  8
Layer_1
 62
7
100
AcDbSpline
 70
8
 71
3
 72
8
 73
4
 74
0
 40
0
 40
0
 40
0
 40
0
 40
1
 40
1
 40
1
 40
1
 10
94.001497
 20
186.098240
 30
0.0
 10
94.001524
 20
185.809158
 30
0.0
 10
94.230550
 20
185.574810
 30
0.0
 10
94.513092
 20
185.574760
 30
0.0
  0
SPLINE
  5
2ea
100
AcDbEntity
  8
Layer_1
 62
7
100
AcDbSpline
 70
8
 71
3
 72
8
 73
4
 74
0
 40
0
 40
0
 40
0
 40
0
 40
1
 40
1
 40
1
 40
1
 10
94.513092
 20
185.574760
 30
0.0
 10
94.795635
 20
185.574808
 30
0.0
 10
95.024664
 20
185.809156
 30
0.0
 10
95.024691
 20
186.098240
 30
0.0
  0
SPLINE
  5
2eb
100
AcDbEntity
  8
Layer_1
 62
7
100
AcDbSpline
 70
8
 71
3
 72
8
 73
4
 74
0
 40
0
 40
0
 40
0
 40
0
 40
1
 40
1
 40
1
 40
1
 10
95.024691
 20
186.098240
 30
0.0
 10
95.024670
 20
186.387328
 30
0.0
 10
94.795639
 20
186.621682
 30
0.0
 10
94.513092
 20
186.621730
 30
0.0
  0
LWPOLYLINE
  5
2ec
100
AcDbEntity
  8
Layer_1
 62
7
100
AcDbPolyline
 90
1
 70
1
 10
75.371626
 20
182.481930
 30
0.0
  0
SPLINE
  5
2ed
100
AcDbEntity
  8
Layer_1
 62
7
100
AcDbSpline
 70
8
 71
3
 72
8
 73
4
 74
0
 40
0
 40
0
 40
0
 40
0
 40
1
 40
1
 40
1
 40
1
 10
70.642200
 20
186.747820
 30
0.0
 10
70.451146
 20
186.747891
 30
0.0
 10
70.267895
 20
186.672294
 30
0.0
 10
70.132787
 20
186.537671
 30
0.0
  0
SPLINE
  5
2ee
100
AcDbEntity
  8
Layer_1
 62
7
100
AcDbSpline
 70
8
 71
3
 72
8
 73
4
 74
0
 40
0
 40
0
 40
0
 40
0
 40
1
 40
1
 40
1
 40
1
 10
70.132787
 20
186.537671
 30
0.0
 10
69.997680
 20
186.403047
 30
0.0
 10
69.921792
 20
186.220433
 30
0.0
 10
69.921830
 20
186.030030
 30
0.0
  0
SPLINE
  5
2ef
100
AcDbEntity
  8
Layer_1
 62
7
100
AcDbSpline
 70
8
 71
3
 72
8
 73
4
 74
0
 40
0
 40
0
 40
0
 40
0
 40
1
 40
1
 40
1
 40
1
 10
69.921830
 20
186.030030
 30
0.0
 10
69.921795
 20
185.839629
 30
0.0
 10
69.997683
 20
185.657017
 30
0.0
 10
70.132791
 20
185.522396
 30
0.0
  0
SPLINE
  5
2f0
100
AcDbEntity
  8
Layer_1
 62
7
100
AcDbSpline
 70
8
 71
3
 72
8
 73
4
 74
0
 40
0
 40
0
 40
0
 40
0
 40
1
 40
1
 40
1
 40
1
 10
70.132791
 20
185.522396
 30
0.0
 10
70.267898
 20
185.387775
 30
0.0
 10
70.451148
 20
185.312179
 30
0.0
 10
70.642200
 20
185.312250
 30
0.0
  0
SPLINE
  5
2f1
100
AcDbEntity
  8
Layer_1
 62
7
100
AcDbSpline
 70
8
 71
3
 72
8
 73
4
 74
0
 40
0
 40
0
 40
0
 40
0
 40
1
 40
1
 40
1
 40
1
 10
70.642200
 20
185.312250
 30
0.0
 10
71.039856
 20
185.312387
 30
0.0
 10
71.362126
 20
185.633729
 30
0.0
 10
71.362052
 20
186.030030
 30
0.0
  0
SPLINE
  5
2f2
100
AcDbEntity
  8
Layer_1
 62
7
100
AcDbSpline
 70
8
 71
3
 72
8
 73
4
 74
0
 40
0
 40
0
 40
0
 40
0
 40
1
 40
1
 40
1
 40
1
 10
71.362052
 20
186.030030
 30
0.0
 10
71.362131
 20
186.426335
 30
0.0
 10
71.039859
 20
186.747683
 30
0.0
 10
70.642200
 20
186.747820
 30
0.0
  0
LWPOLYLINE
  5
2f3
100
AcDbEntity
  8
Layer_1
 62
7
100
AcDbPolyline
 90
1
 70
1
 10
94.513092
 20
186.621730
 30
0.0
  0
SPLINE
  5
2f4
100
AcDbEntity
  8
Layer_1
 62
7
100
AcDbSpline
 70
8
 71
3
 72
8
 73
4
 74
0
 40
0
 40
0
 40
0
 40
0
 40
1
 40
1
 40
1
 40
1
 10
89.689098
 20
187.253720
 30
0.0
 10
88.882118
 20
187.253723
 30
0.0
 10
88.227876
 20
186.582363
 30
0.0
 10
88.227688
 20
185.754070
 30
0.0
  0
SPLINE
  5
2f5
100
AcDbEntity
  8
Layer_1
 62
7
100
AcDbSpline
 70
8
 71
3
 72
8
 73
4
 74
0
 40
0
 40
0
 40
0
 40
0
 40
1
 40
1
 40
1
 40
1
 10
88.227688
 20
185.754070
 30
0.0
 10
88.227644
 20
185.356215
 30
0.0
 10
88.381594
 20
184.974639
 30
0.0
 10
88.655667
 20
184.693298
 30
0.0
  0
SPLINE
  5
2f6
100
AcDbEntity
  8
Layer_1
 62
7
100
AcDbSpline
 70
8
 71
3
 72
8
 73
4
 74
0
 40
0
 40
0
 40
0
 40
0
 40
1
 40
1
 40
1
 40
1
 10
88.655667
 20
184.693298
 30
0.0
 10
88.929739
 20
184.411956
 30
0.0
 10
89.301480
 20
184.253898
 30
0.0
 10
89.689098
 20
184.253900
 30
0.0
  0
SPLINE
  5
2f7
100
AcDbEntity
  8
Layer_1
 62
7
100
AcDbSpline
 70
8
 71
3
 72
8
 73
4
 74
0
 40
0
 40
0
 40
0
 40
0
 40
1
 40
1
 40
1
 40
1
 10
89.689098
 20
184.253900
 30
0.0
 10
90.076716
 20
184.253898
 30
0.0
 10
90.448457
 20
184.411956
 30
0.0
 10
90.722529
 20
184.693298
 30
0.0
  0
SPLINE
  5
2f8
100
AcDbEntity
  8
Layer_1
 62
7
100
AcDbSpline
 70
8
 71
3
 72
8
 73
4
 74
0
 40
0
 40
0
 40
0
 40
0
 40
1
 40
1
 40
1
 40
1
 10
90.722529
 20
184.693298
 30
0.0
 10
90.996602
 20
184.974639
 30
0.0
 10
91.150552
 20
185.356215
 30
0.0
 10
91.150508
 20
185.754070
 30
0.0
  0
SPLINE
  5
2f9
100
AcDbEntity
  8
Layer_1
 62
7
100
AcDbSpline
 70
8
 71
3
 72
8
 73
4
 74
0
 40
0
 40
0
 40
0
 40
0
 40
1
 40
1
 40
1
 40
1
 10
91.150508
 20
185.754070
 30
0.0
 10
91.150320
 20
186.582363
 30
0.0
 10
90.496078
 20
187.253723
 30
0.0
 10
89.689098
 20
187.253720
 30
0.0
  0
LWPOLYLINE
  5
2fa
100
AcDbEntity
  8
Layer_1
 62
7
100
AcDbPolyline
 90
1
 70
1
 10
70.642200
 20
186.747820
 30
0.0
  0
SPLINE
  5
2fb
100
AcDbEntity
  8
Layer_1
 62
7
100
AcDbSpline
 70
8
 71
3
 72
8
 73
4
 74
0
 40
0
 40
0
 40
0
 40
0
 40
1
 40
1
 40
1
 40
1
 10
84.914713
 20
187.253720
 30
0.0
 10
84.079199
 20
187.253729
 30
0.0
 10
83.401822
 20
186.582367
 30
0.0
 10
83.401627
 20
185.754070
 30
0.0
  0
SPLINE
  5
2fc
100
AcDbEntity
  8
Layer_1
 62
7
100
AcDbSpline
 70
8
 71
3
 72
8
 73
4
 74
0
 40
0
 40
0
 40
0
 40
0
 40
1
 40
1
 40
1
 40
1
 10
83.401627
 20
185.754070
 30
0.0
 10
83.401582
 20
185.356213
 30
0.0
 10
83.560976
 20
184.974636
 30
0.0
 10
83.844740
 20
184.693294
 30
0.0
  0
SPLINE
  5
2fd
100
AcDbEntity
  8
Layer_1
 62
7
100
AcDbSpline
 70
8
 71
3
 72
8
 73
4
 74
0
 40
0
 40
0
 40
0
 40
0
 40
1
 40
1
 40
1
 40
1
 10
83.844740
 20
184.693294
 30
0.0
 10
84.128504
 20
184.411952
 30
0.0
 10
84.513390
 20
184.253896
 30
0.0
 10
84.914713
 20
184.253900
 30
0.0
  0
SPLINE
  5
2fe
100
AcDbEntity
  8
Layer_1
 62
7
100
AcDbSpline
 70
8
 71
3
 72
8
 73
4
 74
0
 40
0
 40
0
 40
0
 40
0
 40
1
 40
1
 40
1
 40
1
 10
84.914713
 20
184.253900
 30
0.0
 10
85.316036
 20
184.253896
 30
0.0
 10
85.700922
 20
184.411952
 30
0.0
 10
85.984686
 20
184.693294
 30
0.0
  0
SPLINE
  5
2ff
100
AcDbEntity
  8
Layer_1
 62
7
100
AcDbSpline
 70
8
 71
3
 72
8
 73
4
 74
0
 40
0
 40
0
 40
0
 40
0
 40
1
 40
1
 40
1
 40
1
 10
85.984686
 20
184.693294
 30
0.0
 10
86.268450
 20
184.974636
 30
0.0
 10
86.427844
 20
185.356213
 30
0.0
 10
86.427799
 20
185.754070
 30
0.0
  0
SPLINE
  5
300
100
AcDbEntity
  8
Layer_1
 62
7
100
AcDbSpline
 70
8
 71
3
 72
8
 73
4
 74
0
 40
0
 40
0
 40
0
 40
0
 40
1
 40
1
 40
1
 40
1
 10
86.427799
 20
185.754070
 30
0.0
 10
86.427604
 20
186.582367
 30
0.0
 10
85.750227
 20
187.253729
 30
0.0
 10
84.914713
 20
187.253720
 30
0.0
  0
LWPOLYLINE
  5
301
100
AcDbEntity
  8
Layer_1
 62
7
100
AcDbPolyline
 90
1
 70
1
 10
89.689098
 20
187.253720
 30
0.0
  0
SPLINE
  5
302
100
AcDbEntity
  8
Layer_1
 62
7
100
AcDbSpline
 70
8
 71
3
 72
8
 73
4
 74
0
 40
0
 40
0
 40
0
 40
0
 40
1
 40
1
 40
1
 40
1
 10
80.141360
 20
187.253720
 30
0.0
 10
79.295527
 20
187.253573
 30
0.0
 10
78.609868
 20
186.582257
 30
0.0
 10
78.609671
 20
185.754070
 30
0.0
  0
SPLINE
  5
303
100
AcDbEntity
  8
Layer_1
 62
7
100
AcDbSpline
 70
8
 71
3
 72
8
 73
4
 74
0
 40
0
 40
0
 40
0
 40
0
 40
1
 40
1
 40
1
 40
1
 10
78.609671
 20
185.754070
 30
0.0
 10
78.609575
 20
184.925680
 30
0.0
 10
79.295320
 20
184.254047
 30
0.0
 10
80.141360
 20
184.253900
 30
0.0
  0
SPLINE
  5
304
100
AcDbEntity
  8
Layer_1
 62
7
100
AcDbSpline
 70
8
 71
3
 72
8
 73
4
 74
0
 40
0
 40
0
 40
0
 40
0
 40
1
 40
1
 40
1
 40
1
 10
80.141360
 20
184.253900
 30
0.0
 10
80.547734
 20
184.253836
 30
0.0
 10
80.937484
 20
184.411866
 30
0.0
 10
81.224840
 20
184.693215
 30
0.0
  0
SPLINE
  5
305
100
AcDbEntity
  8
Layer_1
 62
7
100
AcDbSpline
 70
8
 71
3
 72
8
 73
4
 74
0
 40
0
 40
0
 40
0
 40
0
 40
1
 40
1
 40
1
 40
1
 10
81.224840
 20
184.693215
 30
0.0
 10
81.512197
 20
184.974563
 30
0.0
 10
81.673613
 20
185.356174
 30
0.0
 10
81.673567
 20
185.754070
 30
0.0
  0
SPLINE
  5
306
100
AcDbEntity
  8
Layer_1
 62
7
100
AcDbSpline
 70
8
 71
3
 72
8
 73
4
 74
0
 40
0
 40
0
 40
0
 40
0
 40
1
 40
1
 40
1
 40
1
 10
81.673567
 20
185.754070
 30
0.0
 10
81.673370
 20
186.582455
 30
0.0
 10
80.987395
 20
187.253853
 30
0.0
 10
80.141360
 20
187.253720
 30
0.0
  0
LWPOLYLINE
  5
307
100
AcDbEntity
  8
Layer_1
 62
7
100
AcDbPolyline
 90
1
 70
1
 10
84.914713
 20
187.253720
 30
0.0
  0
SPLINE
  5
308
100
AcDbEntity
  8
Layer_1
 62
7
100
AcDbSpline
 70
8
 71
3
 72
8
 73
4
 74
0
 40
0
 40
0
 40
0
 40
0
 40
1
 40
1
 40
1
 40
1
 10
75.370592
 20
187.253720
 30
0.0
 10
74.968160
 20
187.253821
 30
0.0
 10
74.582171
 20
187.095878
 30
0.0
 10
74.297539
 20
186.814638
 30
0.0
  0
SPLINE
  5
309
100
AcDbEntity
  8
Layer_1
 62
7
100
AcDbSpline
 70
8
 71
3
 72
8
 73
4
 74
0
 40
0
 40
0
 40
0
 40
0
 40
1
 40
1
 40
1
 40
1
 10
74.297539
 20
186.814638
 30
0.0
 10
74.012907
 20
186.533398
 30
0.0
 10
73.852950
 20
186.151900
 30
0.0
 10
73.852856
 20
185.754070
 30
0.0
  0
SPLINE
  5
30a
100
AcDbEntity
  8
Layer_1
 62
7
100
AcDbSpline
 70
8
 71
3
 72
8
 73
4
 74
0
 40
0
 40
0
 40
0
 40
0
 40
1
 40
1
 40
1
 40
1
 10
73.852856
 20
185.754070
 30
0.0
 10
73.852810
 20
185.356150
 30
0.0
 10
74.012706
 20
184.974518
 30
0.0
 10
74.297353
 20
184.693166
 30
0.0
  0
SPLINE
  5
30b
100
AcDbEntity
  8
Layer_1
 62
7
100
AcDbSpline
 70
8
 71
3
 72
8
 73
4
 74
0
 40
0
 40
0
 40
0
 40
0
 40
1
 40
1
 40
1
 40
1
 10
74.297353
 20
184.693166
 30
0.0
 10
74.582000
 20
184.411813
 30
0.0
 10
74.968069
 20
184.253799
 30
0.0
 10
75.370592
 20
184.253900
 30
0.0
  0
SPLINE
  5
30c
100
AcDbEntity
  8
Layer_1
 62
7
100
AcDbSpline
 70
8
 71
3
 72
8
 73
4
 74
0
 40
0
 40
0
 40
0
 40
0
 40
1
 40
1
 40
1
 40
1
 10
75.370592
 20
184.253900
 30
0.0
 10
75.773026
 20
184.253934
 30
0.0
 10
76.158963
 20
184.412008
 30
0.0
 10
76.443498
 20
184.693346
 30
0.0
  0
SPLINE
  5
30d
100
AcDbEntity
  8
Layer_1
 62
7
100
AcDbSpline
 70
8
 71
3
 72
8
 73
4
 74
0
 40
0
 40
0
 40
0
 40
0
 40
1
 40
1
 40
1
 40
1
 10
76.443498
 20
184.693346
 30
0.0
 10
76.728033
 20
184.974683
 30
0.0
 10
76.887859
 20
185.356238
 30
0.0
 10
76.887813
 20
185.754070
 30
0.0
  0
SPLINE
  5
30e
100
AcDbEntity
  8
Layer_1
 62
7
100
AcDbSpline
 70
8
 71
3
 72
8
 73
4
 74
0
 40
0
 40
0
 40
0
 40
0
 40
1
 40
1
 40
1
 40
1
 10
76.887813
 20
185.754070
 30
0.0
 10
76.887618
 20
186.582310
 30
0.0
 10
76.208413
 20
187.253649
 30
0.0
 10
75.370592
 20
187.253720
 30
0.0
  0
LWPOLYLINE
  5
30f
100
AcDbEntity
  8
Layer_1
 62
7
100
AcDbPolyline
 90
1
 70
1
 10
80.141360
 20
187.253720
 30
0.0
  0
SPLINE
  5
310
100
AcDbEntity
  8
Layer_1
 62
7
100
AcDbSpline
 70
8
 71
3
 72
8
 73
4
 74
0
 40
0
 40
0
 40
0
 40
0
 40
1
 40
1
 40
1
 40
1
 10
94.526528
 20
191.230220
 30
0.0
 10
94.379132
 20
191.230028
 30
0.0
 10
94.259773
 20
191.108821
 30
0.0
 10
94.259878
 20
190.959440
 30
0.0
  0
SPLINE
  5
311
100
AcDbEntity
  8
Layer_1
 62
7
100
AcDbSpline
 70
8
 71
3
 72
8
 73
4
 74
0
 40
0
 40
0
 40
0
 40
0
 40
1
 40
1
 40
1
 40
1
 10
94.259878
 20
190.959440
 30
0.0
 10
94.260051
 20
190.810258
 30
0.0
 10
94.379328
 20
190.689361
 30
0.0
 10
94.526528
 20
190.689170
 30
0.0
  0
SPLINE
  5
312
100
AcDbEntity
  8
Layer_1
 62
7
100
AcDbSpline
 70
8
 71
3
 72
8
 73
4
 74
0
 40
0
 40
0
 40
0
 40
0
 40
1
 40
1
 40
1
 40
1
 10
94.526528
 20
190.689170
 30
0.0
 10
94.673930
 20
190.689072
 30
0.0
 10
94.793523
 20
190.810053
 30
0.0
 10
94.793696
 20
190.959440
 30
0.0
  0
SPLINE
  5
313
100
AcDbEntity
  8
Layer_1
 62
7
100
AcDbSpline
 70
8
 71
3
 72
8
 73
4
 74
0
 40
0
 40
0
 40
0
 40
0
 40
1
 40
1
 40
1
 40
1
 10
94.793696
 20
190.959440
 30
0.0
 10
94.793746
 20
191.031268
 30
0.0
 10
94.765615
 20
191.100170
 30
0.0
 10
94.715501
 20
191.150962
 30
0.0
  0
SPLINE
  5
314
100
AcDbEntity
  8
Layer_1
 62
7
100
AcDbSpline
 70
8
 71
3
 72
8
 73
4
 74
0
 40
0
 40
0
 40
0
 40
0
 40
1
 40
1
 40
1
 40
1
 10
94.715501
 20
191.150962
 30
0.0
 10
94.665386
 20
191.201753
 30
0.0
 10
94.597402
 20
191.230267
 30
0.0
 10
94.526528
 20
191.230220
 30
0.0
  0
LWPOLYLINE
  5
315
100
AcDbEntity
  8
Layer_1
 62
7
100
AcDbPolyline
 90
1
 70
1
 10
75.370592
 20
187.253720
 30
0.0
  0
SPLINE
  5
316
100
AcDbEntity
  8
Layer_1
 62
7
100
AcDbSpline
 70
8
 71
3
 72
8
 73
4
 74
0
 40
0
 40
0
 40
0
 40
0
 40
1
 40
1
 40
1
 40
1
 10
70.662353
 20
191.291220
 30
0.0
 10
70.568467
 20
191.291277
 30
0.0
 10
70.478410
 20
191.252859
 30
0.0
 10
70.412016
 20
191.184429
 30
0.0
  0
SPLINE
  5
317
100
AcDbEntity
  8
Layer_1
 62
7
100
AcDbSpline
 70
8
 71
3
 72
8
 73
4
 74
0
 40
0
 40
0
 40
0
 40
0
 40
1
 40
1
 40
1
 40
1
 10
70.412016
 20
191.184429
 30
0.0
 10
70.345621
 20
191.115998
 30
0.0
 10
70.308335
 20
191.023166
 30
0.0
 10
70.308370
 20
190.926380
 30
0.0
  0
SPLINE
  5
318
100
AcDbEntity
  8
Layer_1
 62
7
100
AcDbSpline
 70
8
 71
3
 72
8
 73
4
 74
0
 40
0
 40
0
 40
0
 40
0
 40
1
 40
1
 40
1
 40
1
 10
70.308370
 20
190.926380
 30
0.0
 10
70.308338
 20
190.829595
 30
0.0
 10
70.345625
 20
190.736766
 30
0.0
 10
70.412019
 20
190.668338
 30
0.0
  0
SPLINE
  5
319
100
AcDbEntity
  8
Layer_1
 62
7
100
AcDbSpline
 70
8
 71
3
 72
8
 73
4
 74
0
 40
0
 40
0
 40
0
 40
0
 40
1
 40
1
 40
1
 40
1
 10
70.412019
 20
190.668338
 30
0.0
 10
70.478413
 20
190.599909
 30
0.0
 10
70.568469
 20
190.561493
 30
0.0
 10
70.662353
 20
190.561550
 30
0.0
  0
SPLINE
  5
31a
100
AcDbEntity
  8
Layer_1
 62
7
100
AcDbSpline
 70
8
 71
3
 72
8
 73
4
 74
0
 40
0
 40
0
 40
0
 40
0
 40
1
 40
1
 40
1
 40
1
 10
70.662353
 20
190.561550
 30
0.0
 10
70.857664
 20
190.561725
 30
0.0
 10
71.015887
 20
190.725034
 30
0.0
 10
71.015820
 20
190.926380
 30
0.0
  0
SPLINE
  5
31b
100
AcDbEntity
  8
Layer_1
 62
7
100
AcDbSpline
 70
8
 71
3
 72
8
 73
4
 74
0
 40
0
 40
0
 40
0
 40
0
 40
1
 40
1
 40
1
 40
1
 10
71.015820
 20
190.926380
 30
0.0
 10
71.015892
 20
191.127730
 30
0.0
 10
70.857668
 20
191.291045
 30
0.0
 10
70.662353
 20
191.291220
 30
0.0
  0
LWPOLYLINE
  5
31c
100
AcDbEntity
  8
Layer_1
 62
7
100
AcDbPolyline
 90
1
 70
1
 10
94.526528
 20
191.230220
 30
0.0
  0
SPLINE
  5
31d
100
AcDbEntity
  8
Layer_1
 62
7
100
AcDbSpline
 70
8
 71
3
 72
8
 73
4
 74
0
 40
0
 40
0
 40
0
 40
0
 40
1
 40
1
 40
1
 40
1
 10
89.686516
 20
192.026060
 30
0.0
 10
89.284798
 20
192.026114
 30
0.0
 10
88.899518
 20
191.868079
 30
0.0
 10
88.615458
 20
191.586732
 30
0.0
  0
SPLINE
  5
31e
100
AcDbEntity
  8
Layer_1
 62
7
100
AcDbSpline
 70
8
 71
3
 72
8
 73
4
 74
0
 40
0
 40
0
 40
0
 40
0
 40
1
 40
1
 40
1
 40
1
 10
88.615458
 20
191.586732
 30
0.0
 10
88.331397
 20
191.305385
 30
0.0
 10
88.171833
 20
190.923779
 30
0.0
 10
88.171879
 20
190.525890
 30
0.0
  0
SPLINE
  5
31f
100
AcDbEntity
  8
Layer_1
 62
7
100
AcDbSpline
 70
8
 71
3
 72
8
 73
4
 74
0
 40
0
 40
0
 40
0
 40
0
 40
1
 40
1
 40
1
 40
1
 10
88.171879
 20
190.525890
 30
0.0
 10
88.171833
 20
190.128001
 30
0.0
 10
88.331397
 20
189.746395
 30
0.0
 10
88.615458
 20
189.465048
 30
0.0
  0
SPLINE
  5
320
100
AcDbEntity
  8
Layer_1
 62
7
100
AcDbSpline
 70
8
 71
3
 72
8
 73
4
 74
0
 40
0
 40
0
 40
0
 40
0
 40
1
 40
1
 40
1
 40
1
 10
88.615458
 20
189.465048
 30
0.0
 10
88.899518
 20
189.183701
 30
0.0
 10
89.284798
 20
189.025666
 30
0.0
 10
89.686516
 20
189.025720
 30
0.0
  0
SPLINE
  5
321
100
AcDbEntity
  8
Layer_1
 62
7
100
AcDbSpline
 70
8
 71
3
 72
8
 73
4
 74
0
 40
0
 40
0
 40
0
 40
0
 40
1
 40
1
 40
1
 40
1
 10
89.686516
 20
189.025720
 30
0.0
 10
90.522858
 20
189.025892
 30
0.0
 10
91.200729
 20
189.697518
 30
0.0
 10
91.200634
 20
190.525890
 30
0.0
  0
SPLINE
  5
322
100
AcDbEntity
  8
Layer_1
 62
7
100
AcDbSpline
 70
8
 71
3
 72
8
 73
4
 74
0
 40
0
 40
0
 40
0
 40
0
 40
1
 40
1
 40
1
 40
1
 10
91.200634
 20
190.525890
 30
0.0
 10
91.200729
 20
191.354262
 30
0.0
 10
90.522858
 20
192.025888
 30
0.0
 10
89.686516
 20
192.026060
 30
0.0
  0
LWPOLYLINE
  5
323
100
AcDbEntity
  8
Layer_1
 62
7
100
AcDbPolyline
 90
1
 70
1
 10
70.662353
 20
191.291220
 30
0.0
  0
SPLINE
  5
324
100
AcDbEntity
  8
Layer_1
 62
7
100
AcDbSpline
 70
8
 71
3
 72
8
 73
4
 74
0
 40
0
 40
0
 40
0
 40
0
 40
1
 40
1
 40
1
 40
1
 10
84.916264
 20
192.026060
 30
0.0
 10
84.523698
 20
192.026022
 30
0.0
 10
84.147226
 20
191.867946
 30
0.0
 10
83.869669
 20
191.586609
 30
0.0
  0
SPLINE
  5
325
100
AcDbEntity
  8
Layer_1
 62
7
100
AcDbSpline
 70
8
 71
3
 72
8
 73
4
 74
0
 40
0
 40
0
 40
0
 40
0
 40
1
 40
1
 40
1
 40
1
 10
83.869669
 20
191.586609
 30
0.0
 10
83.592112
 20
191.305272
 30
0.0
 10
83.436207
 20
190.923719
 30
0.0
 10
83.436251
 20
190.525890
 30
0.0
  0
SPLINE
  5
326
100
AcDbEntity
  8
Layer_1
 62
7
100
AcDbSpline
 70
8
 71
3
 72
8
 73
4
 74
0
 40
0
 40
0
 40
0
 40
0
 40
1
 40
1
 40
1
 40
1
 10
83.436251
 20
190.525890
 30
0.0
 10
83.436207
 20
190.128061
 30
0.0
 10
83.592112
 20
189.746508
 30
0.0
 10
83.869669
 20
189.465171
 30
0.0
  0
SPLINE
  5
327
100
AcDbEntity
  8
Layer_1
 62
7
100
AcDbSpline
 70
8
 71
3
 72
8
 73
4
 74
0
 40
0
 40
0
 40
0
 40
0
 40
1
 40
1
 40
1
 40
1
 10
83.869669
 20
189.465171
 30
0.0
 10
84.147226
 20
189.183834
 30
0.0
 10
84.523698
 20
189.025758
 30
0.0
 10
84.916264
 20
189.025720
 30
0.0
  0
SPLINE
  5
328
100
AcDbEntity
  8
Layer_1
 62
7
100
AcDbSpline
 70
8
 71
3
 72
8
 73
4
 74
0
 40
0
 40
0
 40
0
 40
0
 40
1
 40
1
 40
1
 40
1
 10
84.916264
 20
189.025720
 30
0.0
 10
85.308830
 20
189.025758
 30
0.0
 10
85.685302
 20
189.183834
 30
0.0
 10
85.962859
 20
189.465171
 30
0.0
  0
SPLINE
  5
329
100
AcDbEntity
  8
Layer_1
 62
7
100
AcDbSpline
 70
8
 71
3
 72
8
 73
4
 74
0
 40
0
 40
0
 40
0
 40
0
 40
1
 40
1
 40
1
 40
1
 10
85.962859
 20
189.465171
 30
0.0
 10
86.240416
 20
189.746508
 30
0.0
 10
86.396321
 20
190.128061
 30
0.0
 10
86.396277
 20
190.525890
 30
0.0
  0
SPLINE
  5
32a
100
AcDbEntity
  8
Layer_1
 62
7
100
AcDbSpline
 70
8
 71
3
 72
8
 73
4
 74
0
 40
0
 40
0
 40
0
 40
0
 40
1
 40
1
 40
1
 40
1
 10
86.396277
 20
190.525890
 30
0.0
 10
86.396321
 20
190.923719
 30
0.0
 10
86.240416
 20
191.305272
 30
0.0
 10
85.962859
 20
191.586609
 30
0.0
  0
SPLINE
  5
32b
100
AcDbEntity
  8
Layer_1
 62
7
100
AcDbSpline
 70
8
 71
3
 72
8
 73
4
 74
0
 40
0
 40
0
 40
0
 40
0
 40
1
 40
1
 40
1
 40
1
 10
85.962859
 20
191.586609
 30
0.0
 10
85.685302
 20
191.867946
 30
0.0
 10
85.308830
 20
192.026022
 30
0.0
 10
84.916264
 20
192.026060
 30
0.0
  0
LWPOLYLINE
  5
32c
100
AcDbEntity
  8
Layer_1
 62
7
100
AcDbPolyline
 90
1
 70
1
 10
89.686516
 20
192.026060
 30
0.0
  0
SPLINE
  5
32d
100
AcDbEntity
  8
Layer_1
 62
7
100
AcDbSpline
 70
8
 71
3
 72
8
 73
4
 74
0
 40
0
 40
0
 40
0
 40
0
 40
1
 40
1
 40
1
 40
1
 10
80.143429
 20
192.026060
 30
0.0
 10
79.318774
 20
192.025838
 30
0.0
 10
78.650403
 20
191.354227
 30
0.0
 10
78.650496
 20
190.525890
 30
0.0
  0
SPLINE
  5
32e
100
AcDbEntity
  8
Layer_1
 62
7
100
AcDbSpline
 70
8
 71
3
 72
8
 73
4
 74
0
 40
0
 40
0
 40
0
 40
0
 40
1
 40
1
 40
1
 40
1
 10
78.650496
 20
190.525890
 30
0.0
 10
78.650403
 20
189.697553
 30
0.0
 10
79.318774
 20
189.025942
 30
0.0
 10
80.143429
 20
189.025720
 30
0.0
  0
SPLINE
  5
32f
100
AcDbEntity
  8
Layer_1
 62
7
100
AcDbSpline
 70
8
 71
3
 72
8
 73
4
 74
0
 40
0
 40
0
 40
0
 40
0
 40
1
 40
1
 40
1
 40
1
 10
80.143429
 20
189.025720
 30
0.0
 10
80.539535
 20
189.025689
 30
0.0
 10
80.919425
 20
189.183734
 30
0.0
 10
81.199510
 20
189.465079
 30
0.0
  0
SPLINE
  5
330
100
AcDbEntity
  8
Layer_1
 62
7
100
AcDbSpline
 70
8
 71
3
 72
8
 73
4
 74
0
 40
0
 40
0
 40
0
 40
0
 40
1
 40
1
 40
1
 40
1
 10
81.199510
 20
189.465079
 30
0.0
 10
81.479594
 20
189.746423
 30
0.0
 10
81.636923
 20
190.128016
 30
0.0
 10
81.636878
 20
190.525890
 30
0.0
  0
SPLINE
  5
331
100
AcDbEntity
  8
Layer_1
 62
7
100
AcDbSpline
 70
8
 71
3
 72
8
 73
4
 74
0
 40
0
 40
0
 40
0
 40
0
 40
1
 40
1
 40
1
 40
1
 10
81.636878
 20
190.525890
 30
0.0
 10
81.636923
 20
190.923764
 30
0.0
 10
81.479594
 20
191.305357
 30
0.0
 10
81.199510
 20
191.586701
 30
0.0
  0
SPLINE
  5
332
100
AcDbEntity
  8
Layer_1
 62
7
100
AcDbSpline
 70
8
 71
3
 72
8
 73
4
 74
0
 40
0
 40
0
 40
0
 40
0
 40
1
 40
1
 40
1
 40
1
 10
81.199510
 20
191.586701
 30
0.0
 10
80.919425
 20
191.868046
 30
0.0
 10
80.539535
 20
192.026091
 30
0.0
 10
80.143429
 20
192.026060
 30
0.0
  0
LWPOLYLINE
  5
333
100
AcDbEntity
  8
Layer_1
 62
7
100
AcDbPolyline
 90
1
 70
1
 10
84.916264
 20
192.026060
 30
0.0
  0
SPLINE
  5
334
100
AcDbEntity
  8
Layer_1
 62
7
100
AcDbSpline
 70
8
 71
3
 72
8
 73
4
 74
0
 40
0
 40
0
 40
0
 40
0
 40
1
 40
1
 40
1
 40
1
 10
75.369560
 20
192.026060
 30
0.0
 10
74.964248
 20
192.026027
 30
0.0
 10
74.575551
 20
191.867953
 30
0.0
 10
74.288980
 20
191.586616
 30
0.0
  0
SPLINE
  5
335
100
AcDbEntity
  8
Layer_1
 62
7
100
AcDbSpline
 70
8
 71
3
 72
8
 73
4
 74
0
 40
0
 40
0
 40
0
 40
0
 40
1
 40
1
 40
1
 40
1
 10
74.288980
 20
191.586616
 30
0.0
 10
74.002410
 20
191.305278
 30
0.0
 10
73.841441
 20
190.923722
 30
0.0
 10
73.841487
 20
190.525890
 30
0.0
  0
SPLINE
  5
336
100
AcDbEntity
  8
Layer_1
 62
7
100
AcDbSpline
 70
8
 71
3
 72
8
 73
4
 74
0
 40
0
 40
0
 40
0
 40
0
 40
1
 40
1
 40
1
 40
1
 10
73.841487
 20
190.525890
 30
0.0
 10
73.841441
 20
190.128058
 30
0.0
 10
74.002410
 20
189.746502
 30
0.0
 10
74.288980
 20
189.465164
 30
0.0
  0
SPLINE
  5
337
100
AcDbEntity
  8
Layer_1
 62
7
100
AcDbSpline
 70
8
 71
3
 72
8
 73
4
 74
0
 40
0
 40
0
 40
0
 40
0
 40
1
 40
1
 40
1
 40
1
 10
74.288980
 20
189.465164
 30
0.0
 10
74.575551
 20
189.183827
 30
0.0
 10
74.964248
 20
189.025753
 30
0.0
 10
75.369560
 20
189.025720
 30
0.0
  0
SPLINE
  5
338
100
AcDbEntity
  8
Layer_1
 62
7
100
AcDbSpline
 70
8
 71
3
 72
8
 73
4
 74
0
 40
0
 40
0
 40
0
 40
0
 40
1
 40
1
 40
1
 40
1
 10
75.369560
 20
189.025720
 30
0.0
 10
75.774961
 20
189.025619
 30
0.0
 10
76.163791
 20
189.183633
 30
0.0
 10
76.450473
 20
189.464985
 30
0.0
  0
SPLINE
  5
339
100
AcDbEntity
  8
Layer_1
 62
7
100
AcDbSpline
 70
8
 71
3
 72
8
 73
4
 74
0
 40
0
 40
0
 40
0
 40
0
 40
1
 40
1
 40
1
 40
1
 10
76.450473
 20
189.464985
 30
0.0
 10
76.737155
 20
189.746338
 30
0.0
 10
76.898194
 20
190.127970
 30
0.0
 10
76.898148
 20
190.525890
 30
0.0
  0
SPLINE
  5
33a
100
AcDbEntity
  8
Layer_1
 62
7
100
AcDbSpline
 70
8
 71
3
 72
8
 73
4
 74
0
 40
0
 40
0
 40
0
 40
0
 40
1
 40
1
 40
1
 40
1
 10
76.898148
 20
190.525890
 30
0.0
 10
76.898194
 20
190.923810
 30
0.0
 10
76.737155
 20
191.305442
 30
0.0
 10
76.450473
 20
191.586795
 30
0.0
  0
SPLINE
  5
33b
100
AcDbEntity
  8
Layer_1
 62
7
100
AcDbSpline
 70
8
 71
3
 72
8
 73
4
 74
0
 40
0
 40
0
 40
0
 40
0
 40
1
 40
1
 40
1
 40
1
 10
76.450473
 20
191.586795
 30
0.0
 10
76.163791
 20
191.868147
 30
0.0
 10
75.774961
 20
192.026161
 30
0.0
 10
75.369560
 20
192.026060
 30
0.0
  0
LWPOLYLINE
  5
33c
100
AcDbEntity
  8
Layer_1
 62
7
100
AcDbPolyline
 90
1
 70
1
 10
80.143429
 20
192.026060
 30
0.0
  0
SPLINE
  5
33d
100
AcDbEntity
  8
Layer_1
 62
7
100
AcDbSpline
 70
8
 71
3
 72
8
 73
4
 74
0
 40
0
 40
0
 40
0
 40
0
 40
1
 40
1
 40
1
 40
1
 10
89.737676
 20
196.211330
 30
0.0
 10
89.417589
 20
196.211320
 30
0.0
 10
89.158058
 20
195.945545
 30
0.0
 10
89.157865
 20
195.617570
 30
0.0
  0
SPLINE
  5
33e
100
AcDbEntity
  8
Layer_1
 62
7
100
AcDbSpline
 70
8
 71
3
 72
8
 73
4
 74
0
 40
0
 40
0
 40
0
 40
0
 40
1
 40
1
 40
1
 40
1
 10
89.157865
 20
195.617570
 30
0.0
 10
89.157823
 20
195.459975
 30
0.0
 10
89.218891
 20
195.308820
 30
0.0
 10
89.327631
 20
195.197367
 30
0.0
  0
SPLINE
  5
33f
100
AcDbEntity
  8
Layer_1
 62
7
100
AcDbSpline
 70
8
 71
3
 72
8
 73
4
 74
0
 40
0
 40
0
 40
0
 40
0
 40
1
 40
1
 40
1
 40
1
 10
89.327631
 20
195.197367
 30
0.0
 10
89.436370
 20
195.085914
 30
0.0
 10
89.583872
 20
195.023295
 30
0.0
 10
89.737676
 20
195.023290
 30
0.0
  0
SPLINE
  5
340
100
AcDbEntity
  8
Layer_1
 62
7
100
AcDbSpline
 70
8
 71
3
 72
8
 73
4
 74
0
 40
0
 40
0
 40
0
 40
0
 40
1
 40
1
 40
1
 40
1
 10
89.737676
 20
195.023290
 30
0.0
 10
89.891480
 20
195.023296
 30
0.0
 10
90.038980
 20
195.085915
 30
0.0
 10
90.147719
 20
195.197368
 30
0.0
  0
SPLINE
  5
341
100
AcDbEntity
  8
Layer_1
 62
7
100
AcDbSpline
 70
8
 71
3
 72
8
 73
4
 74
0
 40
0
 40
0
 40
0
 40
0
 40
1
 40
1
 40
1
 40
1
 10
90.147719
 20
195.197368
 30
0.0
 10
90.256458
 20
195.308821
 30
0.0
 10
90.317526
 20
195.459976
 30
0.0
 10
90.317484
 20
195.617570
 30
0.0
  0
SPLINE
  5
342
100
AcDbEntity
  8
Layer_1
 62
7
100
AcDbSpline
 70
8
 71
3
 72
8
 73
4
 74
0
 40
0
 40
0
 40
0
 40
0
 40
1
 40
1
 40
1
 40
1
 10
90.317484
 20
195.617570
 30
0.0
 10
90.317291
 20
195.945544
 30
0.0
 10
90.057762
 20
196.211318
 30
0.0
 10
89.737676
 20
196.211330
 30
0.0
  0
LWPOLYLINE
  5
343
100
AcDbEntity
  8
Layer_1
 62
7
100
AcDbPolyline
 90
1
 70
1
 10
75.369560
 20
192.026060
 30
0.0
  0
SPLINE
  5
344
100
AcDbEntity
  8
Layer_1
 62
7
100
AcDbSpline
 70
8
 71
3
 72
8
 73
4
 74
0
 40
0
 40
0
 40
0
 40
0
 40
1
 40
1
 40
1
 40
1
 10
75.414518
 20
196.276430
 30
0.0
 10
75.020717
 20
196.276461
 30
0.0
 10
74.701445
 20
195.965751
 30
0.0
 10
74.701384
 20
195.582420
 30
0.0
  0
SPLINE
  5
345
100
AcDbEntity
  8
Layer_1
 62
7
100
AcDbSpline
 70
8
 71
3
 72
8
 73
4
 74
0
 40
0
 40
0
 40
0
 40
0
 40
1
 40
1
 40
1
 40
1
 10
74.701384
 20
195.582420
 30
0.0
 10
74.701272
 20
195.398247
 30
0.0
 10
74.776357
 20
195.221581
 30
0.0
 10
74.910110
 20
195.091318
 30
0.0
  0
SPLINE
  5
346
100
AcDbEntity
  8
Layer_1
 62
7
100
AcDbSpline
 70
8
 71
3
 72
8
 73
4
 74
0
 40
0
 40
0
 40
0
 40
0
 40
1
 40
1
 40
1
 40
1
 10
74.910110
 20
195.091318
 30
0.0
 10
75.043862
 20
194.961055
 30
0.0
 10
75.225315
 20
194.887875
 30
0.0
 10
75.414518
 20
194.887890
 30
0.0
  0
SPLINE
  5
347
100
AcDbEntity
  8
Layer_1
 62
7
100
AcDbSpline
 70
8
 71
3
 72
8
 73
4
 74
0
 40
0
 40
0
 40
0
 40
0
 40
1
 40
1
 40
1
 40
1
 10
75.414518
 20
194.887890
 30
0.0
 10
75.603721
 20
194.887875
 30
0.0
 10
75.785174
 20
194.961055
 30
0.0
 10
75.918926
 20
195.091318
 30
0.0
  0
SPLINE
  5
348
100
AcDbEntity
  8
Layer_1
 62
7
100
AcDbSpline
 70
8
 71
3
 72
8
 73
4
 74
0
 40
0
 40
0
 40
0
 40
0
 40
1
 40
1
 40
1
 40
1
 10
75.918926
 20
195.091318
 30
0.0
 10
76.052679
 20
195.221581
 30
0.0
 10
76.127764
 20
195.398247
 30
0.0
 10
76.127652
 20
195.582420
 30
0.0
  0
SPLINE
  5
349
100
AcDbEntity
  8
Layer_1
 62
7
100
AcDbSpline
 70
8
 71
3
 72
8
 73
4
 74
0
 40
0
 40
0
 40
0
 40
0
 40
1
 40
1
 40
1
 40
1
 10
76.127652
 20
195.582420
 30
0.0
 10
76.127591
 20
195.965751
 30
0.0
 10
75.808319
 20
196.276461
 30
0.0
 10
75.414518
 20
196.276430
 30
0.0
  0
LWPOLYLINE
  5
34a
100
AcDbEntity
  8
Layer_1
 62
7
100
AcDbPolyline
 90
1
 70
1
 10
89.737676
 20
196.211330
 30
0.0
  0
SPLINE
  5
34b
100
AcDbEntity
  8
Layer_1
 62
7
100
AcDbSpline
 70
8
 71
3
 72
8
 73
4
 74
0
 40
0
 40
0
 40
0
 40
0
 40
1
 40
1
 40
1
 40
1
 10
84.918330
 20
196.759610
 30
0.0
 10
84.118586
 20
196.759828
 30
0.0
 10
83.470081
 20
196.114793
 30
0.0
 10
83.469839
 20
195.318870
 30
0.0
  0
SPLINE
  5
34c
100
AcDbEntity
  8
Layer_1
 62
7
100
AcDbSpline
 70
8
 71
3
 72
8
 73
4
 74
0
 40
0
 40
0
 40
0
 40
0
 40
1
 40
1
 40
1
 40
1
 10
83.469839
 20
195.318870
 30
0.0
 10
83.469817
 20
194.936563
 30
0.0
 10
83.622428
 20
194.569913
 30
0.0
 10
83.894087
 20
194.299611
 30
0.0
  0
SPLINE
  5
34d
100
AcDbEntity
  8
Layer_1
 62
7
100
AcDbSpline
 70
8
 71
3
 72
8
 73
4
 74
0
 40
0
 40
0
 40
0
 40
0
 40
1
 40
1
 40
1
 40
1
 10
83.894087
 20
194.299611
 30
0.0
 10
84.165745
 20
194.029308
 30
0.0
 10
84.534188
 20
193.877505
 30
0.0
 10
84.918330
 20
193.877610
 30
0.0
  0
SPLINE
  5
34e
100
AcDbEntity
  8
Layer_1
 62
7
100
AcDbSpline
 70
8
 71
3
 72
8
 73
4
 74
0
 40
0
 40
0
 40
0
 40
0
 40
1
 40
1
 40
1
 40
1
 10
84.918330
 20
193.877610
 30
0.0
 10
85.718077
 20
193.877676
 30
0.0
 10
86.366351
 20
194.522944
 30
0.0
 10
86.366305
 20
195.318870
 30
0.0
  0
SPLINE
  5
34f
100
AcDbEntity
  8
Layer_1
 62
7
100
AcDbSpline
 70
8
 71
3
 72
8
 73
4
 74
0
 40
0
 40
0
 40
0
 40
0
 40
1
 40
1
 40
1
 40
1
 10
86.366305
 20
195.318870
 30
0.0
 10
86.366063
 20
196.114593
 30
0.0
 10
85.717873
 20
196.759544
 30
0.0
 10
84.918330
 20
196.759610
 30
0.0
  0
LWPOLYLINE
  5
350
100
AcDbEntity
  8
Layer_1
 62
7
100
AcDbPolyline
 90
1
 70
1
 10
75.414518
 20
196.276430
 30
0.0
  0
SPLINE
  5
351
100
AcDbEntity
  8
Layer_1
 62
7
100
AcDbSpline
 70
8
 71
3
 72
8
 73
4
 74
0
 40
0
 40
0
 40
0
 40
0
 40
1
 40
1
 40
1
 40
1
 10
80.142910
 20
196.775110
 30
0.0
 10
79.311929
 20
196.774932
 30
0.0
 10
78.638433
 20
196.119021
 30
0.0
 10
78.638611
 20
195.310090
 30
0.0
  0
SPLINE
  5
352
100
AcDbEntity
  8
Layer_1
 62
7
100
AcDbSpline
 70
8
 71
3
 72
8
 73
4
 74
0
 40
0
 40
0
 40
0
 40
0
 40
1
 40
1
 40
1
 40
1
 10
78.638611
 20
195.310090
 30
0.0
 10
78.638716
 20
194.501354
 30
0.0
 10
79.312130
 20
193.845748
 30
0.0
 10
80.142910
 20
193.845570
 30
0.0
  0
SPLINE
  5
353
100
AcDbEntity
  8
Layer_1
 62
7
100
AcDbSpline
 70
8
 71
3
 72
8
 73
4
 74
0
 40
0
 40
0
 40
0
 40
0
 40
1
 40
1
 40
1
 40
1
 10
80.142910
 20
193.845570
 30
0.0
 10
80.973893
 20
193.845469
 30
0.0
 10
81.647622
 20
194.501157
 30
0.0
 10
81.647728
 20
195.310090
 30
0.0
  0
SPLINE
  5
354
100
AcDbEntity
  8
Layer_1
 62
7
100
AcDbSpline
 70
8
 71
3
 72
8
 73
4
 74
0
 40
0
 40
0
 40
0
 40
0
 40
1
 40
1
 40
1
 40
1
 10
81.647728
 20
195.310090
 30
0.0
 10
81.647814
 20
195.698640
 30
0.0
 10
81.489303
 20
196.071302
 30
0.0
 10
81.207080
 20
196.346061
 30
0.0
  0
SPLINE
  5
355
100
AcDbEntity
  8
Layer_1
 62
7
100
AcDbSpline
 70
8
 71
3
 72
8
 73
4
 74
0
 40
0
 40
0
 40
0
 40
0
 40
1
 40
1
 40
1
 40
1
 10
81.207080
 20
196.346061
 30
0.0
 10
80.924857
 20
196.620820
 30
0.0
 10
80.542051
 20
196.775158
 30
0.0
 10
80.142910
 20
196.775110
 30
0.0
  0
LWPOLYLINE
  5
356
100
AcDbEntity
  8
Layer_1
 62
7
100
AcDbPolyline
 90
1
 70
1
 10
84.918330
 20
196.759610
 30
0.0
  0
SPLINE
  5
357
100
AcDbEntity
  8
Layer_1
 62
7
100
AcDbSpline
 70
8
 71
3
 72
8
 73
4
 74
0
 40
0
 40
0
 40
0
 40
0
 40
1
 40
1
 40
1
 40
1
 10
93.992194
 20
198.753801
 30
0.0
 10
93.527968
 20
198.753875
 30
0.0
 10
93.082735
 20
198.569495
 30
0.0
 10
92.754477
 20
198.241238
 30
0.0
  0
SPLINE
  5
358
100
AcDbEntity
  8
Layer_1
 62
7
100
AcDbSpline
 70
8
 71
3
 72
8
 73
4
 74
0
 40
0
 40
0
 40
0
 40
0
 40
1
 40
1
 40
1
 40
1
 10
92.754477
 20
198.241238
 30
0.0
 10
92.426220
 20
197.912981
 30
0.0
 10
92.241840
 20
197.467748
 30
0.0
 10
92.241914
 20
197.003522
 30
0.0
  0
SPLINE
  5
359
100
AcDbEntity
  8
Layer_1
 62
7
100
AcDbSpline
 70
8
 71
3
 72
8
 73
4
 74
0
 40
0
 40
0
 40
0
 40
0
 40
1
 40
1
 40
1
 40
1
 10
92.241914
 20
197.003522
 30
0.0
 10
92.241977
 20
196.539386
 30
0.0
 10
92.426418
 20
196.094285
 30
0.0
 10
92.754660
 20
195.766140
 30
0.0
  0
SPLINE
  5
35a
100
AcDbEntity
  8
Layer_1
 62
7
100
AcDbSpline
 70
8
 71
3
 72
8
 73
4
 74
0
 40
0
 40
0
 40
0
 40
0
 40
1
 40
1
 40
1
 40
1
 10
92.754660
 20
195.766140
 30
0.0
 10
93.082903
 20
195.437995
 30
0.0
 10
93.528058
 20
195.253686
 30
0.0
 10
93.992194
 20
195.253760
 30
0.0
  0
SPLINE
  5
35b
100
AcDbEntity
  8
Layer_1
 62
7
100
AcDbSpline
 70
8
 71
3
 72
8
 73
4
 74
0
 40
0
 40
0
 40
0
 40
0
 40
1
 40
1
 40
1
 40
1
 10
93.992194
 20
195.253760
 30
0.0
 10
94.958508
 20
195.253889
 30
0.0
 10
95.741829
 20
196.037208
 30
0.0
 10
95.741960
 20
197.003522
 30
0.0
  0
SPLINE
  5
35c
100
AcDbEntity
  8
Layer_1
 62
7
100
AcDbSpline
 70
8
 71
3
 72
8
 73
4
 74
0
 40
0
 40
0
 40
0
 40
0
 40
1
 40
1
 40
1
 40
1
 10
95.741960
 20
197.003522
 30
0.0
 10
95.742034
 20
197.467659
 30
0.0
 10
95.557724
 20
197.912814
 30
0.0
 10
95.229578
 20
198.241057
 30
0.0
  0
SPLINE
  5
35d
100
AcDbEntity
  8
Layer_1
 62
7
100
AcDbSpline
 70
8
 71
3
 72
8
 73
4
 74
0
 40
0
 40
0
 40
0
 40
0
 40
1
 40
1
 40
1
 40
1
 10
95.229578
 20
198.241057
 30
0.0
 10
94.901432
 20
198.569299
 30
0.0
 10
94.456331
 20
198.753739
 30
0.0
 10
93.992194
 20
198.753801
 30
0.0
  0
LWPOLYLINE
  5
35e
100
AcDbEntity
  8
Layer_1
 62
7
100
AcDbPolyline
 90
1
 70
1
 10
80.142910
 20
196.775110
 30
0.0
  0
SPLINE
  5
35f
100
AcDbEntity
  8
Layer_1
 62
7
100
AcDbSpline
 70
8
 71
3
 72
8
 73
4
 74
0
 40
0
 40
0
 40
0
 40
0
 40
1
 40
1
 40
1
 40
1
 10
70.992049
 20
198.753801
 30
0.0
 10
70.527823
 20
198.753876
 30
0.0
 10
70.082589
 20
198.569496
 30
0.0
 10
69.754332
 20
198.241239
 30
0.0
  0
SPLINE
  5
360
100
AcDbEntity
  8
Layer_1
 62
7
100
AcDbSpline
 70
8
 71
3
 72
8
 73
4
 74
0
 40
0
 40
0
 40
0
 40
0
 40
1
 40
1
 40
1
 40
1
 10
69.754332
 20
198.241239
 30
0.0
 10
69.426074
 20
197.912982
 30
0.0
 10
69.241694
 20
197.467748
 30
0.0
 10
69.241768
 20
197.003522
 30
0.0
  0
SPLINE
  5
361
100
AcDbEntity
  8
Layer_1
 62
7
100
AcDbSpline
 70
8
 71
3
 72
8
 73
4
 74
0
 40
0
 40
0
 40
0
 40
0
 40
1
 40
1
 40
1
 40
1
 10
69.241768
 20
197.003522
 30
0.0
 10
69.241831
 20
196.539386
 30
0.0
 10
69.426272
 20
196.094285
 30
0.0
 10
69.754515
 20
195.766140
 30
0.0
  0
SPLINE
  5
362
100
AcDbEntity
  8
Layer_1
 62
7
100
AcDbSpline
 70
8
 71
3
 72
8
 73
4
 74
0
 40
0
 40
0
 40
0
 40
0
 40
1
 40
1
 40
1
 40
1
 10
69.754515
 20
195.766140
 30
0.0
 10
70.082757
 20
195.437994
 30
0.0
 10
70.527913
 20
195.253685
 30
0.0
 10
70.992049
 20
195.253760
 30
0.0
  0
SPLINE
  5
363
100
AcDbEntity
  8
Layer_1
 62
7
100
AcDbSpline
 70
8
 71
3
 72
8
 73
4
 74
0
 40
0
 40
0
 40
0
 40
0
 40
1
 40
1
 40
1
 40
1
 10
70.992049
 20
195.253760
 30
0.0
 10
71.958362
 20
195.253890
 30
0.0
 10
72.741682
 20
196.037209
 30
0.0
 10
72.741813
 20
197.003522
 30
0.0
  0
SPLINE
  5
364
100
AcDbEntity
  8
Layer_1
 62
7
100
AcDbSpline
 70
8
 71
3
 72
8
 73
4
 74
0
 40
0
 40
0
 40
0
 40
0
 40
1
 40
1
 40
1
 40
1
 10
72.741813
 20
197.003522
 30
0.0
 10
72.741887
 20
197.467658
 30
0.0
 10
72.557578
 20
197.912814
 30
0.0
 10
72.229432
 20
198.241056
 30
0.0
  0
SPLINE
  5
365
100
AcDbEntity
  8
Layer_1
 62
7
100
AcDbSpline
 70
8
 71
3
 72
8
 73
4
 74
0
 40
0
 40
0
 40
0
 40
0
 40
1
 40
1
 40
1
 40
1
 10
72.229432
 20
198.241056
 30
0.0
 10
71.901286
 20
198.569298
 30
0.0
 10
71.456185
 20
198.753738
 30
0.0
 10
70.992049
 20
198.753801
 30
0.0
  0
LWPOLYLINE
  5
366
100
AcDbEntity
  8
Layer_1
 62
7
100
AcDbPolyline
 90
1
 70
1
 10
93.992194
 20
198.753801
 30
0.0
  0
SPLINE
  5
367
100
AcDbEntity
  8
Layer_1
 62
7
100
AcDbSpline
 70
8
 71
3
 72
8
 73
4
 74
0
 40
0
 40
0
 40
0
 40
0
 40
1
 40
1
 40
1
 40
1
 10
77.968750
 20
105.061900
 30
0.0
 10
77.968750
 20
104.133642
 30
0.0
 10
77.600001
 20
103.243404
 30
0.0
 10
76.943624
 20
102.587026
 30
0.0
  0
SPLINE
  5
368
100
AcDbEntity
  8
Layer_1
 62
7
100
AcDbSpline
 70
8
 71
3
 72
8
 73
4
 74
0
 40
0
 40
0
 40
0
 40
0
 40
1
 40
1
 40
1
 40
1
 10
76.943624
 20
102.587026
 30
0.0
 10
76.287246
 20
101.930649
 30
0.0
 10
75.397008
 20
101.561900
 30
0.0
 10
74.468750
 20
101.561900
 30
0.0
  0
SPLINE
  5
369
100
AcDbEntity
  8
Layer_1
 62
7
100
AcDbSpline
 70
8
 71
3
 72
8
 73
4
 74
0
 40
0
 40
0
 40
0
 40
0
 40
1
 40
1
 40
1
 40
1
 10
74.468750
 20
101.561900
 30
0.0
 10
73.540492
 20
101.561900
 30
0.0
 10
72.650254
 20
101.930649
 30
0.0
 10
71.993876
 20
102.587026
 30
0.0
  0
SPLINE
  5
36a
100
AcDbEntity
  8
Layer_1
 62
7
100
AcDbSpline
 70
8
 71
3
 72
8
 73
4
 74
0
 40
0
 40
0
 40
0
 40
0
 40
1
 40
1
 40
1
 40
1
 10
71.993876
 20
102.587026
 30
0.0
 10
71.337499
 20
103.243404
 30
0.0
 10
70.968750
 20
104.133642
 30
0.0
 10
70.968750
 20
105.061900
 30
0.0
  0
SPLINE
  5
36b
100
AcDbEntity
  8
Layer_1
 62
7
100
AcDbSpline
 70
8
 71
3
 72
8
 73
4
 74
0
 40
0
 40
0
 40
0
 40
0
 40
1
 40
1
 40
1
 40
1
 10
70.968750
 20
105.061900
 30
0.0
 10
70.968750
 20
105.990158
 30
0.0
 10
71.337499
 20
106.880396
 30
0.0
 10
71.993876
 20
107.536774
 30
0.0
  0
SPLINE
  5
36c
100
AcDbEntity
  8
Layer_1
 62
7
100
AcDbSpline
 70
8
 71
3
 72
8
 73
4
 74
0
 40
0
 40
0
 40
0
 40
0
 40
1
 40
1
 40
1
 40
1
 10
71.993876
 20
107.536774
 30
0.0
 10
72.650254
 20
108.193151
 30
0.0
 10
73.540492
 20
108.561900
 30
0.0
 10
74.468750
 20
108.561900
 30
0.0
  0
SPLINE
  5
36d
100
AcDbEntity
  8
Layer_1
 62
7
100
AcDbSpline
 70
8
 71
3
 72
8
 73
4
 74
0
 40
0
 40
0
 40
0
 40
0
 40
1
 40
1
 40
1
 40
1
 10
74.468750
 20
108.561900
 30
0.0
 10
75.397008
 20
108.561900
 30
0.0
 10
76.287246
 20
108.193151
 30
0.0
 10
76.943624
 20
107.536774
 30
0.0
  0
SPLINE
  5
36e
100
AcDbEntity
  8
Layer_1
 62
7
100
AcDbSpline
 70
8
 71
3
 72
8
 73
4
 74
0
 40
0
 40
0
 40
0
 40
0
 40
1
 40
1
 40
1
 40
1
 10
76.943624
 20
107.536774
 30
0.0
 10
77.600001
 20
106.880396
 30
0.0
 10
77.968750
 20
105.990158
 30
0.0
 10
77.968750
 20
105.061900
 30
0.0
  0
LWPOLYLINE
  5
36f
100
AcDbEntity
  8
Layer_1
 62
7
100
AcDbPolyline
 90
1
 70
1
 10
70.992049
 20
198.753801
 30
0.0
  0
SPLINE
  5
370
100
AcDbEntity
  8
Layer_1
 62
7
100
AcDbSpline
 70
8
 71
3
 72
8
 73
4
 74
0
 40
0
 40
0
 40
0
 40
0
 40
1
 40
1
 40
1
 40
1
 10
93.968750
 20
105.061900
 30
0.0
 10
93.968750
 20
104.133642
 30
0.0
 10
93.600001
 20
103.243404
 30
0.0
 10
92.943624
 20
102.587026
 30
0.0
  0
SPLINE
  5
371
100
AcDbEntity
  8
Layer_1
 62
7
100
AcDbSpline
 70
8
 71
3
 72
8
 73
4
 74
0
 40
0
 40
0
 40
0
 40
0
 40
1
 40
1
 40
1
 40
1
 10
92.943624
 20
102.587026
 30
0.0
 10
92.287246
 20
101.930649
 30
0.0
 10
91.397008
 20
101.561900
 30
0.0
 10
90.468750
 20
101.561900
 30
0.0
  0
SPLINE
  5
372
100
AcDbEntity
  8
Layer_1
 62
7
100
AcDbSpline
 70
8
 71
3
 72
8
 73
4
 74
0
 40
0
 40
0
 40
0
 40
0
 40
1
 40
1
 40
1
 40
1
 10
90.468750
 20
101.561900
 30
0.0
 10
89.540492
 20
101.561900
 30
0.0
 10
88.650254
 20
101.930649
 30
0.0
 10
87.993876
 20
102.587026
 30
0.0
  0
SPLINE
  5
373
100
AcDbEntity
  8
Layer_1
 62
7
100
AcDbSpline
 70
8
 71
3
 72
8
 73
4
 74
0
 40
0
 40
0
 40
0
 40
0
 40
1
 40
1
 40
1
 40
1
 10
87.993876
 20
102.587026
 30
0.0
 10
87.337499
 20
103.243404
 30
0.0
 10
86.968750
 20
104.133642
 30
0.0
 10
86.968750
 20
105.061900
 30
0.0
  0
SPLINE
  5
374
100
AcDbEntity
  8
Layer_1
 62
7
100
AcDbSpline
 70
8
 71
3
 72
8
 73
4
 74
0
 40
0
 40
0
 40
0
 40
0
 40
1
 40
1
 40
1
 40
1
 10
86.968750
 20
105.061900
 30
0.0
 10
86.968750
 20
105.990158
 30
0.0
 10
87.337499
 20
106.880396
 30
0.0
 10
87.993876
 20
107.536774
 30
0.0
  0
SPLINE
  5
375
100
AcDbEntity
  8
Layer_1
 62
7
100
AcDbSpline
 70
8
 71
3
 72
8
 73
4
 74
0
 40
0
 40
0
 40
0
 40
0
 40
1
 40
1
 40
1
 40
1
 10
87.993876
 20
107.536774
 30
0.0
 10
88.650254
 20
108.193151
 30
0.0
 10
89.540492
 20
108.561900
 30
0.0
 10
90.468750
 20
108.561900
 30
0.0
  0
SPLINE
  5
376
100
AcDbEntity
  8
Layer_1
 62
7
100
AcDbSpline
 70
8
 71
3
 72
8
 73
4
 74
0
 40
0
 40
0
 40
0
 40
0
 40
1
 40
1
 40
1
 40
1
 10
90.468750
 20
108.561900
 30
0.0
 10
91.397008
 20
108.561900
 30
0.0
 10
92.287246
 20
108.193151
 30
0.0
 10
92.943624
 20
107.536774
 30
0.0
  0
SPLINE
  5
377
100
AcDbEntity
  8
Layer_1
 62
7
100
AcDbSpline
 70
8
 71
3
 72
8
 73
4
 74
0
 40
0
 40
0
 40
0
 40
0
 40
1
 40
1
 40
1
 40
1
 10
92.943624
 20
107.536774
 30
0.0
 10
93.600001
 20
106.880396
 30
0.0
 10
93.968750
 20
105.990158
 30
0.0
 10
93.968750
 20
105.061900
 30
0.0
  0
LWPOLYLINE
  5
378
100
AcDbEntity
  8
Layer_1
 62
7
100
AcDbPolyline
 90
1
 70
1
 10
77.968750
 20
105.061900
 30
0.0
  0
LWPOLYLINE
  5
379
100
AcDbEntity
  8
Layer_1
 62
7
100
AcDbPolyline
 90
1
 70
1
 10
93.968750
 20
105.061900
 30
0.0
  0
ENDSEC
  0
SECTION
  2
OBJECTS
  0
DICTIONARY
  5
C
330
0
100
AcDbDictionary
  3
ACAD_GROUP
350
D
  3
ACAD_MLINESTYLE
350
17
  0
DICTIONARY
  5
D
330
C
100
AcDbDictionary
  0
DICTIONARY
  5
1A
330
C
100
AcDbDictionary
  0
DICTIONARY
  5
17
330
C
100
AcDbDictionary
  3
STANDARD
350
18
  0
DICTIONARY
  5
19
330
C
100
AcDbDictionary
  0
ENDSEC
  0
EOF
