<?xml version="1.0" encoding="UTF-8" standalone="no"?>
<!-- Created with Inkscape (http://www.inkscape.org/) -->

<svg
   xmlns:dc="http://purl.org/dc/elements/1.1/"
   xmlns:cc="http://creativecommons.org/ns#"
   xmlns:rdf="http://www.w3.org/1999/02/22-rdf-syntax-ns#"
   xmlns:svg="http://www.w3.org/2000/svg"
   xmlns="http://www.w3.org/2000/svg"
   xmlns:xlink="http://www.w3.org/1999/xlink"
   xmlns:sodipodi="http://sodipodi.sourceforge.net/DTD/sodipodi-0.dtd"
   xmlns:inkscape="http://www.inkscape.org/namespaces/inkscape"
   width="210mm"
   height="297mm"
   viewBox="0 0 210 297"
   version="1.1"
   id="svg8"
   inkscape:version="0.92.4 (33fec40, 2019-01-16)"
   sodipodi:docname="panel_artwork.svg">
  <defs
     id="defs2">
    <filter
       style="color-interpolation-filters:sRGB;"
       inkscape:label="Blur"
       id="filter1017">
      <feGaussianBlur
         stdDeviation="8 8"
         result="blur"
         id="feGaussianBlur1015" />
    </filter>
    <filter
       style="color-interpolation-filters:sRGB;"
       inkscape:label="Blur"
       id="filter1021">
      <feGaussianBlur
         stdDeviation="8 8"
         result="fbSourceGraphic"
         id="feGaussianBlur1019" />
      <feColorMatrix
         result="fbSourceGraphicAlpha"
         in="fbSourceGraphic"
         values="0 0 0 -1 0 0 0 0 -1 0 0 0 0 -1 0 0 0 0 1 0"
         id="feColorMatrix14738" />
      <feGaussianBlur
         id="feGaussianBlur14740"
         stdDeviation="5.25 4.72157"
         result="blur"
         in="fbSourceGraphic" />
    </filter>
    <filter
       style="color-interpolation-filters:sRGB;"
       inkscape:label="Blur"
       id="filter14988">
      <feGaussianBlur
         stdDeviation="3.67456 18.07"
         result="blur"
         id="feGaussianBlur14986" />
    </filter>
  </defs>
  <sodipodi:namedview
     id="base"
     pagecolor="#ffffff"
     bordercolor="#666666"
     borderopacity="1.0"
     inkscape:pageopacity="0.0"
     inkscape:pageshadow="2"
     inkscape:zoom="1.4"
     inkscape:cx="446.14433"
     inkscape:cy="627.93025"
     inkscape:document-units="mm"
     inkscape:current-layer="g18462"
     showgrid="false"
     inkscape:snap-bbox="true"
     inkscape:bbox-paths="true"
     inkscape:bbox-nodes="true"
     inkscape:snap-bbox-edge-midpoints="true"
     inkscape:snap-bbox-midpoints="true"
     inkscape:window-width="1853"
     inkscape:window-height="1025"
     inkscape:window-x="67"
     inkscape:window-y="27"
     inkscape:window-maximized="1"
     inkscape:snap-global="true" />
  <metadata
     id="metadata5">
    <rdf:RDF>
      <cc:Work
         rdf:about="">
        <dc:format>image/svg+xml</dc:format>
        <dc:type
           rdf:resource="http://purl.org/dc/dcmitype/StillImage" />
        <dc:title />
      </cc:Work>
    </rdf:RDF>
  </metadata>
  <g
     inkscape:label="Layer 1"
     inkscape:groupmode="layer"
     id="layer1"
     style="display:inline">
    <rect
       style="opacity:0.3;fill:#000000;stroke:none;stroke-width:0.29204866"
       id="rect8753"
       width="30"
       height="128.5"
       x="19.84375"
       y="84.967262" />
    <rect
       style="opacity:0.3;fill:#ff0000;stroke:none;stroke-width:0.54463679"
       id="rect10349"
       width="30"
       height="11"
       x="19.843752"
       y="84.967262" />
    <rect
       y="202.46725"
       x="19.843752"
       height="11"
       width="30"
       id="rect10351"
       style="opacity:0.3;fill:#ff0000;stroke:none;stroke-width:0.54463679" />
    <g
       id="g10375"
       transform="translate(0,-7.9963841)">
      <rect
         style="opacity:0.3;fill:#000000;stroke:none;stroke-width:0.22366656"
         id="rect834"
         width="30"
         height="70"
         x="19.867022"
         y="104.49281" />
      <path
         style="opacity:0.3;fill:#0000ff;stroke:none;stroke-width:1.00733805"
         d="M 88.316406 371.32422 A 6.6141732 6.6141732 0 0 0 81.701172 377.93945 A 6.6141732 6.6141732 0 0 0 88.316406 384.55273 A 6.6141732 6.6141732 0 0 0 94.929688 377.93945 A 6.6141732 6.6141732 0 0 0 88.316406 371.32422 z M 175.24609 371.32422 A 6.6141732 6.6141732 0 0 0 168.63086 377.93945 A 6.6141732 6.6141732 0 0 0 175.24609 384.55273 A 6.6141732 6.6141732 0 0 0 181.85938 377.93945 A 6.6141732 6.6141732 0 0 0 175.24609 371.32422 z M 122.90234 378.80273 A 5.6867936 5.5358967 0 0 0 117.2168 384.33984 A 5.6867936 5.5358967 0 0 0 122.90234 389.875 A 5.6867936 5.5358967 0 0 0 128.58984 384.33984 A 5.6867936 5.5358967 0 0 0 122.90234 378.80273 z M 140.95117 378.86133 A 5.4731134 5.4469663 0 0 0 135.47656 384.30664 A 5.4731134 5.4469663 0 0 0 140.95117 389.75391 A 5.4731134 5.4469663 0 0 0 146.42383 384.30664 A 5.4731134 5.4469663 0 0 0 140.95117 378.86133 z M 105.03125 380.6875 A 2.6950908 2.6234366 0 0 0 102.33594 383.31055 A 2.6950908 2.6234366 0 0 0 105.03125 385.93555 A 2.6950908 2.6234366 0 0 0 107.72656 383.31055 A 2.6950908 2.6234366 0 0 0 105.03125 380.6875 z M 159.16602 380.93359 A 2.191478 2.2454842 0 0 0 156.97461 383.17773 A 2.191478 2.2454842 0 0 0 159.16602 385.42383 A 2.191478 2.2454842 0 0 0 161.35742 383.17773 A 2.191478 2.2454842 0 0 0 159.16602 380.93359 z M 104.86133 396.75195 A 5.7758767 5.6692913 0 0 0 99.085938 402.42188 A 5.7758767 5.6692913 0 0 0 104.86133 408.0918 A 5.7758767 5.6692913 0 0 0 110.63867 402.42188 A 5.7758767 5.6692913 0 0 0 104.86133 396.75195 z M 122.9043 396.75195 A 5.6440917 5.6692913 0 0 0 117.26172 402.42188 A 5.6440917 5.6692913 0 0 0 122.9043 408.0918 A 5.6440917 5.6692913 0 0 0 128.54883 402.42188 A 5.6440917 5.6692913 0 0 0 122.9043 396.75195 z M 140.94336 396.75195 A 5.5942911 5.6692913 0 0 0 135.34961 402.42188 A 5.5942911 5.6692913 0 0 0 140.94336 408.0918 A 5.5942911 5.6692913 0 0 0 146.53711 402.42188 A 5.5942911 5.6692913 0 0 0 140.94336 396.75195 z M 158.97266 396.75195 A 5.723836 5.6692913 0 0 0 153.24805 402.42188 A 5.723836 5.6692913 0 0 0 158.97266 408.0918 A 5.723836 5.6692913 0 0 0 164.69531 402.42188 A 5.723836 5.6692913 0 0 0 158.97266 396.75195 z M 87.070312 399.5293 A 1.3371018 1.3784159 0 0 0 85.732422 400.9082 A 1.3371018 1.3784159 0 0 0 87.070312 402.28711 A 1.3371018 1.3784159 0 0 0 88.40625 400.9082 A 1.3371018 1.3784159 0 0 0 87.070312 399.5293 z M 177.26562 399.75977 A 1.0091069 1.0226956 0 0 0 176.25781 400.7832 A 1.0091069 1.0226956 0 0 0 177.26562 401.80469 A 1.0091069 1.0226956 0 0 0 178.27539 400.7832 A 1.0091069 1.0226956 0 0 0 177.26562 399.75977 z M 104.86523 414.78906 A 5.7348726 5.6692913 0 0 0 99.128906 420.45703 A 5.7348726 5.6692913 0 0 0 104.86523 426.12695 A 5.7348726 5.6692913 0 0 0 110.59961 420.45703 A 5.7348726 5.6692913 0 0 0 104.86523 414.78906 z M 122.89648 414.78906 A 5.7900873 5.6692913 0 0 0 117.10742 420.45703 A 5.7900873 5.6692913 0 0 0 122.89648 426.12695 A 5.7900873 5.6692913 0 0 0 128.6875 420.45703 A 5.7900873 5.6692913 0 0 0 122.89648 414.78906 z M 140.9375 414.78906 A 5.7186856 5.6692913 0 0 0 135.21875 420.45703 A 5.7186856 5.6692913 0 0 0 140.9375 426.12695 A 5.7186856 5.6692913 0 0 0 146.65625 420.45703 A 5.7186856 5.6692913 0 0 0 140.9375 414.78906 z M 158.98242 414.78906 A 5.5234171 5.6692913 0 0 0 153.45898 420.45703 A 5.5234171 5.6692913 0 0 0 158.98242 426.12695 A 5.5234171 5.6692913 0 0 0 164.50586 420.45703 A 5.5234171 5.6692913 0 0 0 158.98242 414.78906 z M 86.994141 416.70117 A 2.7216395 2.7123669 0 0 0 84.271484 419.41406 A 2.7216395 2.7123669 0 0 0 86.994141 422.12695 A 2.7216395 2.7123669 0 0 0 89.714844 419.41406 A 2.7216395 2.7123669 0 0 0 86.994141 416.70117 z M 177.21484 417.17773 A 1.9339249 1.9786938 0 0 0 175.28125 419.15625 A 1.9339249 1.9786938 0 0 0 177.21484 421.13477 A 1.9339249 1.9786938 0 0 0 179.14844 419.15625 A 1.9339249 1.9786938 0 0 0 177.21484 417.17773 z M 104.86914 432.82422 A 5.6596426 5.6692913 0 0 0 99.208984 438.49219 A 5.6596426 5.6692913 0 0 0 104.86914 444.16211 A 5.6596426 5.6692913 0 0 0 110.52734 438.49219 A 5.6596426 5.6692913 0 0 0 104.86914 432.82422 z M 122.91211 432.82422 A 5.5240955 5.6692913 0 0 0 117.38672 438.49219 A 5.5240955 5.6692913 0 0 0 122.91211 444.16211 A 5.5240955 5.6692913 0 0 0 128.43555 438.49219 A 5.5240955 5.6692913 0 0 0 122.91211 432.82422 z M 140.9375 432.82422 A 5.6950269 5.6692913 0 0 0 135.24219 438.49219 A 5.6950269 5.6692913 0 0 0 140.9375 444.16211 A 5.6950269 5.6692913 0 0 0 146.63281 438.49219 A 5.6950269 5.6692913 0 0 0 140.9375 432.82422 z M 158.98047 432.82422 A 5.5577522 5.6692913 0 0 0 153.42383 438.49219 A 5.5577522 5.6692913 0 0 0 158.98047 444.16211 A 5.5577522 5.6692913 0 0 0 164.53906 438.49219 A 5.5577522 5.6692913 0 0 0 158.98047 432.82422 z M 86.992188 434.67969 A 2.734787 2.8012967 0 0 0 84.257812 437.48047 A 2.734787 2.8012967 0 0 0 86.992188 440.2832 A 2.734787 2.8012967 0 0 0 89.728516 437.48047 A 2.734787 2.8012967 0 0 0 86.992188 434.67969 z M 177.19922 435.06836 A 2.2341352 2.2010187 0 0 0 174.96484 437.26953 A 2.2341352 2.2010187 0 0 0 177.19922 439.4707 A 2.2341352 2.2010187 0 0 0 179.43359 437.26953 A 2.2341352 2.2010187 0 0 0 177.19922 435.06836 z M 104.86914 450.85938 A 5.650351 5.6692913 0 0 0 99.21875 456.5293 A 5.650351 5.6692913 0 0 0 104.86914 462.19727 A 5.650351 5.6692913 0 0 0 110.51953 456.5293 A 5.650351 5.6692913 0 0 0 104.86914 450.85938 z M 122.9043 450.85938 A 5.6437002 5.6692913 0 0 0 117.26172 456.5293 A 5.6437002 5.6692913 0 0 0 122.9043 462.19727 A 5.6437002 5.6692913 0 0 0 128.54883 456.5293 A 5.6437002 5.6692913 0 0 0 122.9043 450.85938 z M 140.94727 450.85938 A 5.5388534 5.6692913 0 0 0 135.4082 456.5293 A 5.5388534 5.6692913 0 0 0 140.94727 462.19727 A 5.5388534 5.6692913 0 0 0 146.48633 456.5293 A 5.5388534 5.6692913 0 0 0 140.94727 450.85938 z M 158.98438 450.85938 A 5.5056763 5.6692913 0 0 0 153.47852 456.5293 A 5.5056763 5.6692913 0 0 0 158.98438 462.19727 A 5.5056763 5.6692913 0 0 0 164.49023 456.5293 A 5.5056763 5.6692913 0 0 0 158.98438 450.85938 z M 86.976562 452.54297 A 3.0530163 3.0680869 0 0 0 83.921875 455.61133 A 3.0530163 3.0680869 0 0 0 86.976562 458.67969 A 3.0530163 3.0680869 0 0 0 90.029297 455.61133 A 3.0530163 3.0680869 0 0 0 86.976562 452.54297 z M 177.18164 452.93164 A 2.5383638 2.4678089 0 0 0 174.64453 455.39844 A 2.5383638 2.4678089 0 0 0 177.18164 457.86719 A 2.5383638 2.4678089 0 0 0 179.7207 455.39844 A 2.5383638 2.4678089 0 0 0 177.18164 452.93164 z M 104.87891 468.89453 A 5.4814454 5.6692913 0 0 0 99.396484 474.56445 A 5.4814454 5.6692913 0 0 0 104.87891 480.23438 A 5.4814454 5.6692913 0 0 0 110.35938 474.56445 A 5.4814454 5.6692913 0 0 0 104.87891 468.89453 z M 122.90234 468.89453 A 5.6976661 5.6692913 0 0 0 117.20508 474.56445 A 5.6976661 5.6692913 0 0 0 122.90234 480.23438 A 5.6976661 5.6692913 0 0 0 128.59961 474.56445 A 5.6976661 5.6692913 0 0 0 122.90234 468.89453 z M 140.93945 468.89453 A 5.6646474 5.6692913 0 0 0 135.27539 474.56445 A 5.6646474 5.6692913 0 0 0 140.93945 480.23438 A 5.6646474 5.6692913 0 0 0 146.60352 474.56445 A 5.6646474 5.6692913 0 0 0 140.93945 468.89453 z M 158.97266 468.89453 A 5.716444 5.6692913 0 0 0 153.25586 474.56445 A 5.716444 5.6692913 0 0 0 158.97266 480.23438 A 5.716444 5.6692913 0 0 0 164.68945 474.56445 A 5.716444 5.6692913 0 0 0 158.97266 468.89453 z M 86.970703 470.53516 A 3.1321952 3.1347848 0 0 0 83.839844 473.66992 A 3.1321952 3.1347848 0 0 0 86.970703 476.80469 A 3.1321952 3.1347848 0 0 0 90.103516 473.66992 A 3.1321952 3.1347848 0 0 0 86.970703 470.53516 z M 177.18945 471.02539 A 2.4008015 2.3788789 0 0 0 174.78906 473.4043 A 2.4008015 2.3788789 0 0 0 177.18945 475.7832 A 2.4008015 2.3788789 0 0 0 179.58984 473.4043 A 2.4008015 2.3788789 0 0 0 177.18945 471.02539 z M 104.86328 486.93164 A 5.7561317 5.6692913 0 0 0 99.107422 492.59961 A 5.7561317 5.6692913 0 0 0 104.86328 498.26953 A 5.7561317 5.6692913 0 0 0 110.61914 492.59961 A 5.7561317 5.6692913 0 0 0 104.86328 486.93164 z M 122.89844 486.93164 A 5.7632311 5.6692913 0 0 0 117.13477 492.59961 A 5.7632311 5.6692913 0 0 0 122.89844 498.26953 A 5.7632311 5.6692913 0 0 0 128.66211 492.59961 A 5.7632311 5.6692913 0 0 0 122.89844 486.93164 z M 140.92969 486.93164 A 5.8402908 5.6692913 0 0 0 135.08984 492.59961 A 5.8402908 5.6692913 0 0 0 140.92969 498.26953 A 5.8402908 5.6692913 0 0 0 146.76953 492.59961 A 5.8402908 5.6692913 0 0 0 140.92969 486.93164 z M 158.97461 486.93164 A 5.6705114 5.6692913 0 0 0 153.30469 492.59961 A 5.6705114 5.6692913 0 0 0 158.97461 498.26953 A 5.6705114 5.6692913 0 0 0 164.64648 492.59961 A 5.6705114 5.6692913 0 0 0 158.97461 486.93164 z M 86.982422 488.64258 A 2.9208819 3.0236219 0 0 0 84.0625 491.66602 A 2.9208819 3.0236219 0 0 0 86.982422 494.69141 A 2.9208819 3.0236219 0 0 0 89.904297 491.66602 A 2.9208819 3.0236219 0 0 0 86.982422 488.64258 z M 177.18359 488.91602 A 2.5171582 2.6012042 0 0 0 174.66602 491.51758 A 2.5171582 2.6012042 0 0 0 177.18359 494.11914 A 2.5171582 2.6012042 0 0 0 179.70117 491.51758 A 2.5171582 2.6012042 0 0 0 177.18359 488.91602 z M 104.86133 504.9668 A 5.7864457 5.6692913 0 0 0 99.076172 510.63672 A 5.7864457 5.6692913 0 0 0 104.86133 516.30469 A 5.7864457 5.6692913 0 0 0 110.64844 510.63672 A 5.7864457 5.6692913 0 0 0 104.86133 504.9668 z M 122.89648 504.9668 A 5.8033875 5.6692913 0 0 0 117.09375 510.63672 A 5.8033875 5.6692913 0 0 0 122.89648 516.30469 A 5.8033875 5.6692913 0 0 0 128.69922 510.63672 A 5.8033875 5.6692913 0 0 0 122.89648 504.9668 z M 140.9375 504.9668 A 5.7033555 5.6692913 0 0 0 135.23438 510.63672 A 5.7033555 5.6692913 0 0 0 140.9375 516.30469 A 5.7033555 5.6692913 0 0 0 146.64062 510.63672 A 5.7033555 5.6692913 0 0 0 140.9375 504.9668 z M 158.96875 504.9668 A 5.7742197 5.6692913 0 0 0 153.19531 510.63672 A 5.7742197 5.6692913 0 0 0 158.96875 516.30469 A 5.7742197 5.6692913 0 0 0 164.74414 510.63672 A 5.7742197 5.6692913 0 0 0 158.96875 504.9668 z M 86.978516 506.73633 A 2.9954409 2.9346918 0 0 0 83.982422 509.67188 A 2.9954409 2.9346918 0 0 0 86.978516 512.60547 A 2.9954409 2.9346918 0 0 0 89.974609 509.67188 A 2.9954409 2.9346918 0 0 0 86.978516 506.73633 z M 177.18945 507.08203 A 2.3974827 2.4011117 0 0 0 174.79297 509.48242 A 2.3974827 2.4011117 0 0 0 177.18945 511.88477 A 2.3974827 2.4011117 0 0 0 179.58789 509.48242 A 2.3974827 2.4011117 0 0 0 177.18945 507.08203 z M 104.86523 523.00195 A 5.7215656 5.6692913 0 0 0 99.144531 528.67188 A 5.7215656 5.6692913 0 0 0 104.86523 534.3418 A 5.7215656 5.6692913 0 0 0 110.58594 528.67188 A 5.7215656 5.6692913 0 0 0 104.86523 523.00195 z M 122.90234 523.00195 A 5.6808945 5.6692913 0 0 0 117.22266 528.67188 A 5.6808945 5.6692913 0 0 0 122.90234 534.3418 A 5.6808945 5.6692913 0 0 0 128.58398 528.67188 A 5.6808945 5.6692913 0 0 0 122.90234 523.00195 z M 140.94531 523.00195 A 5.5524227 5.6692913 0 0 0 135.39258 528.67188 A 5.5524227 5.6692913 0 0 0 140.94531 534.3418 A 5.5524227 5.6692913 0 0 0 146.49805 528.67188 A 5.5524227 5.6692913 0 0 0 140.94531 523.00195 z M 158.96875 523.00195 A 5.8013681 5.6692913 0 0 0 153.16602 528.67188 A 5.8013681 5.6692913 0 0 0 158.96875 534.3418 A 5.8013681 5.6692913 0 0 0 164.76953 528.67188 A 5.8013681 5.6692913 0 0 0 158.96875 523.00195 z M 86.980469 524.80078 A 2.946652 2.8902268 0 0 0 84.035156 527.69141 A 2.946652 2.8902268 0 0 0 86.980469 530.58203 A 2.946652 2.8902268 0 0 0 89.927734 527.69141 A 2.946652 2.8902268 0 0 0 86.980469 524.80078 z M 177.19141 525.14844 A 2.3841641 2.3566465 0 0 0 174.80664 527.50586 A 2.3841641 2.3566465 0 0 0 177.19141 529.86133 A 2.3841641 2.3566465 0 0 0 179.57422 527.50586 A 2.3841641 2.3566465 0 0 0 177.19141 525.14844 z M 104.875 541.04102 A 5.5446599 5.6692913 0 0 0 99.330078 546.70898 A 5.5446599 5.6692913 0 0 0 104.875 552.37891 A 5.5446599 5.6692913 0 0 0 110.41992 546.70898 A 5.5446599 5.6692913 0 0 0 104.875 541.04102 z M 122.9082 541.04102 A 5.5921017 5.6692913 0 0 0 117.31641 546.70898 A 5.5921017 5.6692913 0 0 0 122.9082 552.37891 A 5.5921017 5.6692913 0 0 0 128.5 546.70898 A 5.5921017 5.6692913 0 0 0 122.9082 541.04102 z M 140.94727 541.04102 A 5.5190831 5.6692913 0 0 0 135.42773 546.70898 A 5.5190831 5.6692913 0 0 0 140.94727 552.37891 A 5.5190831 5.6692913 0 0 0 146.4668 546.70898 A 5.5190831 5.6692913 0 0 0 140.94727 541.04102 z M 158.98242 541.04102 A 5.5449328 5.6692913 0 0 0 153.4375 546.70898 A 5.5449328 5.6692913 0 0 0 158.98242 552.37891 A 5.5449328 5.6692913 0 0 0 164.52734 546.70898 A 5.5449328 5.6692913 0 0 0 158.98242 541.04102 z M 86.980469 542.76758 A 2.9679691 3.0013897 0 0 0 84.011719 545.76758 A 2.9679691 3.0013897 0 0 0 86.980469 548.76953 A 2.9679691 3.0013897 0 0 0 89.947266 545.76758 A 2.9679691 3.0013897 0 0 0 86.980469 542.76758 z M 177.19531 543.25586 A 2.2906683 2.2454842 0 0 0 174.9043 545.50195 A 2.2906683 2.2454842 0 0 0 177.19531 547.74805 A 2.2906683 2.2454842 0 0 0 179.48633 545.50195 A 2.2906683 2.2454842 0 0 0 177.19531 543.25586 z M 104.86133 559.07617 A 5.7952086 5.6692913 0 0 0 99.066406 564.74609 A 5.7952086 5.6692913 0 0 0 104.86133 570.41406 A 5.7952086 5.6692913 0 0 0 110.65625 564.74609 A 5.7952086 5.6692913 0 0 0 104.86133 559.07617 z M 122.90234 559.07617 A 5.6777639 5.6692913 0 0 0 117.22461 564.74609 A 5.6777639 5.6692913 0 0 0 122.90234 570.41406 A 5.6777639 5.6692913 0 0 0 128.58203 564.74609 A 5.6777639 5.6692913 0 0 0 122.90234 559.07617 z M 140.94336 559.07617 A 5.6131083 5.6692913 0 0 0 135.33008 564.74609 A 5.6131083 5.6692913 0 0 0 140.94336 570.41406 A 5.6131083 5.6692913 0 0 0 146.55664 564.74609 A 5.6131083 5.6692913 0 0 0 140.94336 559.07617 z M 158.9707 559.07617 A 5.7555916 5.6692913 0 0 0 153.21484 564.74609 A 5.7555916 5.6692913 0 0 0 158.9707 570.41406 A 5.7555916 5.6692913 0 0 0 164.72656 564.74609 A 5.7555916 5.6692913 0 0 0 158.9707 559.07617 z M 86.990234 560.91797 A 2.7956675 2.8235291 0 0 0 84.193359 563.74023 A 2.7956675 2.8235291 0 0 0 86.990234 566.56445 A 2.7956675 2.8235291 0 0 0 89.785156 563.74023 A 2.7956675 2.8235291 0 0 0 86.990234 560.91797 z M 177.20703 561.39258 A 2.0785649 2.0898563 0 0 0 175.12891 563.48242 A 2.0785649 2.0898563 0 0 0 177.20703 565.57227 A 2.0785649 2.0898563 0 0 0 179.28516 563.48242 A 2.0785649 2.0898563 0 0 0 177.20703 561.39258 z M 104.87109 577.10938 A 5.6018037 5.6692913 0 0 0 99.269531 582.7793 A 5.6018037 5.6692913 0 0 0 104.87109 588.44727 A 5.6018037 5.6692913 0 0 0 110.47266 582.7793 A 5.6018037 5.6692913 0 0 0 104.87109 577.10938 z M 122.90039 577.10938 A 5.7297351 5.6692913 0 0 0 117.16992 582.7793 A 5.7297351 5.6692913 0 0 0 122.90039 588.44727 A 5.7297351 5.6692913 0 0 0 128.63086 582.7793 A 5.7297351 5.6692913 0 0 0 122.90039 577.10938 z M 140.94531 577.10938 A 5.5522186 5.6692913 0 0 0 135.39453 582.7793 A 5.5522186 5.6692913 0 0 0 140.94531 588.44727 A 5.5522186 5.6692913 0 0 0 146.49805 582.7793 A 5.5522186 5.6692913 0 0 0 140.94531 577.10938 z M 158.96875 577.10938 A 5.7770801 5.6692913 0 0 0 153.19141 582.7793 A 5.7770801 5.6692913 0 0 0 158.96875 588.44727 A 5.7770801 5.6692913 0 0 0 164.74609 582.7793 A 5.7770801 5.6692913 0 0 0 158.96875 577.10938 z M 87.039062 579.52734 A 1.8950231 1.9342286 0 0 0 85.144531 581.46094 A 1.8950231 1.9342286 0 0 0 87.039062 583.39453 A 1.8950231 1.9342286 0 0 0 88.933594 581.46094 A 1.8950231 1.9342286 0 0 0 87.039062 579.52734 z M 177.23047 579.72852 A 1.667916 1.6229734 0 0 0 175.5625 581.35156 A 1.667916 1.6229734 0 0 0 177.23047 582.97461 A 1.667916 1.6229734 0 0 0 178.89844 581.35156 A 1.667916 1.6229734 0 0 0 177.23047 579.72852 z M 122.89844 595.14453 A 5.7748343 5.6692913 0 0 0 117.12305 600.81445 A 5.7748343 5.6692913 0 0 0 122.89844 606.48438 A 5.7748343 5.6692913 0 0 0 128.67188 600.81445 A 5.7748343 5.6692913 0 0 0 122.89844 595.14453 z M 140.93164 595.14453 A 5.816869 5.6692913 0 0 0 135.11523 600.81445 A 5.816869 5.6692913 0 0 0 140.93164 606.48438 A 5.816869 5.6692913 0 0 0 146.74805 600.81445 A 5.816869 5.6692913 0 0 0 140.93164 595.14453 z M 104.93164 595.80664 A 4.511235 4.6465958 0 0 0 100.41992 600.45312 A 4.511235 4.6465958 0 0 0 104.93164 605.09961 A 4.511235 4.6465958 0 0 0 109.44336 600.45312 A 4.511235 4.6465958 0 0 0 104.93164 595.80664 z M 159.05664 596.10938 A 4.1716006 4.1797126 0 0 0 154.88477 600.28906 A 4.1716006 4.1797126 0 0 0 159.05664 604.46875 A 4.1716006 4.1797126 0 0 0 163.22852 600.28906 A 4.1716006 4.1797126 0 0 0 159.05664 596.10938 z M 87.103516 598.61328 A 0.30769054 0.31125521 0 0 0 86.818359 598.92383 A 0.30769054 0.31125521 0 0 0 87.125 599.23633 A 0.30769054 0.31125521 0 0 0 87.433594 598.92383 A 0.30769054 0.31125521 0 0 0 87.125 598.61328 A 0.30769054 0.31125521 0 0 0 87.103516 598.61328 z M 177.29492 598.68555 A 0.20400386 0.20009265 0 0 0 177.10547 598.88477 A 0.20400386 0.20009265 0 0 0 177.31055 599.08594 A 0.20400386 0.20009265 0 0 0 177.51367 598.88477 A 0.20400386 0.20009265 0 0 0 177.31055 598.68555 A 0.20400386 0.20009265 0 0 0 177.29492 598.68555 z M 88.316406 609.43555 A 6.6141732 6.6141732 0 0 0 81.701172 616.04883 A 6.6141732 6.6141732 0 0 0 88.316406 622.66406 A 6.6141732 6.6141732 0 0 0 94.929688 616.04883 A 6.6141732 6.6141732 0 0 0 88.316406 609.43555 z M 175.24609 609.43555 A 6.6141732 6.6141732 0 0 0 168.63086 616.04883 A 6.6141732 6.6141732 0 0 0 175.24609 622.66406 A 6.6141732 6.6141732 0 0 0 181.85938 616.04883 A 6.6141732 6.6141732 0 0 0 175.24609 609.43555 z M 123.13281 615.88672 A 1.5013825 1.4895785 0 0 0 121.63086 617.375 A 1.5013825 1.4895785 0 0 0 123.13281 618.86523 A 1.5013825 1.4895785 0 0 0 124.63281 617.375 A 1.5013825 1.4895785 0 0 0 123.13281 615.88672 z M 141.17383 615.95898 A 1.3724801 1.3784159 0 0 0 139.80273 617.33594 A 1.3724801 1.3784159 0 0 0 141.17383 618.71484 A 1.3724801 1.3784159 0 0 0 142.54688 617.33594 A 1.3724801 1.3784159 0 0 0 141.17383 615.95898 z M 105.16602 616.69141 A 0.24054973 0.24455766 0 0 0 104.92383 616.9375 A 0.24054973 0.24455766 0 0 0 105.16602 617.18164 A 0.24054973 0.24455766 0 0 0 105.40625 616.9375 A 0.24054973 0.24455766 0 0 0 105.16602 616.69141 z M 159.27539 616.73438 A 0.1754965 0.17786011 0 0 0 159.09961 616.91211 A 0.1754965 0.17786011 0 0 0 159.27539 617.0918 A 0.1754965 0.17786011 0 0 0 159.45117 616.91211 A 0.1754965 0.17786011 0 0 0 159.27539 616.73438 z "
         transform="matrix(0.26458333,0,0,0.26458333,0,7.9963841)"
         id="path18447" />
      <path
         inkscape:connector-curvature="0"
         id="path869"
         d="m 34.867018,106.99301 a 12.499999,12.499999 0 0 0 -1.247986,0.0625 12.499999,12.499999 0 0 0 -1.235584,0.18655 12.499999,12.499999 0 0 0 -1.210262,0.30902 12.499999,12.499999 0 0 0 -1.174088,0.4284 12.499999,12.499999 0 0 0 -1.124996,0.54364 12.499999,12.499999 0 0 0 -1.065051,0.65319 12.499999,12.499999 0 0 0 -0.994772,0.75602 12.499999,12.499999 0 0 0 -0.914156,0.85163 12.499999,12.499999 0 0 0 -0.824756,0.93896 12.499999,12.499999 0 0 0 -0.72657,1.01648 12.499999,12.499999 0 0 0 -0.621668,1.08365 12.499999,12.499999 0 0 0 -0.510563,1.1405 12.499999,12.499999 0 0 0 -0.394291,1.18546 12.499999,12.499999 0 0 0 -0.273368,1.21956 12.499999,12.499999 0 0 0 -0.150379,1.24023 12.499999,12.499999 0 0 0 -0.03152,0.88419 v 40.00014 a 12.499999,12.499999 0 0 0 0.06253,1.24799 12.499999,12.499999 0 0 0 0.186552,1.23558 12.499999,12.499999 0 0 0 0.309542,1.21026 12.499999,12.499999 0 0 0 0.428397,1.17409 12.499999,12.499999 0 0 0 0.543637,1.12499 12.499999,12.499999 0 0 0 0.65319,1.06506 12.499999,12.499999 0 0 0 0.756026,0.99477 12.499999,12.499999 0 0 0 0.851627,0.91415 12.499999,12.499999 0 0 0 0.938961,0.82476 12.499999,12.499999 0 0 0 1.015959,0.72657 12.499999,12.499999 0 0 0 1.084171,0.62167 12.499999,12.499999 0 0 0 1.140499,0.51004 12.499999,12.499999 0 0 0 1.185458,0.39429 12.499999,12.499999 0 0 0 1.219563,0.27337 12.499999,12.499999 0 0 0 1.240234,0.15038 12.499999,12.499999 0 0 0 0.883668,0.0315 12.499999,12.499999 0 0 0 1.247985,-0.0625 12.499999,12.499999 0 0 0 1.235583,-0.18656 12.499999,12.499999 0 0 0 1.210262,-0.30902 12.499999,12.499999 0 0 0 1.174088,-0.4284 12.499999,12.499999 0 0 0 1.124998,-0.54364 12.499999,12.499999 0 0 0 1.065051,-0.65319 12.499999,12.499999 0 0 0 0.99477,-0.75602 12.499999,12.499999 0 0 0 0.914157,-0.85163 12.499999,12.499999 0 0 0 0.824756,-0.93896 12.499999,12.499999 0 0 0 0.72657,-1.01647 12.499999,12.499999 0 0 0 0.621667,-1.08366 12.499999,12.499999 0 0 0 0.510564,-1.1405 12.499999,12.499999 0 0 0 0.39429,-1.18546 12.499999,12.499999 0 0 0 0.27337,-1.21956 12.499999,12.499999 0 0 0 0.150379,-1.24024 12.499999,12.499999 0 0 0 0.03152,-0.88366 v -40.00011 a 12.499999,12.499999 0 0 0 -0.06253,-1.24799 12.499999,12.499999 0 0 0 -0.186553,-1.23558 12.499999,12.499999 0 0 0 -0.309025,-1.21026 12.499999,12.499999 0 0 0 -0.428398,-1.17409 12.499999,12.499999 0 0 0 -0.543636,-1.12499 12.499999,12.499999 0 0 0 -0.653191,-1.06505 12.499999,12.499999 0 0 0 -0.756025,-0.99478 12.499999,12.499999 0 0 0 -0.851628,-0.91415 12.499999,12.499999 0 0 0 -0.938961,-0.82476 12.499999,12.499999 0 0 0 -1.016474,-0.72657 12.499999,12.499999 0 0 0 -1.083656,-0.62167 12.499999,12.499999 0 0 0 -1.140497,-0.51056 12.499999,12.499999 0 0 0 -1.185458,-0.39429 12.499999,12.499999 0 0 0 -1.219564,-0.27337 12.499999,12.499999 0 0 0 -1.240235,-0.15038 12.499999,12.499999 0 0 0 -0.884183,-0.0315 z"
         style="opacity:0.3;fill:#000000;stroke:none;stroke-width:0.36248365" />
    </g>
    <rect
       style="opacity:0.3;fill:#008000;stroke:none;stroke-width:0.42699596"
       id="rect10377"
       width="30"
       height="48"
       x="19.843752"
       y="153.9381" />
    <rect
       style="opacity:0.3;fill:#008000;stroke:none;stroke-width:0.2828427"
       id="rect10379"
       width="7"
       height="10"
       x="19.843752"
       y="191.9381" />
    <circle
       style="opacity:0.3;fill:#0000ff;stroke:none;stroke-width:0.30798429"
       id="path10383"
       cx="26.843752"
       cy="191.9381"
       r="3.5" />
    <circle
       r="3.5"
       cy="191.9381"
       cx="42.84375"
       id="circle10385"
       style="opacity:0.3;fill:#0000ff;stroke:none;stroke-width:0.30798429" />
    <rect
       y="191.9381"
       x="42.84375"
       height="10"
       width="7"
       id="rect10387"
       style="opacity:0.3;fill:#008000;stroke:none;stroke-width:0.2828427" />
    <rect
       y="84.967262"
       x="67.46875"
       height="128.5"
       width="30"
       id="rect18450"
       style="opacity:0.3;fill:#000000;stroke:none;stroke-width:0.29204866" />
    <g
       transform="translate(47.625,-7.9963841)"
       id="g18462">
      <path
         id="path18458"
         transform="matrix(0.26458333,0,0,0.26458333,0,7.9963841)"
         d="m 88.316406,371.32422 a 6.6141732,6.6141732 0 0 0 -6.615234,6.61523 6.6141732,6.6141732 0 0 0 6.615234,6.61328 6.6141732,6.6141732 0 0 0 6.613282,-6.61328 6.6141732,6.6141732 0 0 0 -6.613282,-6.61523 z m 86.929684,0 a 6.6141732,6.6141732 0 0 0 -6.61523,6.61523 6.6141732,6.6141732 0 0 0 6.61523,6.61328 6.6141732,6.6141732 0 0 0 6.61329,-6.61328 6.6141732,6.6141732 0 0 0 -6.61329,-6.61523 z m -52.34375,7.47851 a 5.6867936,5.5358967 0 0 0 -5.68554,5.53711 5.6867936,5.5358967 0 0 0 5.68554,5.53516 5.6867936,5.5358967 0 0 0 5.6875,-5.53516 5.6867936,5.5358967 0 0 0 -5.6875,-5.53711 z m 18.04883,0.0586 a 5.4731134,5.4469663 0 0 0 -5.47461,5.44531 5.4731134,5.4469663 0 0 0 5.47461,5.44727 5.4731134,5.4469663 0 0 0 5.47266,-5.44727 5.4731134,5.4469663 0 0 0 -5.47266,-5.44531 z m -35.91992,1.82617 a 2.6950908,2.6234366 0 0 0 -2.69531,2.62305 2.6950908,2.6234366 0 0 0 2.69531,2.625 2.6950908,2.6234366 0 0 0 2.69531,-2.625 2.6950908,2.6234366 0 0 0 -2.69531,-2.62305 z m 54.13477,0.24609 a 2.191478,2.2454842 0 0 0 -2.19141,2.24414 2.191478,2.2454842 0 0 0 2.19141,2.2461 2.191478,2.2454842 0 0 0 2.1914,-2.2461 2.191478,2.2454842 0 0 0 -2.1914,-2.24414 z m -54.30469,15.81836 a 5.7758767,5.6692913 0 0 0 -5.775392,5.66993 5.7758767,5.6692913 0 0 0 5.775392,5.66992 5.7758767,5.6692913 0 0 0 5.77734,-5.66992 5.7758767,5.6692913 0 0 0 -5.77734,-5.66993 z m 18.04297,0 a 5.6440917,5.6692913 0 0 0 -5.64258,5.66993 5.6440917,5.6692913 0 0 0 5.64258,5.66992 5.6440917,5.6692913 0 0 0 5.64453,-5.66992 5.6440917,5.6692913 0 0 0 -5.64453,-5.66993 z m 18.03906,0 a 5.5942911,5.6692913 0 0 0 -5.59375,5.66993 5.5942911,5.6692913 0 0 0 5.59375,5.66992 5.5942911,5.6692913 0 0 0 5.59375,-5.66992 5.5942911,5.6692913 0 0 0 -5.59375,-5.66993 z m 18.0293,0 a 5.723836,5.6692913 0 0 0 -5.72461,5.66993 5.723836,5.6692913 0 0 0 5.72461,5.66992 5.723836,5.6692913 0 0 0 5.72265,-5.66992 5.723836,5.6692913 0 0 0 -5.72265,-5.66993 z m -71.902348,2.77735 a 1.3371018,1.3784159 0 0 0 -1.33789,1.3789 1.3371018,1.3784159 0 0 0 1.33789,1.37891 1.3371018,1.3784159 0 0 0 1.335938,-1.37891 1.3371018,1.3784159 0 0 0 -1.335938,-1.3789 z m 90.195308,0.23047 a 1.0091069,1.0226956 0 0 0 -1.00781,1.02343 1.0091069,1.0226956 0 0 0 1.00781,1.02149 1.0091069,1.0226956 0 0 0 1.00977,-1.02149 1.0091069,1.0226956 0 0 0 -1.00977,-1.02343 z m -72.40039,15.02929 a 5.7348726,5.6692913 0 0 0 -5.736324,5.66797 5.7348726,5.6692913 0 0 0 5.736324,5.66992 5.7348726,5.6692913 0 0 0 5.73438,-5.66992 5.7348726,5.6692913 0 0 0 -5.73438,-5.66797 z m 18.03125,0 a 5.7900873,5.6692913 0 0 0 -5.78906,5.66797 5.7900873,5.6692913 0 0 0 5.78906,5.66992 5.7900873,5.6692913 0 0 0 5.79102,-5.66992 5.7900873,5.6692913 0 0 0 -5.79102,-5.66797 z m 18.04102,0 a 5.7186856,5.6692913 0 0 0 -5.71875,5.66797 5.7186856,5.6692913 0 0 0 5.71875,5.66992 5.7186856,5.6692913 0 0 0 5.71875,-5.66992 5.7186856,5.6692913 0 0 0 -5.71875,-5.66797 z m 18.04492,0 a 5.5234171,5.6692913 0 0 0 -5.52344,5.66797 5.5234171,5.6692913 0 0 0 5.52344,5.66992 5.5234171,5.6692913 0 0 0 5.52344,-5.66992 5.5234171,5.6692913 0 0 0 -5.52344,-5.66797 z m -71.988279,1.91211 a 2.7216395,2.7123669 0 0 0 -2.722657,2.71289 2.7216395,2.7123669 0 0 0 2.722657,2.71289 2.7216395,2.7123669 0 0 0 2.720703,-2.71289 2.7216395,2.7123669 0 0 0 -2.720703,-2.71289 z m 90.220699,0.47656 a 1.9339249,1.9786938 0 0 0 -1.93359,1.97852 1.9339249,1.9786938 0 0 0 1.93359,1.97852 1.9339249,1.9786938 0 0 0 1.9336,-1.97852 1.9339249,1.9786938 0 0 0 -1.9336,-1.97852 z m -72.3457,15.64649 a 5.6596426,5.6692913 0 0 0 -5.660156,5.66797 5.6596426,5.6692913 0 0 0 5.660156,5.66992 5.6596426,5.6692913 0 0 0 5.6582,-5.66992 5.6596426,5.6692913 0 0 0 -5.6582,-5.66797 z m 18.04297,0 a 5.5240955,5.6692913 0 0 0 -5.52539,5.66797 5.5240955,5.6692913 0 0 0 5.52539,5.66992 5.5240955,5.6692913 0 0 0 5.52344,-5.66992 5.5240955,5.6692913 0 0 0 -5.52344,-5.66797 z m 18.02539,0 a 5.6950269,5.6692913 0 0 0 -5.69531,5.66797 5.6950269,5.6692913 0 0 0 5.69531,5.66992 5.6950269,5.6692913 0 0 0 5.69531,-5.66992 5.6950269,5.6692913 0 0 0 -5.69531,-5.66797 z m 18.04297,0 a 5.5577522,5.6692913 0 0 0 -5.55664,5.66797 5.5577522,5.6692913 0 0 0 5.55664,5.66992 5.5577522,5.6692913 0 0 0 5.55859,-5.66992 5.5577522,5.6692913 0 0 0 -5.55859,-5.66797 z m -71.988282,1.85547 a 2.734787,2.8012967 0 0 0 -2.734376,2.80078 2.734787,2.8012967 0 0 0 2.734376,2.80273 2.734787,2.8012967 0 0 0 2.736328,-2.80273 2.734787,2.8012967 0 0 0 -2.736328,-2.80078 z m 90.207032,0.38867 a 2.2341352,2.2010187 0 0 0 -2.23438,2.20117 2.2341352,2.2010187 0 0 0 2.23438,2.20117 2.2341352,2.2010187 0 0 0 2.23437,-2.20117 2.2341352,2.2010187 0 0 0 -2.23437,-2.20117 z m -72.33008,15.79102 a 5.650351,5.6692913 0 0 0 -5.65039,5.66992 5.650351,5.6692913 0 0 0 5.65039,5.66797 5.650351,5.6692913 0 0 0 5.65039,-5.66797 5.650351,5.6692913 0 0 0 -5.65039,-5.66992 z m 18.03516,0 a 5.6437002,5.6692913 0 0 0 -5.64258,5.66992 5.6437002,5.6692913 0 0 0 5.64258,5.66797 5.6437002,5.6692913 0 0 0 5.64453,-5.66797 5.6437002,5.6692913 0 0 0 -5.64453,-5.66992 z m 18.04297,0 a 5.5388534,5.6692913 0 0 0 -5.53907,5.66992 5.5388534,5.6692913 0 0 0 5.53907,5.66797 5.5388534,5.6692913 0 0 0 5.53906,-5.66797 5.5388534,5.6692913 0 0 0 -5.53906,-5.66992 z m 18.03711,0 a 5.5056763,5.6692913 0 0 0 -5.50586,5.66992 5.5056763,5.6692913 0 0 0 5.50586,5.66797 5.5056763,5.6692913 0 0 0 5.50585,-5.66797 5.5056763,5.6692913 0 0 0 -5.50585,-5.66992 z m -72.007818,1.68359 a 3.0530163,3.0680869 0 0 0 -3.054687,3.06836 3.0530163,3.0680869 0 0 0 3.054687,3.06836 3.0530163,3.0680869 0 0 0 3.052735,-3.06836 3.0530163,3.0680869 0 0 0 -3.052735,-3.06836 z m 90.205078,0.38867 a 2.5383638,2.4678089 0 0 0 -2.53711,2.4668 2.5383638,2.4678089 0 0 0 2.53711,2.46875 2.5383638,2.4678089 0 0 0 2.53906,-2.46875 2.5383638,2.4678089 0 0 0 -2.53906,-2.4668 z m -72.30273,15.96289 a 5.4814454,5.6692913 0 0 0 -5.482426,5.66992 5.4814454,5.6692913 0 0 0 5.482426,5.66993 5.4814454,5.6692913 0 0 0 5.48047,-5.66993 5.4814454,5.6692913 0 0 0 -5.48047,-5.66992 z m 18.02343,0 a 5.6976661,5.6692913 0 0 0 -5.69726,5.66992 5.6976661,5.6692913 0 0 0 5.69726,5.66993 5.6976661,5.6692913 0 0 0 5.69727,-5.66993 5.6976661,5.6692913 0 0 0 -5.69727,-5.66992 z m 18.03711,0 a 5.6646474,5.6692913 0 0 0 -5.66406,5.66992 5.6646474,5.6692913 0 0 0 5.66406,5.66993 5.6646474,5.6692913 0 0 0 5.66407,-5.66993 5.6646474,5.6692913 0 0 0 -5.66407,-5.66992 z m 18.03321,0 a 5.716444,5.6692913 0 0 0 -5.7168,5.66992 5.716444,5.6692913 0 0 0 5.7168,5.66993 5.716444,5.6692913 0 0 0 5.71679,-5.66993 5.716444,5.6692913 0 0 0 -5.71679,-5.66992 z m -72.001957,1.64063 a 3.1321952,3.1347848 0 0 0 -3.130859,3.13476 3.1321952,3.1347848 0 0 0 3.130859,3.13477 3.1321952,3.1347848 0 0 0 3.132813,-3.13477 3.1321952,3.1347848 0 0 0 -3.132813,-3.13476 z m 90.218747,0.49023 a 2.4008015,2.3788789 0 0 0 -2.40039,2.37891 2.4008015,2.3788789 0 0 0 2.40039,2.3789 2.4008015,2.3788789 0 0 0 2.40039,-2.3789 2.4008015,2.3788789 0 0 0 -2.40039,-2.37891 z m -72.32617,15.90625 a 5.7561317,5.6692913 0 0 0 -5.755858,5.66797 5.7561317,5.6692913 0 0 0 5.755858,5.66992 5.7561317,5.6692913 0 0 0 5.75586,-5.66992 5.7561317,5.6692913 0 0 0 -5.75586,-5.66797 z m 18.03516,0 a 5.7632311,5.6692913 0 0 0 -5.76367,5.66797 5.7632311,5.6692913 0 0 0 5.76367,5.66992 5.7632311,5.6692913 0 0 0 5.76367,-5.66992 5.7632311,5.6692913 0 0 0 -5.76367,-5.66797 z m 18.03125,0 a 5.8402908,5.6692913 0 0 0 -5.83985,5.66797 5.8402908,5.6692913 0 0 0 5.83985,5.66992 5.8402908,5.6692913 0 0 0 5.83984,-5.66992 5.8402908,5.6692913 0 0 0 -5.83984,-5.66797 z m 18.04492,0 a 5.6705114,5.6692913 0 0 0 -5.66992,5.66797 5.6705114,5.6692913 0 0 0 5.66992,5.66992 5.6705114,5.6692913 0 0 0 5.67187,-5.66992 5.6705114,5.6692913 0 0 0 -5.67187,-5.66797 z m -71.992188,1.71094 a 2.9208819,3.0236219 0 0 0 -2.919922,3.02344 2.9208819,3.0236219 0 0 0 2.919922,3.02539 2.9208819,3.0236219 0 0 0 2.921875,-3.02539 2.9208819,3.0236219 0 0 0 -2.921875,-3.02344 z m 90.201168,0.27344 a 2.5171582,2.6012042 0 0 0 -2.51757,2.60156 2.5171582,2.6012042 0 0 0 2.51757,2.60156 2.5171582,2.6012042 0 0 0 2.51758,-2.60156 2.5171582,2.6012042 0 0 0 -2.51758,-2.60156 z m -72.32226,16.05078 a 5.7864457,5.6692913 0 0 0 -5.785158,5.66992 5.7864457,5.6692913 0 0 0 5.785158,5.66797 5.7864457,5.6692913 0 0 0 5.78711,-5.66797 5.7864457,5.6692913 0 0 0 -5.78711,-5.66992 z m 18.03515,0 a 5.8033875,5.6692913 0 0 0 -5.80273,5.66992 5.8033875,5.6692913 0 0 0 5.80273,5.66797 5.8033875,5.6692913 0 0 0 5.80274,-5.66797 5.8033875,5.6692913 0 0 0 -5.80274,-5.66992 z m 18.04102,0 a 5.7033555,5.6692913 0 0 0 -5.70312,5.66992 5.7033555,5.6692913 0 0 0 5.70312,5.66797 5.7033555,5.6692913 0 0 0 5.70312,-5.66797 5.7033555,5.6692913 0 0 0 -5.70312,-5.66992 z m 18.03125,0 a 5.7742197,5.6692913 0 0 0 -5.77344,5.66992 5.7742197,5.6692913 0 0 0 5.77344,5.66797 5.7742197,5.6692913 0 0 0 5.77539,-5.66797 5.7742197,5.6692913 0 0 0 -5.77539,-5.66992 z m -71.990234,1.76953 a 2.9954409,2.9346918 0 0 0 -2.996094,2.93555 2.9954409,2.9346918 0 0 0 2.996094,2.93359 2.9954409,2.9346918 0 0 0 2.996093,-2.93359 2.9954409,2.9346918 0 0 0 -2.996093,-2.93555 z m 90.210934,0.3457 a 2.3974827,2.4011117 0 0 0 -2.39648,2.40039 2.3974827,2.4011117 0 0 0 2.39648,2.40235 2.3974827,2.4011117 0 0 0 2.39844,-2.40235 2.3974827,2.4011117 0 0 0 -2.39844,-2.40039 z m -72.32422,15.91992 a 5.7215656,5.6692913 0 0 0 -5.720699,5.66993 5.7215656,5.6692913 0 0 0 5.720699,5.66992 5.7215656,5.6692913 0 0 0 5.72071,-5.66992 5.7215656,5.6692913 0 0 0 -5.72071,-5.66993 z m 18.03711,0 a 5.6808945,5.6692913 0 0 0 -5.67968,5.66993 5.6808945,5.6692913 0 0 0 5.67968,5.66992 5.6808945,5.6692913 0 0 0 5.68164,-5.66992 5.6808945,5.6692913 0 0 0 -5.68164,-5.66993 z m 18.04297,0 a 5.5524227,5.6692913 0 0 0 -5.55273,5.66993 5.5524227,5.6692913 0 0 0 5.55273,5.66992 5.5524227,5.6692913 0 0 0 5.55274,-5.66992 5.5524227,5.6692913 0 0 0 -5.55274,-5.66993 z m 18.02344,0 a 5.8013681,5.6692913 0 0 0 -5.80273,5.66993 5.8013681,5.6692913 0 0 0 5.80273,5.66992 5.8013681,5.6692913 0 0 0 5.80078,-5.66992 5.8013681,5.6692913 0 0 0 -5.80078,-5.66993 z m -71.988281,1.79883 a 2.946652,2.8902268 0 0 0 -2.945313,2.89063 2.946652,2.8902268 0 0 0 2.945313,2.89062 2.946652,2.8902268 0 0 0 2.947265,-2.89062 2.946652,2.8902268 0 0 0 -2.947265,-2.89063 z m 90.210941,0.34766 a 2.3841641,2.3566465 0 0 0 -2.38477,2.35742 2.3841641,2.3566465 0 0 0 2.38477,2.35547 2.3841641,2.3566465 0 0 0 2.38281,-2.35547 2.3841641,2.3566465 0 0 0 -2.38281,-2.35742 z M 104.875,541.04102 a 5.5446599,5.6692913 0 0 0 -5.544922,5.66796 5.5446599,5.6692913 0 0 0 5.544922,5.66993 5.5446599,5.6692913 0 0 0 5.54492,-5.66993 5.5446599,5.6692913 0 0 0 -5.54492,-5.66796 z m 18.0332,0 a 5.5921017,5.6692913 0 0 0 -5.59179,5.66796 5.5921017,5.6692913 0 0 0 5.59179,5.66993 5.5921017,5.6692913 0 0 0 5.5918,-5.66993 5.5921017,5.6692913 0 0 0 -5.5918,-5.66796 z m 18.03907,0 a 5.5190831,5.6692913 0 0 0 -5.51954,5.66796 5.5190831,5.6692913 0 0 0 5.51954,5.66993 5.5190831,5.6692913 0 0 0 5.51953,-5.66993 5.5190831,5.6692913 0 0 0 -5.51953,-5.66796 z m 18.03515,0 a 5.5449328,5.6692913 0 0 0 -5.54492,5.66796 5.5449328,5.6692913 0 0 0 5.54492,5.66993 5.5449328,5.6692913 0 0 0 5.54492,-5.66993 5.5449328,5.6692913 0 0 0 -5.54492,-5.66796 z m -72.001951,1.72656 a 2.9679691,3.0013897 0 0 0 -2.96875,3 2.9679691,3.0013897 0 0 0 2.96875,3.00195 2.9679691,3.0013897 0 0 0 2.966797,-3.00195 2.9679691,3.0013897 0 0 0 -2.966797,-3 z m 90.214841,0.48828 a 2.2906683,2.2454842 0 0 0 -2.29101,2.24609 2.2906683,2.2454842 0 0 0 2.29101,2.2461 2.2906683,2.2454842 0 0 0 2.29102,-2.2461 2.2906683,2.2454842 0 0 0 -2.29102,-2.24609 z m -72.33398,15.82031 a 5.7952086,5.6692913 0 0 0 -5.794924,5.66992 5.7952086,5.6692913 0 0 0 5.794924,5.66797 5.7952086,5.6692913 0 0 0 5.79492,-5.66797 5.7952086,5.6692913 0 0 0 -5.79492,-5.66992 z m 18.04101,0 a 5.6777639,5.6692913 0 0 0 -5.67773,5.66992 5.6777639,5.6692913 0 0 0 5.67773,5.66797 5.6777639,5.6692913 0 0 0 5.67969,-5.66797 5.6777639,5.6692913 0 0 0 -5.67969,-5.66992 z m 18.04102,0 a 5.6131083,5.6692913 0 0 0 -5.61328,5.66992 5.6131083,5.6692913 0 0 0 5.61328,5.66797 5.6131083,5.6692913 0 0 0 5.61328,-5.66797 5.6131083,5.6692913 0 0 0 -5.61328,-5.66992 z m 18.02734,0 a 5.7555916,5.6692913 0 0 0 -5.75586,5.66992 5.7555916,5.6692913 0 0 0 5.75586,5.66797 5.7555916,5.6692913 0 0 0 5.75586,-5.66797 5.7555916,5.6692913 0 0 0 -5.75586,-5.66992 z m -71.980466,1.8418 a 2.7956675,2.8235291 0 0 0 -2.796875,2.82226 2.7956675,2.8235291 0 0 0 2.796875,2.82422 2.7956675,2.8235291 0 0 0 2.794922,-2.82422 2.7956675,2.8235291 0 0 0 -2.794922,-2.82226 z m 90.216796,0.47461 a 2.0785649,2.0898563 0 0 0 -2.07812,2.08984 2.0785649,2.0898563 0 0 0 2.07812,2.08985 2.0785649,2.0898563 0 0 0 2.07813,-2.08985 2.0785649,2.0898563 0 0 0 -2.07813,-2.08984 z m -72.33594,15.7168 a 5.6018037,5.6692913 0 0 0 -5.601559,5.66992 5.6018037,5.6692913 0 0 0 5.601559,5.66797 5.6018037,5.6692913 0 0 0 5.60157,-5.66797 5.6018037,5.6692913 0 0 0 -5.60157,-5.66992 z m 18.0293,0 a 5.7297351,5.6692913 0 0 0 -5.73047,5.66992 5.7297351,5.6692913 0 0 0 5.73047,5.66797 5.7297351,5.6692913 0 0 0 5.73047,-5.66797 5.7297351,5.6692913 0 0 0 -5.73047,-5.66992 z m 18.04492,0 a 5.5522186,5.6692913 0 0 0 -5.55078,5.66992 5.5522186,5.6692913 0 0 0 5.55078,5.66797 5.5522186,5.6692913 0 0 0 5.55274,-5.66797 5.5522186,5.6692913 0 0 0 -5.55274,-5.66992 z m 18.02344,0 a 5.7770801,5.6692913 0 0 0 -5.77734,5.66992 5.7770801,5.6692913 0 0 0 5.77734,5.66797 5.7770801,5.6692913 0 0 0 5.77734,-5.66797 5.7770801,5.6692913 0 0 0 -5.77734,-5.66992 z m -71.929688,2.41796 a 1.8950231,1.9342286 0 0 0 -1.894531,1.9336 1.8950231,1.9342286 0 0 0 1.894531,1.93359 1.8950231,1.9342286 0 0 0 1.894532,-1.93359 1.8950231,1.9342286 0 0 0 -1.894532,-1.9336 z m 90.191408,0.20118 a 1.667916,1.6229734 0 0 0 -1.66797,1.62304 1.667916,1.6229734 0 0 0 1.66797,1.62305 1.667916,1.6229734 0 0 0 1.66797,-1.62305 1.667916,1.6229734 0 0 0 -1.66797,-1.62304 z m -54.33203,15.41601 a 5.7748343,5.6692913 0 0 0 -5.77539,5.66992 5.7748343,5.6692913 0 0 0 5.77539,5.66993 5.7748343,5.6692913 0 0 0 5.77344,-5.66993 5.7748343,5.6692913 0 0 0 -5.77344,-5.66992 z m 18.0332,0 a 5.816869,5.6692913 0 0 0 -5.81641,5.66992 5.816869,5.6692913 0 0 0 5.81641,5.66993 5.816869,5.6692913 0 0 0 5.81641,-5.66993 5.816869,5.6692913 0 0 0 -5.81641,-5.66992 z m -36,0.66211 a 4.511235,4.6465958 0 0 0 -4.51172,4.64648 4.511235,4.6465958 0 0 0 4.51172,4.64649 4.511235,4.6465958 0 0 0 4.51172,-4.64649 4.511235,4.6465958 0 0 0 -4.51172,-4.64648 z m 54.125,0.30274 a 4.1716006,4.1797126 0 0 0 -4.17187,4.17968 4.1716006,4.1797126 0 0 0 4.17187,4.17969 4.1716006,4.1797126 0 0 0 4.17188,-4.17969 4.1716006,4.1797126 0 0 0 -4.17188,-4.17968 z m -71.953124,2.5039 a 0.30769054,0.31125521 0 0 0 -0.285157,0.31055 0.30769054,0.31125521 0 0 0 0.306641,0.3125 0.30769054,0.31125521 0 0 0 0.308594,-0.3125 0.30769054,0.31125521 0 0 0 -0.308594,-0.31055 0.30769054,0.31125521 0 0 0 -0.02148,0 z m 90.191404,0.0723 a 0.20400386,0.20009265 0 0 0 -0.18945,0.19922 0.20400386,0.20009265 0 0 0 0.20508,0.20117 0.20400386,0.20009265 0 0 0 0.20312,-0.20117 0.20400386,0.20009265 0 0 0 -0.20312,-0.19922 0.20400386,0.20009265 0 0 0 -0.0156,0 z m -88.978514,10.75 a 6.6141732,6.6141732 0 0 0 -6.615234,6.61328 6.6141732,6.6141732 0 0 0 6.615234,6.61523 6.6141732,6.6141732 0 0 0 6.613282,-6.61523 6.6141732,6.6141732 0 0 0 -6.613282,-6.61328 z m 86.929684,0 a 6.6141732,6.6141732 0 0 0 -6.61523,6.61328 6.6141732,6.6141732 0 0 0 6.61523,6.61523 6.6141732,6.6141732 0 0 0 6.61329,-6.61523 6.6141732,6.6141732 0 0 0 -6.61329,-6.61328 z m -52.11328,6.45117 a 1.5013825,1.4895785 0 0 0 -1.50195,1.48828 1.5013825,1.4895785 0 0 0 1.50195,1.49023 1.5013825,1.4895785 0 0 0 1.5,-1.49023 1.5013825,1.4895785 0 0 0 -1.5,-1.48828 z m 18.04102,0.0723 a 1.3724801,1.3784159 0 0 0 -1.3711,1.37696 1.3724801,1.3784159 0 0 0 1.3711,1.3789 1.3724801,1.3784159 0 0 0 1.37305,-1.3789 1.3724801,1.3784159 0 0 0 -1.37305,-1.37696 z m -36.00781,0.73243 a 0.24054973,0.24455766 0 0 0 -0.24219,0.24609 0.24054973,0.24455766 0 0 0 0.24219,0.24414 0.24054973,0.24455766 0 0 0 0.24023,-0.24414 0.24054973,0.24455766 0 0 0 -0.24023,-0.24609 z m 54.10937,0.043 a 0.1754965,0.17786011 0 0 0 -0.17578,0.17773 0.1754965,0.17786011 0 0 0 0.17578,0.17969 0.1754965,0.17786011 0 0 0 0.17578,-0.17969 0.1754965,0.17786011 0 0 0 -0.17578,-0.17773 z"
         style="opacity:0.3;fill:#0000ff;stroke:none;stroke-width:1.00733805"
         inkscape:connector-curvature="0" />
    </g>
    <circle
       r="3.5"
       cy="191.9381"
       cx="74.46875"
       id="circle18468"
       style="opacity:0.3;fill:#0000ff;stroke:none;stroke-width:0.30798429" />
    <circle
       style="opacity:0.3;fill:#0000ff;stroke:none;stroke-width:0.30798429"
       id="circle18470"
       cx="90.46875"
       cy="191.9381"
       r="3.5" />
  </g>
  <g
     inkscape:groupmode="layer"
     id="layer2"
     inkscape:label="Layer 2"
     style="display:none"
     sodipodi:insensitive="true">
    <path
       style="opacity:1;fill:#000000;stroke:none;stroke-width:0.36248365;filter:url(#filter14988)"
       d="m 131.07753,119.1111 a 12.499999,12.499999 0 0 0 -1.24799,0.0625 12.499999,12.499999 0 0 0 -1.23558,0.18655 12.499999,12.499999 0 0 0 -1.21026,0.30902 12.499999,12.499999 0 0 0 -1.17409,0.4284 12.499999,12.499999 0 0 0 -1.125,0.54364 12.499999,12.499999 0 0 0 -1.06505,0.65319 12.499999,12.499999 0 0 0 -0.99477,0.75602 12.499999,12.499999 0 0 0 -0.91416,0.85163 12.499999,12.499999 0 0 0 -0.82475,0.93896 12.499999,12.499999 0 0 0 -0.72657,1.01648 12.499999,12.499999 0 0 0 -0.62167,1.08365 12.499999,12.499999 0 0 0 -0.51056,1.1405 12.499999,12.499999 0 0 0 -0.3943,1.18546 12.499999,12.499999 0 0 0 -0.27336,1.21956 12.499999,12.499999 0 0 0 -0.15038,1.24023 12.499999,12.499999 0 0 0 -0.0315,0.88419 v 40.00014 a 12.499999,12.499999 0 0 0 0.0625,1.24799 12.499999,12.499999 0 0 0 0.18655,1.23558 12.499999,12.499999 0 0 0 0.30954,1.21026 12.499999,12.499999 0 0 0 0.4284,1.17409 12.499999,12.499999 0 0 0 0.54364,1.12499 12.499999,12.499999 0 0 0 0.65319,1.06506 12.499999,12.499999 0 0 0 0.75602,0.99477 12.499999,12.499999 0 0 0 0.85163,0.91415 12.499999,12.499999 0 0 0 0.93896,0.82476 12.499999,12.499999 0 0 0 1.01596,0.72657 12.499999,12.499999 0 0 0 1.08417,0.62167 12.499999,12.499999 0 0 0 1.1405,0.51004 12.499999,12.499999 0 0 0 1.18546,0.39429 12.499999,12.499999 0 0 0 1.21956,0.27337 12.499999,12.499999 0 0 0 1.24023,0.15038 12.499999,12.499999 0 0 0 0.88367,0.0315 12.499999,12.499999 0 0 0 1.24799,-0.0625 12.499999,12.499999 0 0 0 1.23558,-0.18656 12.499999,12.499999 0 0 0 1.21026,-0.30902 12.499999,12.499999 0 0 0 1.17409,-0.4284 12.499999,12.499999 0 0 0 1.125,-0.54364 12.499999,12.499999 0 0 0 1.06505,-0.65319 12.499999,12.499999 0 0 0 0.99477,-0.75602 12.499999,12.499999 0 0 0 0.91416,-0.85163 12.499999,12.499999 0 0 0 0.82475,-0.93896 12.499999,12.499999 0 0 0 0.72657,-1.01647 12.499999,12.499999 0 0 0 0.62167,-1.08366 12.499999,12.499999 0 0 0 0.51056,-1.1405 12.499999,12.499999 0 0 0 0.39429,-1.18546 12.499999,12.499999 0 0 0 0.27337,-1.21956 12.499999,12.499999 0 0 0 0.15038,-1.24024 12.499999,12.499999 0 0 0 0.0315,-0.88366 v -40.00011 a 12.499999,12.499999 0 0 0 -0.0625,-1.24799 12.499999,12.499999 0 0 0 -0.18655,-1.23558 12.499999,12.499999 0 0 0 -0.30903,-1.21026 12.499999,12.499999 0 0 0 -0.42839,-1.17409 12.499999,12.499999 0 0 0 -0.54364,-1.12499 12.499999,12.499999 0 0 0 -0.65319,-1.06505 12.499999,12.499999 0 0 0 -0.75603,-0.99478 12.499999,12.499999 0 0 0 -0.85162,-0.91415 12.499999,12.499999 0 0 0 -0.93897,-0.82476 12.499999,12.499999 0 0 0 -1.01647,-0.72657 12.499999,12.499999 0 0 0 -1.08366,-0.62167 12.499999,12.499999 0 0 0 -1.14049,-0.51056 12.499999,12.499999 0 0 0 -1.18546,-0.39429 12.499999,12.499999 0 0 0 -1.21956,-0.27337 12.499999,12.499999 0 0 0 -1.24024,-0.15038 12.499999,12.499999 0 0 0 -0.88418,-0.0315 z"
       id="path896"
       inkscape:connector-curvature="0" />
    <path
       style="opacity:1;fill:#ffffff;stroke:none;stroke-width:0.99999994"
       d="M 376.9707,375.78516 V 770.25 H 613.85156 V 375.78516 Z m 118.43946,74.39843 a 47.244091,47.244091 0 0 1 3.34179,0.11914 47.244091,47.244091 0 0 1 4.6875,0.56836 47.244091,47.244091 0 0 1 4.60938,1.03321 47.244091,47.244091 0 0 1 4.48047,1.49023 47.244091,47.244091 0 0 1 4.31054,1.92969 47.244091,47.244091 0 0 1 4.09571,2.34961 47.244091,47.244091 0 0 1 3.84179,2.74609 47.244091,47.244091 0 0 1 3.54883,3.11719 47.244091,47.244091 0 0 1 3.21875,3.45508 47.244091,47.244091 0 0 1 2.85742,3.75976 47.244091,47.244091 0 0 1 2.46875,4.02539 47.244091,47.244091 0 0 1 2.05469,4.25196 47.244091,47.244091 0 0 1 1.61914,4.4375 47.244091,47.244091 0 0 1 1.16797,4.57422 47.244091,47.244091 0 0 1 0.70508,4.66992 47.244091,47.244091 0 0 1 0.23633,4.71679 v 151.18165 a 47.244091,47.244091 0 0 1 -0.11914,3.33984 47.244091,47.244091 0 0 1 -0.56836,4.6875 47.244091,47.244091 0 0 1 -1.03321,4.60937 47.244091,47.244091 0 0 1 -1.49023,4.48047 47.244091,47.244091 0 0 1 -1.92969,4.31055 47.244091,47.244091 0 0 1 -2.34961,4.0957 47.244091,47.244091 0 0 1 -2.74609,3.8418 47.244091,47.244091 0 0 1 -3.11719,3.54883 47.244091,47.244091 0 0 1 -3.45508,3.21875 47.244091,47.244091 0 0 1 -3.75976,2.85742 47.244091,47.244091 0 0 1 -4.02539,2.46875 47.244091,47.244091 0 0 1 -4.25196,2.05469 47.244091,47.244091 0 0 1 -4.4375,1.61914 47.244091,47.244091 0 0 1 -4.57421,1.16797 47.244091,47.244091 0 0 1 -4.66993,0.70507 47.244091,47.244091 0 0 1 -4.71679,0.23633 47.244091,47.244091 0 0 1 -3.33985,-0.11914 47.244091,47.244091 0 0 1 -4.6875,-0.56836 47.244091,47.244091 0 0 1 -4.60937,-1.0332 47.244091,47.244091 0 0 1 -4.48047,-1.49024 47.244091,47.244091 0 0 1 -4.31055,-1.92773 47.244091,47.244091 0 0 1 -4.09765,-2.34961 47.244091,47.244091 0 0 1 -3.83985,-2.74609 47.244091,47.244091 0 0 1 -3.54883,-3.11719 47.244091,47.244091 0 0 1 -3.21875,-3.45508 47.244091,47.244091 0 0 1 -2.85742,-3.75976 47.244091,47.244091 0 0 1 -2.46875,-4.02539 47.244091,47.244091 0 0 1 -2.05469,-4.25196 47.244091,47.244091 0 0 1 -1.61914,-4.4375 47.244091,47.244091 0 0 1 -1.16992,-4.57422 47.244091,47.244091 0 0 1 -0.70508,-4.66992 47.244091,47.244091 0 0 1 -0.23632,-4.71679 V 497.42773 a 47.244091,47.244091 0 0 1 0.11914,-3.34179 47.244091,47.244091 0 0 1 0.56836,-4.6875 47.244091,47.244091 0 0 1 1.0332,-4.60938 47.244091,47.244091 0 0 1 1.49023,-4.48047 47.244091,47.244091 0 0 1 1.92969,-4.31054 47.244091,47.244091 0 0 1 2.34961,-4.09571 47.244091,47.244091 0 0 1 2.74609,-3.84179 47.244091,47.244091 0 0 1 3.11719,-3.54883 47.244091,47.244091 0 0 1 3.45508,-3.21875 47.244091,47.244091 0 0 1 3.75977,-2.85742 47.244091,47.244091 0 0 1 4.02539,-2.46875 47.244091,47.244091 0 0 1 4.25195,-2.05469 47.244091,47.244091 0 0 1 4.4375,-1.61914 47.244091,47.244091 0 0 1 4.57422,-1.16797 47.244091,47.244091 0 0 1 4.66992,-0.70508 47.244091,47.244091 0 0 1 4.7168,-0.23633 z"
       id="rect893"
       transform="scale(0.26458333)"
       inkscape:connector-curvature="0" />
    <g
       id="g4451"
       inkscape:tile-cx="114.57754"
       inkscape:tile-cy="112.61114"
       inkscape:tile-w="4.7719497"
       inkscape:tile-h="4.7719497"
       inkscape:tile-x0="112.19156"
       inkscape:tile-y0="110.22516"
       transform="translate(-0.08212614,0.52916667)">
      <rect
         y="110.22517"
         x="112.19157"
         height="4.7719498"
         width="4.7719498"
         id="rect4447"
         style="opacity:0.3;fill:none;stroke:none;stroke-width:0.26458332" />
      <circle
         inkscape:tile-y0="111.11113"
         inkscape:tile-x0="113.07755"
         inkscape:tile-h="2.9999999"
         inkscape:tile-w="2.9999999"
         inkscape:tile-cy="112.61113"
         inkscape:tile-cx="114.57755"
         r="1.5"
         cy="112.61114"
         cx="114.57755"
         id="path1031"
         style="opacity:1;fill:#000000;stroke:none;stroke-width:0.22844987" />
    </g>
    <use
       x="0"
       y="0"
       inkscape:tiled-clone-of="#g4451"
       xlink:href="#g4451"
       transform="matrix(0.01559431,0,0,0.01568627,117.56273,120.38859)"
       id="use16670"
       width="100%"
       height="100%" />
    <use
       x="0"
       y="0"
       inkscape:tiled-clone-of="#g4451"
       xlink:href="#g4451"
       transform="matrix(0.23584989,0,0,0.24313724,92.32639,99.547027)"
       id="use16672"
       width="100%"
       height="100%" />
    <use
       x="0"
       y="0"
       inkscape:tiled-clone-of="#g4451"
       xlink:href="#g4451"
       transform="matrix(0.48006695,0,0,0.47843134,64.3446,77.82224)"
       id="use16674"
       width="100%"
       height="100%" />
    <use
       x="0"
       y="0"
       inkscape:tiled-clone-of="#g4451"
       xlink:href="#g4451"
       transform="matrix(0.48238603,0,0,0.49411762,64.078885,80.82774)"
       id="use16676"
       width="100%"
       height="100%" />
    <use
       x="0"
       y="0"
       inkscape:tiled-clone-of="#g4451"
       xlink:href="#g4451"
       transform="matrix(0.53851813,0,0,0.54117644,57.647408,80.300343)"
       id="use16678"
       width="100%"
       height="100%" />
    <use
       x="0"
       y="0"
       inkscape:tiled-clone-of="#g4451"
       xlink:href="#g4451"
       transform="matrix(0.55248445,0,0,0.5529412,56.047181,83.747449)"
       id="use16680"
       width="100%"
       height="100%" />
    <use
       x="0"
       y="0"
       inkscape:tiled-clone-of="#g4451"
       xlink:href="#g4451"
       transform="matrix(0.51521105,0,0,0.5333333,60.317875,90.727467)"
       id="use16682"
       width="100%"
       height="100%" />
    <use
       x="0"
       y="0"
       inkscape:tiled-clone-of="#g4451"
       xlink:href="#g4451"
       transform="matrix(0.52836252,0,0,0.51764703,58.811012,97.265865)"
       id="use16684"
       width="100%"
       height="100%" />
    <use
       x="0"
       y="0"
       inkscape:tiled-clone-of="#g4451"
       xlink:href="#g4451"
       transform="matrix(0.51975664,0,0,0.50980389,59.797053,102.92104)"
       id="use16686"
       width="100%"
       height="100%" />
    <use
       x="0"
       y="0"
       inkscape:tiled-clone-of="#g4451"
       xlink:href="#g4451"
       transform="matrix(0.52351678,0,0,0.52941179,59.366225,105.48492)"
       id="use16688"
       width="100%"
       height="100%" />
    <use
       x="0"
       y="0"
       inkscape:tiled-clone-of="#g4451"
       xlink:href="#g4451"
       transform="matrix(0.49312465,0,0,0.49803919,62.84848,113.78978)"
       id="use16690"
       width="100%"
       height="100%" />
    <use
       x="0"
       y="0"
       inkscape:tiled-clone-of="#g4451"
       xlink:href="#g4451"
       transform="matrix(0.33426102,0,0,0.34117645,81.050684,136.22622)"
       id="use16692"
       width="100%"
       height="100%" />
    <use
       x="0"
       y="0"
       inkscape:tiled-clone-of="#g4451"
       xlink:href="#g4451"
       transform="matrix(0.05427319,0,0,0.05490196,113.131,173.23586)"
       id="use16694"
       width="100%"
       height="100%" />
    <use
       x="0"
       y="0"
       inkscape:tiled-clone-of="#g4451"
       xlink:href="#g4451"
       transform="matrix(0.47538407,0,0,0.46274507,69.653102,70.044789)"
       id="use16696"
       width="100%"
       height="100%" />
    <use
       x="0"
       y="0"
       inkscape:tiled-clone-of="#g4451"
       xlink:href="#g4451"
       transform="matrix(1.0188005,0,0,1,7.3897867,14.315849)"
       id="use16698"
       width="100%"
       height="100%" />
    <use
       x="0"
       y="0"
       inkscape:tiled-clone-of="#g4451"
       xlink:href="#g4451"
       transform="matrix(1.0115678,0,0,1,8.2184871,19.087799)"
       id="use16700"
       width="100%"
       height="100%" />
    <use
       x="0"
       y="0"
       inkscape:tiled-clone-of="#g4451"
       xlink:href="#g4451"
       transform="matrix(0.99829805,0,0,1,9.7389046,23.859749)"
       id="use16702"
       width="100%"
       height="100%" />
    <use
       x="0"
       y="0"
       inkscape:tiled-clone-of="#g4451"
       xlink:href="#g4451"
       transform="matrix(0.99665911,0,0,1,9.9266906,28.631698)"
       id="use16704"
       width="100%"
       height="100%" />
    <use
       x="0"
       y="0"
       inkscape:tiled-clone-of="#g4451"
       xlink:href="#g4451"
       transform="matrix(0.96686613,0,0,1,13.340297,33.403648)"
       id="use16706"
       width="100%"
       height="100%" />
    <use
       x="0"
       y="0"
       inkscape:tiled-clone-of="#g4451"
       xlink:href="#g4451"
       transform="matrix(1.0153177,0,0,1,7.7888315,38.175598)"
       id="use16708"
       width="100%"
       height="100%" />
    <use
       x="0"
       y="0"
       inkscape:tiled-clone-of="#g4451"
       xlink:href="#g4451"
       transform="matrix(1.0206648,0,0,1,7.1761816,42.947547)"
       id="use16710"
       width="100%"
       height="100%" />
    <use
       x="0"
       y="0"
       inkscape:tiled-clone-of="#g4451"
       xlink:href="#g4451"
       transform="matrix(1.0092206,0,0,1,8.4874244,47.719497)"
       id="use16712"
       width="100%"
       height="100%" />
    <use
       x="0"
       y="0"
       inkscape:tiled-clone-of="#g4451"
       xlink:href="#g4451"
       transform="matrix(0.97801626,0,0,1,12.062742,52.491447)"
       id="use16714"
       width="100%"
       height="100%" />
    <use
       x="0"
       y="0"
       inkscape:tiled-clone-of="#g4451"
       xlink:href="#g4451"
       transform="matrix(1.0222104,0,0,1,6.9990848,57.263396)"
       id="use16716"
       width="100%"
       height="100%" />
    <use
       x="0"
       y="0"
       inkscape:tiled-clone-of="#g4451"
       xlink:href="#g4451"
       transform="matrix(0.98809589,0,0,1,10.907843,62.035346)"
       id="use16718"
       width="100%"
       height="100%" />
    <use
       x="0"
       y="0"
       inkscape:tiled-clone-of="#g4451"
       xlink:href="#g4451"
       transform="matrix(0.7957317,0,0,0.81960785,32.948458,87.121461)"
       id="use16720"
       width="100%"
       height="100%" />
    <use
       x="0"
       y="0"
       inkscape:tiled-clone-of="#g4451"
       xlink:href="#g4451"
       transform="matrix(0.0424303,0,0,0.04313725,119.25988,179.33265)"
       id="use16722"
       width="100%"
       height="100%" />
    <use
       x="0"
       y="0"
       inkscape:tiled-clone-of="#g4451"
       xlink:href="#g4451"
       transform="matrix(0.04663451,0,0,0.04705882,123.55012,112.08374)"
       id="use16724"
       width="100%"
       height="100%" />
    <use
       x="0"
       y="0"
       inkscape:tiled-clone-of="#g4451"
       xlink:href="#g4451"
       transform="matrix(1.0030872,0,0,0.97647059,13.962127,12.193573)"
       id="use16726"
       width="100%"
       height="100%" />
    <use
       x="0"
       y="0"
       inkscape:tiled-clone-of="#g4451"
       xlink:href="#g4451"
       transform="matrix(0.99555498,0,0,1,14.825149,14.315849)"
       id="use16728"
       width="100%"
       height="100%" />
    <use
       x="0"
       y="0"
       inkscape:tiled-clone-of="#g4451"
       xlink:href="#g4451"
       transform="matrix(1.0213071,0,0,1,11.874539,19.087799)"
       id="use16730"
       width="100%"
       height="100%" />
    <use
       x="0"
       y="0"
       inkscape:tiled-clone-of="#g4451"
       xlink:href="#g4451"
       transform="matrix(0.97438909,0,0,1,17.250285,23.859749)"
       id="use16732"
       width="100%"
       height="100%" />
    <use
       x="0"
       y="0"
       inkscape:tiled-clone-of="#g4451"
       xlink:href="#g4451"
       transform="matrix(0.99548602,0,0,1,14.83305,28.631698)"
       id="use16734"
       width="100%"
       height="100%" />
    <use
       x="0"
       y="0"
       inkscape:tiled-clone-of="#g4451"
       xlink:href="#g4451"
       transform="matrix(1.005005,0,0,1,13.742385,33.403648)"
       id="use16736"
       width="100%"
       height="100%" />
    <use
       x="0"
       y="0"
       inkscape:tiled-clone-of="#g4451"
       xlink:href="#g4451"
       transform="matrix(1.0165699,0,0,1,12.417312,38.175598)"
       id="use16738"
       width="100%"
       height="100%" />
    <use
       x="0"
       y="0"
       inkscape:tiled-clone-of="#g4451"
       xlink:href="#g4451"
       transform="matrix(1.0236531,0,0,1,11.605734,42.947547)"
       id="use16740"
       width="100%"
       height="100%" />
    <use
       x="0"
       y="0"
       inkscape:tiled-clone-of="#g4451"
       xlink:href="#g4451"
       transform="matrix(1.0020467,0,0,1,14.081342,47.719497)"
       id="use16742"
       width="100%"
       height="100%" />
    <use
       x="0"
       y="0"
       inkscape:tiled-clone-of="#g4451"
       xlink:href="#g4451"
       transform="matrix(0.98638461,0,0,1,15.875867,52.491447)"
       id="use16744"
       width="100%"
       height="100%" />
    <use
       x="0"
       y="0"
       inkscape:tiled-clone-of="#g4451"
       xlink:href="#g4451"
       transform="matrix(1.0014945,0,0,1,14.144609,57.263396)"
       id="use16746"
       width="100%"
       height="100%" />
    <use
       x="0"
       y="0"
       inkscape:tiled-clone-of="#g4451"
       xlink:href="#g4451"
       transform="matrix(1.0106615,0,0,1,13.094286,62.035346)"
       id="use16748"
       width="100%"
       height="100%" />
    <use
       x="0"
       y="0"
       inkscape:tiled-clone-of="#g4451"
       xlink:href="#g4451"
       transform="matrix(1.0186166,0,0,1,12.182807,66.807296)"
       id="use16750"
       width="100%"
       height="100%" />
    <use
       x="0"
       y="0"
       inkscape:tiled-clone-of="#g4451"
       xlink:href="#g4451"
       transform="matrix(0.26482719,0,0,0.26274508,98.550141,154.60236)"
       id="use16752"
       width="100%"
       height="100%" />
    <use
       x="0"
       y="0"
       inkscape:tiled-clone-of="#g4451"
       xlink:href="#g4451"
       transform="matrix(0.03958589,0,0,0.03921568,129.12968,112.96697)"
       id="use16754"
       width="100%"
       height="100%" />
    <use
       x="0"
       y="0"
       inkscape:tiled-clone-of="#g4451"
       xlink:href="#g4451"
       transform="matrix(0.96539637,0,0,0.96078432,23.052598,13.960022)"
       id="use16756"
       width="100%"
       height="100%" />
    <use
       x="0"
       y="0"
       inkscape:tiled-clone-of="#g4451"
       xlink:href="#g4451"
       transform="matrix(0.98677082,0,0,1,20.603565,14.315849)"
       id="use16758"
       width="100%"
       height="100%" />
    <use
       x="0"
       y="0"
       inkscape:tiled-clone-of="#g4451"
       xlink:href="#g4451"
       transform="matrix(1.0087126,0,0,1,18.089531,19.087799)"
       id="use16760"
       width="100%"
       height="100%" />
    <use
       x="0"
       y="0"
       inkscape:tiled-clone-of="#g4451"
       xlink:href="#g4451"
       transform="matrix(1.0045395,0,0,1,18.567675,23.859749)"
       id="use16762"
       width="100%"
       height="100%" />
    <use
       x="0"
       y="0"
       inkscape:tiled-clone-of="#g4451"
       xlink:href="#g4451"
       transform="matrix(0.97699218,0,0,1,21.723978,28.631698)"
       id="use16764"
       width="100%"
       height="100%" />
    <use
       x="0"
       y="0"
       inkscape:tiled-clone-of="#g4451"
       xlink:href="#g4451"
       transform="matrix(0.99918091,0,0,1,19.181648,33.403648)"
       id="use16766"
       width="100%"
       height="100%" />
    <use
       x="0"
       y="0"
       inkscape:tiled-clone-of="#g4451"
       xlink:href="#g4451"
       transform="matrix(1.0301624,0,0,1,15.631866,38.175598)"
       id="use16768"
       width="100%"
       height="100%" />
    <use
       x="0"
       y="0"
       inkscape:tiled-clone-of="#g4451"
       xlink:href="#g4451"
       transform="matrix(1.0060085,0,0,1,18.399365,42.947547)"
       id="use16770"
       width="100%"
       height="100%" />
    <use
       x="0"
       y="0"
       inkscape:tiled-clone-of="#g4451"
       xlink:href="#g4451"
       transform="matrix(0.97938572,0,0,1,21.449732,47.719497)"
       id="use16772"
       width="100%"
       height="100%" />
    <use
       x="0"
       y="0"
       inkscape:tiled-clone-of="#g4451"
       xlink:href="#g4451"
       transform="matrix(0.97350498,0,0,1,22.123533,52.491447)"
       id="use16774"
       width="100%"
       height="100%" />
    <use
       x="0"
       y="0"
       inkscape:tiled-clone-of="#g4451"
       xlink:href="#g4451"
       transform="matrix(0.99008997,0,0,1,20.223265,57.263396)"
       id="use16776"
       width="100%"
       height="100%" />
    <use
       x="0"
       y="0"
       inkscape:tiled-clone-of="#g4451"
       xlink:href="#g4451"
       transform="matrix(0.9793497,0,0,1,21.453859,62.035346)"
       id="use16778"
       width="100%"
       height="100%" />
    <use
       x="0"
       y="0"
       inkscape:tiled-clone-of="#g4451"
       xlink:href="#g4451"
       transform="matrix(1.0260311,0,0,1,16.105215,66.807296)"
       id="use16780"
       width="100%"
       height="100%" />
    <use
       x="0"
       y="0"
       inkscape:tiled-clone-of="#g4451"
       xlink:href="#g4451"
       transform="matrix(0.24209025,0,0,0.24313724,105.92723,156.81042)"
       id="use16782"
       width="100%"
       height="100%" />
    <use
       x="0"
       y="0"
       inkscape:tiled-clone-of="#g4451"
       xlink:href="#g4451"
       transform="matrix(0.38655239,0,0,0.39607841,94.147066,77.552198)"
       id="use16784"
       width="100%"
       height="100%" />
    <use
       x="0"
       y="0"
       inkscape:tiled-clone-of="#g4451"
       xlink:href="#g4451"
       transform="matrix(1.0096211,0,0,1,22.757381,14.315849)"
       id="use16786"
       width="100%"
       height="100%" />
    <use
       x="0"
       y="0"
       inkscape:tiled-clone-of="#g4451"
       xlink:href="#g4451"
       transform="matrix(0.97426936,0,0,1,26.807901,19.087799)"
       id="use16788"
       width="100%"
       height="100%" />
    <use
       x="0"
       y="0"
       inkscape:tiled-clone-of="#g4451"
       xlink:href="#g4451"
       transform="matrix(0.98032578,0,0,1,26.113972,23.859749)"
       id="use16790"
       width="100%"
       height="100%" />
    <use
       x="0"
       y="0"
       inkscape:tiled-clone-of="#g4451"
       xlink:href="#g4451"
       transform="matrix(0.9711401,0,0,1,27.166445,28.631698)"
       id="use16792"
       width="100%"
       height="100%" />
    <use
       x="0"
       y="0"
       inkscape:tiled-clone-of="#g4451"
       xlink:href="#g4451"
       transform="matrix(1.0083172,0,0,1,22.906787,33.403648)"
       id="use16794"
       width="100%"
       height="100%" />
    <use
       x="0"
       y="0"
       inkscape:tiled-clone-of="#g4451"
       xlink:href="#g4451"
       transform="matrix(1.0002151,0,0,1,23.835101,38.175598)"
       id="use16796"
       width="100%"
       height="100%" />
    <use
       x="0"
       y="0"
       inkscape:tiled-clone-of="#g4451"
       xlink:href="#g4451"
       transform="matrix(1.0185081,0,0,1,21.739138,42.947547)"
       id="use16798"
       width="100%"
       height="100%" />
    <use
       x="0"
       y="0"
       inkscape:tiled-clone-of="#g4451"
       xlink:href="#g4451"
       transform="matrix(1.0232969,0,0,1,21.190452,47.719497)"
       id="use16800"
       width="100%"
       height="100%" />
    <use
       x="0"
       y="0"
       inkscape:tiled-clone-of="#g4451"
       xlink:href="#g4451"
       transform="matrix(0.97806454,0,0,1,26.37306,52.491447)"
       id="use16802"
       width="100%"
       height="100%" />
    <use
       x="0"
       y="0"
       inkscape:tiled-clone-of="#g4451"
       xlink:href="#g4451"
       transform="matrix(1.0152224,0,0,1,22.115599,57.263396)"
       id="use16804"
       width="100%"
       height="100%" />
    <use
       x="0"
       y="0"
       inkscape:tiled-clone-of="#g4451"
       xlink:href="#g4451"
       transform="matrix(1.0190127,0,0,1,21.681318,62.035346)"
       id="use16806"
       width="100%"
       height="100%" />
    <use
       x="0"
       y="0"
       inkscape:tiled-clone-of="#g4451"
       xlink:href="#g4451"
       transform="matrix(0.73582402,0,0,0.73725486,54.128383,96.395326)"
       id="use16808"
       width="100%"
       height="100%" />
    <use
       x="0"
       y="0"
       inkscape:tiled-clone-of="#g4451"
       xlink:href="#g4451"
       transform="matrix(0.03095563,0,0,0.03137255,134.89047,180.65749)"
       id="use16810"
       width="100%"
       height="100%" />
    <use
       x="0"
       y="0"
       inkscape:tiled-clone-of="#g4451"
       xlink:href="#g4451"
       transform="matrix(0.00393043,0,0,0.00392157,142.7589,121.71343)"
       id="use16812"
       width="100%"
       height="100%" />
    <use
       x="0"
       y="0"
       inkscape:tiled-clone-of="#g4451"
       xlink:href="#g4451"
       transform="matrix(0.17799524,0,0,0.18039215,122.81498,106.61282)"
       id="use16814"
       width="100%"
       height="100%" />
    <use
       x="0"
       y="0"
       inkscape:tiled-clone-of="#g4451"
       xlink:href="#g4451"
       transform="matrix(0.34112284,0,0,0.34901959,104.12422,92.395445)"
       id="use16816"
       width="100%"
       height="100%" />
    <use
       x="0"
       y="0"
       inkscape:tiled-clone-of="#g4451"
       xlink:href="#g4451"
       transform="matrix(0.39407661,0,0,0.38823527,98.05691,92.751272)"
       id="use16818"
       width="100%"
       height="100%" />
    <use
       x="0"
       y="0"
       inkscape:tiled-clone-of="#g4451"
       xlink:href="#g4451"
       transform="matrix(0.44773915,0,0,0.43529409,91.908388,92.223874)"
       id="use16820"
       width="100%"
       height="100%" />
    <use
       x="0"
       y="0"
       inkscape:tiled-clone-of="#g4451"
       xlink:href="#g4451"
       transform="matrix(0.42347469,0,0,0.41960782,94.68855,98.762273)"
       id="use16822"
       width="100%"
       height="100%" />
    <use
       x="0"
       y="0"
       inkscape:tiled-clone-of="#g4451"
       xlink:href="#g4451"
       transform="matrix(0.44399875,0,0,0.4588235,92.336953,99.1181)"
       id="use16824"
       width="100%"
       height="100%" />
    <use
       x="0"
       y="0"
       inkscape:tiled-clone-of="#g4451"
       xlink:href="#g4451"
       transform="matrix(0.42288929,0,0,0.42352939,94.755623,107.86456)"
       id="use16826"
       width="100%"
       height="100%" />
    <use
       x="0"
       y="0"
       inkscape:tiled-clone-of="#g4451"
       xlink:href="#g4451"
       transform="matrix(0.42054008,0,0,0.41568625,95.02479,113.51973)"
       id="use16828"
       width="100%"
       height="100%" />
    <use
       x="0"
       y="0"
       inkscape:tiled-clone-of="#g4451"
       xlink:href="#g4451"
       transform="matrix(0.40404842,0,0,0.39607841,96.914364,120.49975)"
       id="use16830"
       width="100%"
       height="100%" />
    <use
       x="0"
       y="0"
       inkscape:tiled-clone-of="#g4451"
       xlink:href="#g4451"
       transform="matrix(0.36663576,0,0,0.36862743,101.20101,128.36298)"
       id="use16832"
       width="100%"
       height="100%" />
    <use
       x="0"
       y="0"
       inkscape:tiled-clone-of="#g4451"
       xlink:href="#g4451"
       transform="matrix(0.29420184,0,0,0.28627449,109.50031,142.40879)"
       id="use16834"
       width="100%"
       height="100%" />
    <use
       x="0"
       y="0"
       inkscape:tiled-clone-of="#g4451"
       xlink:href="#g4451"
       transform="matrix(0.03598401,0,0,0.03529412,139.08628,175.44393)"
       id="use16836"
       width="100%"
       height="100%" />
  </g>
</svg>
